<svg width="54" height="32" viewBox="0 0 54 32" fill="none" xmlns="http://www.w3.org/2000/svg">
	<path
		d="M12.8765 11.6292C12.8765 12.2881 12.948 12.8228 13.0723 13.2144C13.2144 13.606 13.3932 14.0334 13.6418 14.4965C13.7312 14.6386 13.766 14.7817 13.766 14.906C13.766 15.0839 13.6587 15.2618 13.4281 15.4406L12.306 16.189C12.146 16.2963 11.985 16.349 11.8429 16.349C11.665 16.349 11.4871 16.2596 11.3082 16.0996C11.0587 15.8322 10.8451 15.548 10.6672 15.2627C10.4892 14.9596 10.3113 14.6217 10.1155 14.2122C8.72613 15.8511 6.9809 16.67 4.87985 16.67C3.38408 16.67 2.19047 16.2427 1.31786 15.3879C0.445249 14.5332 0 13.3932 0 11.969C0 10.4554 0.534675 9.22692 1.62097 8.30065C2.70727 7.37438 4.14938 6.91125 5.98404 6.91125C6.58931 6.91125 7.21247 6.9649 7.8714 7.05339C8.53033 7.14281 9.20715 7.28495 9.91974 7.44498V6.145C9.91974 4.79137 9.63451 3.84722 9.08289 3.2956C8.51339 2.74398 7.55135 2.47664 6.17983 2.47664C5.55667 2.47664 4.91563 2.54818 4.25669 2.70821C3.59776 2.86823 2.95672 3.06403 2.33356 3.31348C2.04833 3.43774 1.83465 3.50928 1.7104 3.54505C1.58614 3.58082 1.49671 3.59871 1.42517 3.59871C1.17572 3.59871 1.05147 3.42079 1.05147 3.04709V2.17447C1.05147 1.88925 1.08724 1.67557 1.17572 1.55131C1.26421 1.42706 1.42517 1.30186 1.67463 1.1776C2.29779 0.85661 3.04614 0.590214 3.91876 0.376532C4.79137 0.144965 5.71764 0.0385945 6.69662 0.0385945C8.81556 0.0385945 10.365 0.519614 11.3628 1.48071C12.3427 2.44275 12.8407 3.90275 12.8407 5.86166V11.632H12.8765V11.6292ZM5.6461 14.3365C6.23349 14.3365 6.8397 14.2291 7.48075 14.0155C8.1218 13.8018 8.6913 13.4102 9.17232 12.8755C9.45754 12.5376 9.67122 12.1629 9.77759 11.7356C9.88491 11.3082 9.95551 10.7914 9.95551 10.1861V9.43778C9.43872 9.31352 8.8871 9.20621 8.31665 9.13467C7.74715 9.06313 7.19459 9.02736 6.64297 9.02736C5.44936 9.02736 4.57675 9.25892 3.98936 9.73994C3.40197 10.221 3.11674 10.8978 3.11674 11.7883C3.11674 12.6251 3.33043 13.2483 3.77567 13.6756C4.20304 14.1209 4.8262 14.3346 5.64516 14.3346L5.6461 14.3365ZM19.9468 16.2596C19.6258 16.2596 19.4121 16.2059 19.27 16.0817C19.1278 15.9744 19.0026 15.7259 18.8963 15.387L14.7111 1.62097C14.6038 1.26515 14.5511 1.03358 14.5511 0.908384C14.5511 0.623161 14.6932 0.463134 14.9784 0.463134H16.7237C17.0616 0.463134 17.2932 0.51679 17.4184 0.641046C17.5605 0.748357 17.6678 0.996869 17.7742 1.33575L20.7657 13.125L23.5436 1.33575C23.633 0.979925 23.7394 0.748357 23.8815 0.641046C24.0237 0.533734 24.2731 0.463134 24.5941 0.463134H26.0184C26.3563 0.463134 26.5879 0.51679 26.7309 0.641046C26.8731 0.748357 26.9983 0.996869 27.0689 1.33575L29.8825 13.268L32.9635 1.33575C33.0708 0.979925 33.1951 0.748357 33.3193 0.641046C33.4615 0.533734 33.693 0.463134 34.014 0.463134H35.6698C35.955 0.463134 36.1151 0.605275 36.1151 0.908384C36.1151 0.99781 36.0972 1.0863 36.0793 1.19361C36.0614 1.30092 36.0256 1.44306 35.955 1.63886L31.6635 15.4049C31.5562 15.7607 31.432 15.9923 31.2898 16.0996C31.1477 16.2069 30.9161 16.2775 30.613 16.2775H29.0815C28.7435 16.2775 28.5119 16.2238 28.3689 16.0996C28.2267 15.9753 28.1015 15.7437 28.0309 15.387L25.2709 3.89993L22.5289 15.3691C22.4394 15.7249 22.3331 15.9565 22.1909 16.0817C22.0488 16.2059 21.7993 16.2596 21.4783 16.2596H19.9468ZM42.8305 16.7406C41.9042 16.7406 40.978 16.6333 40.0884 16.4196C39.1979 16.2059 38.5032 15.9744 38.0401 15.707C37.7549 15.547 37.5591 15.3691 37.4885 15.2081C37.4169 15.0481 37.3812 14.8702 37.3812 14.7092V13.8008C37.3812 13.4271 37.5233 13.2492 37.7906 13.2492C37.8979 13.2492 38.0043 13.2671 38.1116 13.3029C38.2189 13.3386 38.379 13.4102 38.5569 13.4808C39.1622 13.7481 39.8211 13.9618 40.5158 14.104C41.2284 14.2461 41.9231 14.3176 42.6347 14.3176C43.7568 14.3176 44.6294 14.1218 45.2347 13.7302C45.8399 13.3386 46.1609 12.7682 46.1609 12.0387C46.1609 11.5398 46.0009 11.1303 45.6799 10.7923C45.3589 10.4544 44.7537 10.1513 43.881 9.86608L41.299 9.06501C39.999 8.65553 39.037 8.05026 38.4496 7.24824C37.8622 6.46506 37.5591 5.59244 37.5591 4.66617C37.5591 3.91782 37.7191 3.25889 38.0401 2.68938C38.3611 2.11988 38.7884 1.62097 39.3222 1.22938C39.8569 0.819899 40.4621 0.51679 41.1747 0.303108C41.8873 0.0894263 42.6347 0 43.4188 0C43.8104 0 44.2199 0.0178853 44.6125 0.0715411C45.0219 0.125197 45.3956 0.195797 45.7703 0.267338C46.1261 0.356764 46.465 0.445249 46.785 0.552561C47.106 0.659873 47.3545 0.766243 47.5334 0.873554C47.7829 1.0157 47.9608 1.15878 48.0681 1.3188C48.1754 1.46094 48.2281 1.65674 48.2281 1.90619V2.74304C48.2281 3.11674 48.086 3.31254 47.8186 3.31254C47.6765 3.31254 47.4449 3.241 47.1418 3.09886C46.1271 2.63572 44.9871 2.40416 43.7229 2.40416C42.7081 2.40416 41.9061 2.56418 41.3545 2.90306C40.8029 3.241 40.5177 3.75779 40.5177 4.48826C40.5177 4.98717 40.6956 5.41453 41.0523 5.75247C41.4082 6.09041 42.0671 6.42929 43.0112 6.73239L45.5397 7.53347C46.8218 7.94294 47.748 8.51339 48.2996 9.24292C48.8513 9.97339 49.1186 10.8102 49.1186 11.7365C49.1186 12.5027 48.9586 13.1965 48.6555 13.8027C48.3345 14.408 47.9071 14.9427 47.3555 15.37C46.8039 15.8153 46.1449 16.1363 45.3787 16.3669C44.5776 16.6164 43.7398 16.7406 42.8324 16.7406H42.8305Z"
		fill="#2B3647" />
	<path fill-rule="evenodd" clip-rule="evenodd"
		d="M48.4096 25.3751C42.5508 29.7024 34.0383 32.0002 26.7186 32.0002C16.4609 32.0002 7.21797 28.2066 0.237066 21.9025C-0.314553 21.4036 0.18341 20.7268 0.842341 21.1193C8.39369 25.5003 17.7072 28.1539 27.3417 28.1539C33.8416 28.1539 40.9835 26.8003 47.5549 24.0224C48.5348 23.5771 49.3717 24.6634 48.4096 25.376V25.3751Z"
		fill="#F29315" />
	<path fill-rule="evenodd" clip-rule="evenodd"
		d="M50.8497 22.5973C50.1013 21.6352 45.8992 22.1341 43.9931 22.3657C43.4235 22.4372 43.3341 21.9383 43.8509 21.5646C47.1992 19.2141 52.7022 19.8909 53.3433 20.6741C53.9843 21.4752 53.1654 26.9782 50.0307 29.6139C49.5497 30.0234 49.0866 29.8097 49.3003 29.276C50.0129 27.5129 51.5981 23.5414 50.8497 22.5982V22.5973Z"
		fill="#F29315" />
</svg>