<svg width="40" height="40" viewBox="0 0 40 40" fill="none" xmlns="http://www.w3.org/2000/svg">
  <path
    d="M13.3645 34.996C12.1891 34.996 11.0134 34.9884 9.83797 35.0002C9.44415 35.0043 9.19109 34.8689 8.98774 34.5111C7.86585 32.5375 6.71855 30.5786 5.583 28.613C5.18881 27.9304 5.12241 27.9194 5.56745 27.1572C6.747 25.1369 7.90986 23.1067 9.07841 21.08C9.20627 20.858 9.38497 20.7526 9.64979 20.7529C12.1333 20.7579 14.6173 20.7582 17.1008 20.7529C17.3732 20.7522 17.5523 20.8599 17.6855 21.0895C18.8658 23.1238 20.0495 25.1566 21.2325 27.1894C21.2993 27.304 21.366 27.4182 21.4355 27.5309C21.5747 27.7563 21.5762 27.9767 21.4408 28.2081C20.825 29.2579 20.2142 30.3108 19.6007 31.3617C18.9807 32.4236 18.3494 33.4791 17.7458 34.5502C17.5625 34.875 17.3247 35.0013 16.9669 34.9986C15.7661 34.9907 14.5653 34.9956 13.3645 34.9956V34.996ZM13.3857 23.9691C12.7601 23.9691 12.1341 23.9756 11.5085 23.9661C11.2444 23.9619 11.0665 24.0659 10.9367 24.2908C10.3065 25.3835 9.67331 26.4743 9.03706 27.5635C8.91299 27.776 8.91186 27.9737 9.03554 28.1865C9.65396 29.2496 10.275 30.3112 10.8787 31.3826C11.0429 31.674 11.2634 31.787 11.5847 31.7855C12.7855 31.7794 13.9867 31.7783 15.1879 31.7863C15.4929 31.7882 15.6944 31.6679 15.8473 31.4069C16.4778 30.3286 17.1171 29.2557 17.7557 28.1823C17.8771 27.9782 17.8805 27.7813 17.7598 27.5768C17.1088 26.4743 16.4581 25.3717 15.8093 24.2677C15.6895 24.0636 15.5229 23.9649 15.282 23.9672C14.6499 23.9733 14.0178 23.9691 13.3857 23.9691Z"
    fill="#FEC439" />
  <path
    d="M13.2266 5.00343C14.4904 5.00343 15.7546 5.00684 17.0184 5.00001C17.243 4.99887 17.3856 5.09069 17.4926 5.27659C18.5948 7.18877 19.6954 9.1017 20.8044 11.0093C20.9914 11.3307 20.8924 11.7818 20.3738 11.781C19.5205 11.7799 18.6676 11.7833 17.8143 11.7799C17.6262 11.7791 17.4805 11.6938 17.3826 11.523C16.8078 10.5226 16.2266 9.52549 15.6559 8.52274C15.533 8.30686 15.3775 8.21011 15.1236 8.21201C13.8473 8.22074 12.5707 8.21922 11.294 8.21353C11.058 8.21239 10.9078 8.30344 10.7909 8.50794C10.2191 9.51031 9.636 10.5062 9.06197 11.5071C8.96371 11.6786 8.82561 11.7731 8.63553 11.7742C7.75077 11.7803 6.86601 11.7905 5.98163 11.7761C5.60374 11.77 5.41518 11.3906 5.60374 11.0632C6.7188 9.12902 7.83499 7.19636 8.95119 5.26331C9.05401 5.08538 9.19932 4.99887 9.41595 5.00001C10.6862 5.00646 11.9564 5.00305 13.2266 5.00305V5.00343Z"
    fill="#FEC439" />
  <path
    d="M27.0359 26.9657C25.8097 26.9657 24.5834 26.9573 23.3572 26.9717C23.0639 26.9751 22.8921 26.8674 22.7513 26.6212C21.9508 25.2189 21.1404 23.8227 20.3334 22.4242C20.0466 21.9272 19.7772 21.4188 19.4668 20.937C19.2293 20.5686 19.5173 20.1881 19.8914 20.1941C20.7504 20.2078 21.6101 20.1892 22.4694 20.19C22.7046 20.19 22.8405 20.3432 22.9494 20.536C23.2722 21.107 23.6012 21.6742 23.929 22.2425C24.1558 22.636 24.3865 23.0271 24.6111 23.4217C24.7386 23.6455 24.92 23.7556 25.1817 23.7548C26.4334 23.751 27.6846 23.7506 28.9363 23.7548C29.1962 23.7556 29.3817 23.6562 29.5111 23.4308C30.0525 22.491 30.6045 21.5573 31.1364 20.6119C31.2996 20.3216 31.4961 20.1828 31.8432 20.1926C32.6263 20.215 33.4109 20.2158 34.194 20.1938C34.7123 20.1793 34.8428 20.6297 34.6406 20.9757C33.5395 22.8594 32.4579 24.7545 31.3682 26.6451C31.2453 26.8583 31.0643 26.9679 30.8094 26.9672C29.5517 26.9634 28.294 26.9653 27.0359 26.9653V26.9657Z"
    fill="#FEC439" />
  <path
    d="M34.6702 18.8179C34.5158 18.5083 34.3288 18.215 34.1554 17.9153C33.2129 16.2839 32.2679 14.654 31.3311 13.0195C31.2188 12.8238 31.0572 12.7449 30.8565 12.7441C29.5548 12.7407 28.2527 12.7456 26.9509 12.7475C26.2358 12.7475 25.521 12.7479 24.8058 12.7483C24.2785 12.746 23.7507 12.7388 23.2233 12.7441C23.0553 12.746 22.9096 12.8177 22.8219 12.9755C22.74 13.1231 22.6569 13.2703 22.5742 13.4179C22.3932 13.7252 22.2092 14.031 22.0313 14.3399C21.1617 15.8483 20.2997 17.361 19.4187 18.8627C19.2658 19.1233 19.5105 19.5281 19.7848 19.5293C20.492 19.5323 21.1989 19.5266 21.9061 19.5247C22.0825 19.527 22.2589 19.5369 22.435 19.5289C22.6448 19.5198 22.8064 19.4394 22.9191 19.2387C23.3622 18.4499 23.8133 17.6657 24.2739 16.8868C24.445 16.5973 24.5767 16.282 24.8073 16.0289C24.9363 15.955 25.0782 15.9489 25.2224 15.9466C25.7482 15.9383 26.2749 15.9682 26.8003 15.9314C26.8698 15.9345 26.9388 15.9398 27.0082 15.9402C27.6468 15.9409 28.2849 15.9413 28.9234 15.9402C29.1833 15.9398 29.3658 16.0331 29.5032 16.2767C30.0692 17.281 30.6554 18.2742 31.2329 19.2721C31.3326 19.4443 31.473 19.5331 31.6771 19.5323C32.5368 19.5293 33.3962 19.5316 34.2559 19.53C34.3166 19.53 34.375 19.5285 34.4384 19.5046C34.7355 19.3938 34.8144 19.1066 34.6702 18.8175V18.8179Z"
    fill="url(#paint0_linear_5756_26489)" />
  <path
    d="M11.7197 17.3648C11.4545 16.8629 11.1638 16.3757 10.8706 15.8897C10.2503 14.8095 9.6307 13.7286 9.0081 12.6492C8.92463 12.5043 8.78388 12.4607 8.62035 12.4614C7.74887 12.4641 6.87777 12.4614 6.00629 12.463C5.60261 12.4637 5.40987 12.7908 5.60261 13.15C5.6857 13.3052 5.77903 13.4551 5.86781 13.6076C6.31057 14.3683 6.75371 15.129 7.19647 15.8897C7.48822 16.4319 7.79744 16.9638 8.11841 17.4889C8.41206 18.0022 8.70306 18.517 9.00051 19.0281C9.08815 19.1791 9.24257 19.2258 9.40647 19.2261C10.2715 19.2284 11.1365 19.2303 12.0016 19.2261C12.3684 19.2242 12.5866 18.8756 12.4128 18.5531C12.1951 18.1498 11.9519 17.7601 11.7193 17.3648H11.7197Z"
    fill="url(#paint1_linear_5756_26489)" />
  <path
    d="M16.5778 17.9503C16.5736 17.9321 16.5732 17.9113 16.5641 17.8957C16.2371 17.3289 15.9115 16.7609 15.5799 16.1968C15.5075 16.0738 15.3826 16.0283 15.2408 16.0283C14.3503 16.0287 13.4602 16.0264 12.5698 16.0294C12.2166 16.0306 12.0056 16.3644 12.1756 16.6752C12.4381 17.1547 12.7231 17.6222 12.9985 18.0945C13.1749 18.4052 13.3464 18.719 13.5308 19.0252C13.5942 19.1303 13.6879 19.2263 13.8263 19.2266C14.7339 19.2289 15.6418 19.2319 16.5493 19.2247C16.8236 19.2225 16.9989 19.0316 16.9811 18.7607C16.9598 18.439 16.7379 18.2079 16.5774 17.9503H16.5778Z"
    fill="url(#paint2_linear_5756_26489)" />
  <path
    d="M20.4155 12.4542C19.544 12.4811 18.671 12.4652 17.7988 12.461C17.6235 12.4603 17.4881 12.521 17.4023 12.6693C16.9417 13.4657 16.4842 14.2639 16.0266 15.0618C15.9655 15.1684 15.9253 15.2792 15.9883 15.401C16.1712 15.8441 16.4428 16.2376 16.6837 16.6485C16.903 17.0358 17.1128 17.4293 17.3443 17.809C17.5476 18.1429 17.9483 18.1027 18.1266 17.8064C18.3482 17.438 18.5549 17.0609 18.7681 16.6872C19.0182 16.2569 19.2678 15.8267 19.5178 15.3964C19.7018 15.0808 19.8866 14.7655 20.0699 14.4495C20.3195 14.0188 20.5608 13.5829 20.8188 13.1576C21.0104 12.8419 20.7634 12.4432 20.4155 12.4538V12.4542Z"
    fill="url(#paint3_linear_5756_26489)" />
  <defs>
    <linearGradient id="paint0_linear_5756_26489" x1="19.3717" y1="16.1374" x2="34.74" y2="16.1374"
      gradientUnits="userSpaceOnUse">
      <stop stop-color="#F79022" />
      <stop offset="1" stop-color="#FBAA1E" />
    </linearGradient>
    <linearGradient id="paint1_linear_5756_26489" x1="9.00051" y1="12.4614" x2="9.00051" y2="19.2288"
      gradientUnits="userSpaceOnUse">
      <stop stop-color="#FBAA1E" />
      <stop offset="1" stop-color="#F79022" />
    </linearGradient>
    <linearGradient id="paint2_linear_5756_26489" x1="14.5495" y1="16.0275" x2="14.5495" y2="19.2293"
      gradientUnits="userSpaceOnUse">
      <stop stop-color="#FBAA1E" />
      <stop offset="1" stop-color="#F79022" />
    </linearGradient>
    <linearGradient id="paint3_linear_5756_26489" x1="18.421" y1="12.4538" x2="18.421" y2="18.0447"
      gradientUnits="userSpaceOnUse">
      <stop stop-color="#FBAA1E" />
      <stop offset="1" stop-color="#F79022" />
    </linearGradient>
  </defs>
</svg>