<svg width="107" height="30" viewBox="0 0 107 30" fill="none" xmlns="http://www.w3.org/2000/svg">
  <path
    d="M45.1534 8.57478L44.5819 10.1851H44.5476C44.4435 9.80416 44.2706 9.26707 44.0105 8.59153L40.945 0.901309H37.9482V13.1298H39.9228V5.61245C39.9228 5.14504 39.9052 4.59032 39.8884 3.95006C39.8884 3.62111 39.8364 3.36095 39.8364 3.17045H39.8884C39.9581 3.51704 40.0613 3.88039 40.1654 4.20934L43.8376 13.1289H45.2231L48.8777 4.12203C48.9641 3.9139 49.0506 3.51616 49.1202 3.15193H49.1546C49.1026 4.0356 49.0682 4.8496 49.0682 5.35141V13.1113H51.1813V0.884552H48.3062L45.1543 8.57478H45.1534ZM53.155 13.1298H55.216V4.36544H53.155V13.1298ZM54.2115 0.642028C53.8649 0.642028 53.5703 0.762849 53.3278 0.988617C53.0853 1.21439 52.9645 1.50806 52.9645 1.85465C52.9645 2.20124 53.0853 2.47816 53.3278 2.70304C53.5703 2.92793 53.8649 3.03199 54.2115 3.03199C54.5581 3.03199 54.8526 2.92793 55.0952 2.70304C55.3377 2.47816 55.4585 2.20036 55.4585 1.85465C55.4585 1.50894 55.3377 1.24878 55.0952 1.00626C54.8703 0.763731 54.5757 0.64291 54.2115 0.64291M62.5252 4.27901C62.1442 4.19258 61.7632 4.15819 61.3646 4.15819C60.4289 4.15819 59.5805 4.36632 58.853 4.76406C58.143 5.16268 57.5883 5.73416 57.2073 6.46173C56.8263 7.1893 56.6358 8.0377 56.6358 8.9734C56.6358 9.80504 56.8263 10.5494 57.1897 11.2249C57.553 11.9004 58.0734 12.4199 58.7313 12.7841C59.3892 13.1475 60.1511 13.338 60.9828 13.338C61.9696 13.338 62.8013 13.1475 63.4592 12.7665L63.4935 12.7488V10.8607L63.4071 10.9304C63.0949 11.1552 62.7492 11.329 62.4026 11.4498C62.0393 11.5706 61.7094 11.6403 61.4158 11.6403C60.6018 11.6403 59.9606 11.3801 59.4932 10.896C59.0258 10.3933 58.7833 9.70097 58.7833 8.8173C58.7833 7.93363 59.0258 7.20694 59.5276 6.66986C60.0127 6.13278 60.6706 5.8735 61.4502 5.8735C62.1257 5.8735 62.7836 6.09838 63.4071 6.54904L63.4935 6.61871V4.62648L63.4592 4.60884C63.2343 4.47038 62.9053 4.36632 62.5235 4.27989M69.315 4.20934C68.7956 4.20934 68.3282 4.38219 67.9295 4.69439C67.5829 4.98895 67.3237 5.36993 67.1332 5.87173H67.1155V4.36456H65.0545V13.1289H67.1155V8.64268C67.1155 7.88072 67.2884 7.25721 67.635 6.7898C67.9639 6.32239 68.4146 6.07986 68.9684 6.07986C69.1589 6.07986 69.367 6.11426 69.5919 6.16629C69.8168 6.21832 69.9729 6.28711 70.077 6.35678L70.1634 6.42645V4.3478L70.129 4.33016C69.9209 4.26049 69.644 4.20934 69.315 4.20934ZM76.5546 10.8951C76.1736 11.3801 75.5845 11.6226 74.8225 11.6226C74.0605 11.6226 73.4714 11.3801 73.0561 10.8783C72.623 10.3756 72.4149 9.6657 72.4149 8.76527C72.4149 7.86484 72.623 7.10288 73.0561 6.60019C73.4714 6.0975 74.0606 5.83822 74.8058 5.83822C75.551 5.83822 76.1048 6.08075 76.5202 6.56579C76.9356 7.05084 77.1437 7.77842 77.1437 8.71324C77.1261 9.68333 76.9356 10.4109 76.5546 10.896M74.9089 4.15731C73.4714 4.15731 72.3285 4.59032 71.4968 5.42196C70.6828 6.2536 70.2675 7.41419 70.2675 8.8517C70.2675 10.2892 70.6661 11.3281 71.4625 12.1253C72.2588 12.9217 73.3506 13.338 74.6841 13.338C76.0872 13.338 77.2125 12.9049 78.0265 12.0565C78.8405 11.2081 79.2559 10.0643 79.2559 8.66209C79.2559 7.25986 78.8749 6.15042 78.0953 5.35405C77.3509 4.55769 76.2591 4.15907 74.9081 4.15907M83.8462 7.98566C83.1883 7.7255 82.772 7.50062 82.6168 7.34452C82.444 7.18842 82.3743 6.96353 82.3743 6.66898C82.3743 6.40882 82.4783 6.21832 82.6865 6.04547C82.8946 5.87262 83.1892 5.80295 83.5701 5.80295C83.9167 5.80295 84.2801 5.85498 84.6267 5.95904C84.9733 6.06311 85.2846 6.20157 85.5447 6.39206L85.6312 6.44409V4.53917L85.5968 4.52153C85.3719 4.41747 85.0429 4.33104 84.6611 4.26137C84.2801 4.1917 83.9335 4.15731 83.6389 4.15731C82.6521 4.15731 81.8372 4.41747 81.2313 4.90252C80.6078 5.40521 80.2789 6.06311 80.2789 6.84271C80.2789 7.25809 80.3485 7.62232 80.487 7.93363C80.6255 8.24494 80.8336 8.52275 81.1105 8.74763C81.3874 8.97252 81.8037 9.21504 82.3752 9.45757C82.8426 9.64806 83.2068 9.82091 83.4317 9.94262C83.6566 10.0634 83.8127 10.2028 83.8991 10.3236C83.9855 10.4444 84.0376 10.6182 84.0376 10.8263C84.0376 11.4154 83.6045 11.71 82.6865 11.71C82.3399 11.71 81.9589 11.6403 81.5435 11.5018C81.1282 11.3634 80.7295 11.1729 80.3829 10.9127L80.2965 10.843V12.852L80.3309 12.8697C80.6255 13.0081 81.0064 13.1298 81.4395 13.2163C81.8725 13.3027 82.2711 13.3547 82.6168 13.3547C83.691 13.3547 84.5394 13.0945 85.1629 12.6104C85.804 12.1077 86.1153 11.433 86.1153 10.6182C86.1153 10.029 85.9425 9.52724 85.5959 9.11098C85.2325 8.67796 84.6602 8.31462 83.8462 7.98478M93.2685 10.8951C92.8875 11.3801 92.2984 11.6226 91.5364 11.6226C90.7745 11.6226 90.1853 11.3801 89.7523 10.8783C89.3193 10.3756 89.1112 9.6657 89.1112 8.76527C89.1112 7.86484 89.3193 7.10288 89.7523 6.60019C90.1677 6.0975 90.7568 5.83822 91.502 5.83822C92.2472 5.83822 92.8011 6.08075 93.2164 6.56579C93.6318 7.05084 93.8399 7.77842 93.8399 8.71324C93.8576 9.68333 93.6495 10.4109 93.2685 10.896M91.6237 4.15731C90.1862 4.15731 89.0256 4.59032 88.2116 5.42196C87.3976 6.2536 86.9822 7.41419 86.9822 8.8517C86.9822 10.2892 87.3809 11.3281 88.1772 12.1253C88.9736 12.9217 90.0654 13.338 91.3988 13.338C92.8019 13.338 93.9273 12.9049 94.7413 12.0565C95.5553 11.2081 95.9706 10.0643 95.9706 8.66209C95.9706 7.25986 95.5896 6.15042 94.81 5.35405C94.0657 4.55769 92.9916 4.15907 91.6228 4.15907M106.987 6.04547V4.36544H104.908V1.7497L104.838 1.76734L102.881 2.37321L102.847 2.39085V4.36544H99.7637V3.25688C99.7637 2.73744 99.8845 2.35645 100.11 2.09629C100.336 1.83613 100.664 1.71531 101.063 1.71531C101.357 1.71531 101.669 1.78498 101.963 1.92344L102.033 1.95783V0.173736L101.998 0.156097C101.722 0.0520325 101.323 0 100.838 0C100.232 0 99.6773 0.138459 99.1922 0.398622C98.7072 0.658784 98.3262 1.03977 98.066 1.50718C97.8059 1.97459 97.6674 2.52931 97.6674 3.13518V4.3478H96.2123V6.02783H97.6674V13.1122H99.7461V6.02783H102.846V10.5308C102.846 12.3837 103.712 13.3194 105.444 13.3194C105.721 13.3194 106.033 13.285 106.328 13.2154C106.64 13.1457 106.847 13.0769 106.969 13.0072L107.003 12.9896V11.2919L106.917 11.344C106.796 11.4136 106.657 11.4824 106.501 11.5168C106.329 11.5689 106.189 11.5865 106.086 11.5865C105.687 11.5865 105.376 11.4824 105.202 11.2575C105.012 11.0327 104.926 10.6684 104.926 10.1313V5.99167L106.987 6.04371V6.04547Z"
    fill="#777375" />
  <path d="M13.7692 14.7057H0V0.936523H13.7524L13.7701 14.7057H13.7692Z" fill="#E74E23" />
  <path d="M28.9589 14.7057H15.1897V0.936523H28.9589V14.7057Z" fill="#74B83F" />
  <path d="M13.7692 29.8962H0V16.127H13.7524L13.7701 29.8962H13.7692Z" fill="#2B9DD6" />
  <path d="M28.9589 29.8962H15.1897V16.127H28.9589V29.8962Z" fill="#F7BB04" />
  <path
    d="M44.8235 24.9763L43.1091 20.057C43.0571 19.9009 43.005 19.6416 42.953 19.2774H42.9186C42.8666 19.6064 42.8145 19.8665 42.7458 20.057L41.0481 24.9763H44.8235ZM48.7039 29.7915H46.4692L45.3606 26.6563H40.511L39.4545 29.7915H37.2197L41.8268 17.4766H44.1303L48.703 29.7915H48.7039ZM56.3245 21.8244L51.5789 28.2332H56.3077V29.7924H48.7903V29.0481L53.6399 22.5528H49.2577V20.9936H56.3421L56.3245 21.8252V21.8244ZM65.3137 29.7915H63.3215V28.406H63.2871C62.7156 29.4802 61.8152 29.9996 60.585 29.9996C58.5063 29.9996 57.4674 28.7526 57.4674 26.2586V20.9936H59.4596V26.0513C59.4596 27.6273 60.0655 28.4246 61.2958 28.4246C61.8849 28.4246 62.3699 28.1997 62.7509 27.7667C63.1319 27.3336 63.3224 26.7622 63.3224 26.0522V20.9945H65.3146V29.7933L65.3137 29.7915ZM72.6574 22.8809C72.4149 22.6904 72.0683 22.604 71.6185 22.604C71.0294 22.604 70.5443 22.8641 70.1466 23.4003C69.748 23.9374 69.5575 24.665 69.5575 25.5654V29.7915H67.5653V20.9927H69.5575V22.8112H69.5919C69.7824 22.1877 70.0946 21.7027 70.4923 21.3561C70.8909 21.0095 71.3407 20.8366 71.8434 20.8366C72.2067 20.8366 72.4845 20.8887 72.675 20.9927V22.8809H72.6574ZM79.083 24.5265C79.083 23.8166 78.9101 23.2451 78.5803 22.8641C78.2513 22.4655 77.7839 22.275 77.2115 22.275C76.6392 22.275 76.155 22.4831 75.7564 22.8985C75.3578 23.3139 75.1152 23.8686 75.0288 24.5442L79.0821 24.5265H79.083ZM81.0055 25.9288H75.013C75.0306 26.7428 75.2899 27.3663 75.7573 27.8169C76.2423 28.2499 76.9002 28.4748 77.7319 28.4748C78.6676 28.4748 79.5336 28.1979 80.3123 27.6264V29.2368C79.516 29.7395 78.4594 29.9988 77.1428 29.9988C75.8261 29.9988 74.8392 29.6001 74.094 28.8038C73.3664 28.0074 72.9854 26.8812 72.9854 25.4261C72.9854 24.0573 73.3841 22.9497 74.1981 22.0836C75.0121 21.2176 76.0166 20.7846 77.2115 20.7846C78.4065 20.7846 79.3422 21.1656 80.0001 21.9452C80.658 22.7248 80.987 23.7981 80.987 25.1668V25.9288H81.0046H81.0055Z"
    fill="#777375" />
</svg>