<svg width="40" height="40" viewBox="0 0 40 40" fill="none" xmlns="http://www.w3.org/2000/svg">
  <circle cx="20" cy="20" r="14.625" stroke="#043F5F" stroke-width="0.75" />
  <path
    d="M19.105 17.0352H21.3538V17.1403C21.161 17.2279 20.8037 17.4194 20.8037 17.6324V21.9197C20.8037 22.1556 21.1205 22.3632 21.3457 22.4347V22.4859H19.105V22.4239C19.3409 22.3605 19.7359 22.1475 19.7359 21.9035V17.6526C19.7359 17.4315 19.3113 17.232 19.105 17.1511V17.0379V17.0352Z"
    fill="#003A5D" />
  <path
    d="M25.4022 18.1649H25.196C25.196 18.1649 25.2445 17.352 24.0311 17.4126C22.8177 17.4733 23.2667 18.5775 23.2667 18.5775C23.2667 18.5775 23.8127 19.1599 24.4801 19.4875C25.1474 19.8151 25.4993 20.2641 25.4872 20.9557C25.475 21.6473 25.0261 22.4724 23.8976 22.5573C22.7692 22.6423 22.1504 22.3875 22.1504 22.3875V21.2833H22.2717C22.2717 21.2833 22.3931 22.1691 23.4123 22.2055C24.4315 22.2419 24.4679 21.2833 24.4679 21.2833C24.4679 21.2833 24.565 20.6038 23.4851 20.167C22.4052 19.7302 21.8713 18.4319 22.5629 17.6068C23.2546 16.7817 25.4022 17.1578 25.4022 17.1578V18.1649Z"
    fill="#003A5D" />
  <path
    d="M18.3402 18.1532H18.2188C18.2188 18.1532 18.1487 17.4832 16.8504 17.4468C16.1467 17.4265 15.7179 17.8216 15.4753 18.2611C15.2879 18.6008 15.1962 18.985 15.1962 19.372V20.1917C15.1962 20.6366 15.3135 21.0788 15.5602 21.4495C15.7516 21.7381 16.0361 22.0198 16.446 22.1452C16.4931 22.16 16.7143 22.1991 16.992 22.2005C17.2697 22.2018 17.6027 22.1654 17.8413 21.916C18.0395 21.7084 18.1002 21.4549 18.1204 21.3093H18.2782V22.3798C17.5744 22.5146 15.9539 22.733 14.82 21.9524C14.603 21.8028 14.483 21.672 14.4318 21.6127C13.8089 20.8914 13.7469 19.7562 14.1042 18.8826C14.4412 18.0561 15.1113 17.4832 15.7463 17.2526C16.113 17.1191 16.5066 17.0908 16.8949 17.0868C17.4868 17.08 17.9923 17.0773 18.3388 17.1232C18.3429 17.467 18.3348 17.8108 18.3388 18.1546L18.3402 18.1532Z"
    fill="#003A5D" />
  <path
    d="M26.4341 22.7945C26.0917 22.7945 25.814 22.5168 25.814 22.1744C25.814 21.8319 26.0917 21.5542 26.4341 21.5542C26.7766 21.5542 27.0543 21.8319 27.0543 22.1744C27.0543 22.5168 26.7766 22.7945 26.4341 22.7945ZM26.4341 21.6216C26.1294 21.6216 25.8814 21.8697 25.8814 22.1744C25.8814 22.4791 26.1294 22.7271 26.4341 22.7271C26.7388 22.7271 26.9869 22.4791 26.9869 22.1744C26.9869 21.8697 26.7388 21.6216 26.4341 21.6216Z"
    fill="#1A90C8" />
  <path
    d="M26.2035 22.4631V21.8848H26.4597C26.5109 21.8848 26.55 21.8902 26.5769 21.9009C26.6039 21.9117 26.6255 21.9293 26.6417 21.9562C26.6578 21.9832 26.6659 22.0115 26.6659 22.0439C26.6659 22.0843 26.6524 22.1194 26.6255 22.1477C26.5985 22.176 26.5581 22.1935 26.5028 22.2016C26.523 22.211 26.5378 22.2205 26.5486 22.2299C26.5716 22.2501 26.5918 22.2757 26.612 22.3067L26.7131 22.4645H26.6174L26.5405 22.3445C26.5176 22.3094 26.5001 22.2825 26.4853 22.265C26.4704 22.2474 26.4583 22.2339 26.4462 22.2259C26.434 22.2191 26.4233 22.2137 26.4111 22.211C26.403 22.2097 26.3882 22.2083 26.368 22.2083H26.279V22.4658H26.2021L26.2035 22.4631ZM26.2803 22.1396H26.4448C26.4799 22.1396 26.5068 22.1355 26.5271 22.1288C26.5473 22.122 26.5621 22.1099 26.5716 22.0937C26.5823 22.0776 26.5864 22.06 26.5864 22.0425C26.5864 22.0155 26.5769 21.9926 26.5567 21.9751C26.5365 21.9576 26.5055 21.9481 26.4624 21.9481H26.279V22.1396H26.2803Z"
    fill="#1A90C8" />
  <path
    d="M21.0098 30.4445C14.7299 30.4445 9.63916 25.9564 9.63916 19.8396C9.63916 13.7229 14.7299 9.2334 21.0098 9.2334"
    stroke="url(#paint0_linear_5756_25954)" stroke-width="0.75" stroke-miterlimit="10" />
  <path
    d="M11.5832 20.9749C10.9617 16.2171 14.6099 11.5537 19.6211 11.2544C24.5852 10.9578 28.8212 15.0657 28.7578 19.9502C28.6985 24.5772 24.8022 28.394 20.1927 28.4304C15.8731 28.4654 12.1305 25.1718 11.5818 20.9749H11.5832Z"
    stroke="url(#paint1_linear_5756_25954)" stroke-width="0.75" stroke-miterlimit="10" />
  <defs>
    <linearGradient id="paint0_linear_5756_25954" x1="9.30076" y1="19.8396" x2="21.0098" y2="19.8396"
      gradientUnits="userSpaceOnUse">
      <stop offset="0.49" stop-color="#0483C2" />
      <stop offset="1" stop-color="white" stop-opacity="0" />
    </linearGradient>
    <linearGradient id="paint1_linear_5756_25954" x1="16.3522" y1="11.7526" x2="23.8886" y2="27.917"
      gradientUnits="userSpaceOnUse">
      <stop stop-color="#0483C2" />
      <stop offset="0.45" stop-color="white" stop-opacity="0" />
    </linearGradient>
  </defs>
</svg>