<?xml version="1.0" encoding="UTF-8"?>
<svg viewBox="0 0 940 720" xmlns="http://www.w3.org/2000/svg">
  <defs>
    <filter id="a">
      <feGaussianBlur stdDeviation="6.130778" />
    </filter>
  </defs>
  <path
    d="m229.8 13.194c-47.174 19.69-92.151 46.942-84.304 103.7 60.925-3.5151 75.222-53.112 84.304-103.7zm475.92 0c9.083 50.586 23.379 100.18 84.304 103.7 7.8467-56.756-37.13-84.008-84.304-103.7zm-596.74 22.759c-24.976 44.602-43.591 93.785-2.3979 133.61 45.777-40.357 26.461-88.195 2.3979-133.61zm717.56 0c-24.064 45.414-43.422 93.251 2.3558 133.61 41.194-39.824 22.62-89.006-2.3558-133.61zm-612.76 73.745c-49.017 14.507-96.65 36.752-94.948 94.022 60.95 3.0522 80.481-44.705 94.948-94.022zm507.93 0c14.466 49.317 33.997 97.074 94.948 94.022 1.7023-57.271-45.93-79.516-94.948-94.022zm-666.95 28.396c-15.399 48.744-23.601 100.71 24.82 131.34 36.629-48.812 7.9633-91.755-24.82-131.34zm825.96 0c-32.783 39.581-61.449 82.525-24.82 131.34 48.422-30.63 40.219-82.592 24.82-131.34zm-718.61 64.827c-43.438 26.95-83.503 60.989-66.72 115.77 59.589-13.17 65.806-64.385 66.72-115.77zm611.29 0c0.91345 51.387 7.1315 102.6 66.72 115.77 16.783-54.783-23.282-88.822-66.72-115.77zm-758.87 46.191c2.621 51.052 13.126 102.62 69.202 114.38 17.245-58.54-24.646-88.767-69.202-114.38zm906.4 0c-44.556 25.616-86.404 55.844-69.16 114.38 56.076-11.76 66.539-63.332 69.16-114.38zm-763.2 41.311c-36.318 35.974-67.765 78.155-39.165 127.8 55.139-26.152 49.757-77.511 39.165-127.8zm620.04 0c-10.592 50.292-15.974 101.65 39.166 127.8 28.599-49.648-2.8475-91.829-39.166-127.8zm-775.9 65.416c21.858 46.21 51.153 89.855 107.48 79.382-6.3392-60.696-56.531-72.657-107.48-79.382zm931.77 0c-50.953 6.7252-101.19 18.686-107.53 79.382 56.331 10.472 85.668-33.173 107.53-79.382zm-757.35 25.956c-31.96 39.896-58.369 85.374-24.273 131.42 51.782-32.293 40.554-82.673 24.273-131.42zm582.94 0c-16.28 48.748-27.551 99.127 24.231 131.42 34.096-46.047 7.7289-91.525-24.231-131.42zm-542.97 56.876c-24.006 45.132-41.54 94.726 0.50482 133.65 44.894-41.337 24.535-88.768-0.50482-133.65zm503.01 0c-25.039 44.883-45.441 92.313-0.54688 133.65 42.045-38.924 24.553-88.519 0.54688-133.65zm-701.49 0.9255c27.191 43.287 61.462 83.176 116.15 66.089-13.502-59.514-64.759-65.462-116.15-66.089zm899.96 0c-51.391 0.6272-102.69 6.5746-116.19 66.089 54.689 17.088 89.001-22.802 116.19-66.089zm-656.89 52.164c-8.3777 50.428-9.1763 103 43.078 126.5 29.386-53.485-5.0446-91.931-43.078-126.5zm413.78 0c-38.033 34.568-72.464 73.013-43.078 126.5 52.254-23.502 51.455-76.071 43.078-126.5zm-561.44 27.26c-15.132 0.15875-31.057 2.456-46.864 5.3006 34.886 37.364 76.113 70.031 126.58 42.909-16.853-38.422-46.43-48.559-79.719-48.21zm704.6 0c-31.438 0.61499-59.131 11.534-75.218 48.21 50.47 27.121 91.696-5.5454 126.58-42.909-17.388-3.129-34.898-5.6227-51.365-5.3006zm-494.47 39.376c18.691 47.579 44.98 93.141 101.89 86.492-2.2302-60.986-51.506-76.345-101.89-86.492zm288.88 0c-50.383 10.147-99.701 25.506-101.93 86.492 56.909 6.6487 83.24-38.913 101.93-86.492zm-411.97 23.852c-21.541 0.45709-44.422 8.0866-66.888 16.785 41.356 30.047 88.04 54.273 132.43 18.047-18.432-26.671-41.129-35.35-65.542-34.832zm530.48 0c-22.676 0.62433-43.719 9.8281-60.999 34.832 44.391 36.226 91.074 12 132.43-18.047-22.466-8.6986-45.348-16.328-66.888-16.785-1.5258-0.032349-3.0315-0.041626-4.5433 0zm-433.39 45.728c-28.573 0.54065-55.895 18.522-81.949 38.24 48.022 17.523 99.58 28.016 132.3-19.015-16.21-13.315-32.086-18.9-47.579-19.225-0.92429-0.019409-1.8548-0.017456-2.7765 0zm338.06 0c-15.493 0.32501-31.326 5.9098-47.537 19.225 32.724 47.031 84.24 36.538 132.26 19.015-26.894-20.354-55.148-38.86-84.725-38.24zm-167.64 16.743c-9.7582 0-17.669 7.9103-17.669 17.669 0 9.7583 7.9104 17.711 17.669 17.711 9.7582 0 17.669-7.9524 17.669-17.711 0-9.7582-7.9103-17.669-17.669-17.669zm-75.218 14.682c-31.226 0.038208-59.168 21.806-85.44 45.434 49.331 13.402 101.61 19.466 130.24-30.163-15.707-10.816-30.609-15.288-44.802-15.271zm150.44 0c-14.193-0.017334-29.054 4.4546-44.76 15.271 28.633 49.628 80.87 43.565 130.2 30.163-26.272-23.628-54.215-45.395-85.44-45.434z"
    fill="#ffc156" fill-rule="evenodd" filter="url(#a)" />
  <g transform="matrix(1.3462 0 0 1.3462 -138.36 -200.69)">
    <g transform="matrix(.50592 0 0 .50592 182.66 465.19)">
      <g transform="matrix(.57314 -.90467 1.0008 .44482 -415.05 619.46)" fill="#ffc156" fill-rule="evenodd"
        stroke-width="1.363">
        <path d="m577.08 568.33c15.54-82.642-46.436-108.37-111.47-127.19 10.795 66.193 32.502 130.41 111.47 127.19z" />
        <path d="m576.15 566.87l-109.29-123.71c13.272 70.38 34.372 126.76 109.29 123.71z" />
      </g>
      <g transform="matrix(1.0679 -.08012 .24044 1.0685 -65.931 -10.494)" fill="#ffc156" fill-rule="evenodd"
        stroke-width="1.363">
        <path d="m424.82 328.49c15.54-82.642-46.436-108.37-111.47-127.19 10.795 66.193 32.502 130.41 111.47 127.19z" />
        <path d="m423.89 327.03l-109.29-123.71c13.272 70.38 34.372 126.76 109.29 123.71z" />
      </g>
      <g transform="matrix(.64755 -.853 .95961 .5278 -537.82 514.57)" fill="#ffc156" fill-rule="evenodd"
        stroke-width="1.363">
        <path d="m574.47 540.53c15.54-82.642-46.436-108.37-111.47-127.19 10.795 66.193 32.502 130.41 111.47 127.19z" />
        <path d="m573.53 539.07l-109.29-123.71c13.272 70.38 34.372 126.76 109.29 123.71z" />
      </g>
      <g transform="matrix(.95768 .47935 -.34202 1.0404 150.49 -161.53)" fill="#ffc156" fill-rule="evenodd"
        stroke-width="1.363">
        <path d="m250.32 296.92c15.54-82.642-46.436-108.37-111.47-127.19 10.795 66.193 32.502 130.41 111.47 127.19z" />
        <path d="m249.38 295.46l-109.29-123.71c13.272 70.38 34.372 126.76 109.29 123.71z" />
      </g>
      <g transform="matrix(.85705 -.64217 .77759 .77123 -591.36 267.3)" fill="#ffc156" fill-rule="evenodd"
        stroke-width="1.363">
        <path d="m548.78 454.8c15.54-82.642-46.436-108.37-111.47-127.19 10.795 66.193 32.502 130.41 111.47 127.19z" />
        <path d="m547.85 453.34l-109.29-123.71c13.272 70.38 34.372 126.76 109.29 123.71z" />
      </g>
      <g transform="matrix(.75508 .75946 -.65564 .87725 268.13 -190.62)" fill="#ffc156" fill-rule="evenodd"
        stroke-width="1.363">
        <path d="m139.42 324.46c15.54-82.642-46.436-108.37-111.47-127.19 10.795 66.193 32.502 130.41 111.47 127.19z" />
        <path d="m138.49 323l-109.29-123.71c13.272 70.38 34.372 126.76 109.29 123.71z" />
      </g>
      <g transform="matrix(.96355 -.46744 .61671 .90504 -621.14 68.843)" fill="#ffc156" fill-rule="evenodd"
        stroke-width="1.363">
        <path d="m516.78 403.5c15.54-82.642-46.436-108.37-111.47-127.19 10.795 66.193 32.502 130.41 111.47 127.19z" />
        <path d="m515.85 402.04l-109.29-123.71c13.272 70.38 34.372 126.76 109.29 123.71z" />
      </g>
      <g transform="matrix(.60112 .88633 -.80698 .74042 304.61 -220.14)" fill="#ffc156" fill-rule="evenodd"
        stroke-width="1.363">
        <path d="m79.266 355.23c15.54-82.642-46.436-108.37-111.47-127.19 10.795 66.193 32.502 130.41 111.47 127.19z" />
        <path d="m78.334 353.77l-109.29-123.71c13.272 70.38 34.372 126.76 109.29 123.71z" />
      </g>
      <g transform="matrix(1.0346 -.27679 .43443 1.0053 -608.74 -129.32)" fill="#ffc156" fill-rule="evenodd"
        stroke-width="1.363">
        <path d="m474.64 360.81c15.54-82.642-46.436-108.37-111.47-127.19 10.795 66.193 32.502 130.41 111.47 127.19z" />
        <path d="m473.71 359.35l-109.29-123.71c13.272 70.38 34.372 126.76 109.29 123.71z" />
      </g>
      <g transform="matrix(.74678 .76762 -.66514 .87007 125.86 -397.64)">
        <g transform="matrix(.91587 .28306 -.29602 1.0004 202 -80.531)" fill="#ffc156" fill-rule="evenodd"
          stroke-width="1.363">
          <path
            d="m44.769 379.03c15.54-82.642-46.436-108.37-111.47-127.19 10.795 66.193 32.502 130.41 111.47 127.19z" />
          <path d="m43.837 377.57l-109.29-123.71c13.272 70.38 34.372 126.76 109.29 123.71z" />
        </g>
      </g>
      <g transform="matrix(1.0601 -.15198 .31198 1.0498 -573.18 -289.86)" fill="#ffc156" fill-rule="evenodd"
        stroke-width="1.363">
        <path d="m443.72 339.02c15.54-82.642-46.436-108.37-111.47-127.19 10.795 66.193 32.502 130.41 111.47 127.19z" />
        <path d="m442.79 337.56l-109.29-123.71c13.272 70.38 34.372 126.76 109.29 123.71z" />
      </g>
      <g transform="matrix(.27102 1.0361 -1.0077 .42882 425.16 -343.1)" fill="#ffc156" fill-rule="evenodd"
        stroke-width="1.363">
        <path d="m-15.419 435.17c15.54-82.642-46.436-108.37-111.47-127.19 10.795 66.193 32.502 130.41 111.47 127.19z" />
        <path d="m-16.351 433.71l-109.29-123.71c13.272 70.38 34.372 126.76 109.29 123.71z" />
      </g>
      <g transform="matrix(1.0381 .26304 -.11117 1.0895 -337.73 -516.6)" fill="#ffc156" fill-rule="evenodd"
        stroke-width="1.363">
        <path d="m323.82 298c15.54-82.642-46.436-108.37-111.47-127.19 10.795 66.193 32.502 130.41 111.47 127.19z" />
        <path d="m322.89 296.54l-109.29-123.71c13.272 70.38 34.372 126.76 109.29 123.71z" />
      </g>
      <g transform="matrix(-.012536 1.0709 -1.0853 .14714 574.43 -341.58)" fill="#ffc156" fill-rule="evenodd"
        stroke-width="1.363">
        <path d="m-70.438 514.58c15.54-82.642-46.436-108.37-111.47-127.19 10.795 66.193 32.502 130.41 111.47 127.19z" />
        <path d="m-71.37 513.12l-109.29-123.71c13.272 70.38 34.372 126.76 109.29 123.71z" />
      </g>
      <g transform="matrix(.88059 .6095 -.4852 .98184 -70.368 -666.84)" fill="#ffc156" fill-rule="evenodd"
        stroke-width="1.363">
        <path d="m201.51 304.71c15.54-82.642-46.436-108.37-111.47-127.19 10.795 66.193 32.502 130.41 111.47 127.19z" />
        <path d="m200.58 303.25l-109.29-123.71c13.272 70.38 34.372 126.76 109.29 123.71z" />
      </g>
      <g transform="matrix(.10261 1.066 -1.0632 .26291 572.88 -541.28)" fill="#ffc156" fill-rule="evenodd"
        stroke-width="1.363">
        <path d="m-50.696 481.28c15.54-82.642-46.436-108.37-111.47-127.19 10.795 66.193 32.502 130.41 111.47 127.19z" />
        <path d="m-51.628 479.82l-109.29-123.71c13.272 70.38 34.372 126.76 109.29 123.71z" />
      </g>
      <g transform="matrix(.73848 .77561 -.67445 .86287 122.13 -776.62)" fill="#ffc156" fill-rule="evenodd"
        stroke-width="1.363">
        <path d="m132.24 327.5c15.54-82.642-46.436-108.37-111.47-127.19 10.795 66.193 32.502 130.41 111.47 127.19z" />
        <path d="m131.31 326.04l-109.29-123.71c13.272 70.38 34.372 126.76 109.29 123.71z" />
      </g>
    </g>
    <g transform="matrix(-.50592 0 0 .50592 583.8 465.19)">
      <g transform="matrix(.57314 -.90467 1.0008 .44482 -415.05 619.46)" fill="#ffc156" fill-rule="evenodd"
        stroke-width="1.363">
        <path d="m475.32 361.36c15.54-82.642-46.436-108.37-111.47-127.19 10.795 66.193 32.502 130.41 111.47 127.19z" />
        <path d="m474.38 359.9l-109.29-123.71c13.272 70.38 34.372 126.76 109.29 123.71z" />
      </g>
      <g transform="matrix(1.0679 -.08012 .24044 1.0685 -65.931 -10.494)" fill="#ffc156" fill-rule="evenodd"
        stroke-width="1.363">
        <path d="m180.38 310.16c15.54-82.642-46.436-108.37-111.47-127.19 10.795 66.193 32.502 130.41 111.47 127.19z" />
        <path d="m179.44 308.7l-109.29-123.71c13.272 70.38 34.372 126.76 109.29 123.71z" />
      </g>
      <g transform="matrix(.64755 -.853 .95961 .5278 -537.82 514.57)" fill="#ffc156" fill-rule="evenodd"
        stroke-width="1.363">
        <path d="m453.72 345.39c15.54-82.642-46.436-108.37-111.47-127.19 10.795 66.193 32.502 130.41 111.47 127.19z" />
        <path d="m452.78 343.93l-109.29-123.71c13.272 70.38 34.372 126.76 109.29 123.71z" />
      </g>
      <g transform="matrix(.95768 .47935 -.34202 1.0404 150.49 -161.53)" fill="#ffc156" fill-rule="evenodd"
        stroke-width="1.363">
        <path d="m12.292 406.59c15.54-82.642-46.436-108.37-111.47-127.19 10.795 66.193 32.502 130.41 111.47 127.19z" />
        <path d="m11.36 405.13l-109.29-123.71c13.272 70.38 34.372 126.76 109.29 123.71z" />
      </g>
      <g transform="matrix(.85705 -.64217 .77759 .77123 -591.36 267.3)" fill="#ffc156" fill-rule="evenodd"
        stroke-width="1.363">
        <path d="m372.34 307.89c15.54-82.642-46.436-108.37-111.47-127.19 10.795 66.193 32.502 130.41 111.47 127.19z" />
        <path d="m371.41 306.43l-109.29-123.71c13.272 70.38 34.372 126.76 109.29 123.71z" />
      </g>
      <g transform="matrix(.75508 .75946 -.65564 .87725 268.13 -190.62)" fill="#ffc156" fill-rule="evenodd"
        stroke-width="1.363">
        <path d="m-61.275 498.21c15.54-82.642-46.436-108.37-111.47-127.19 10.795 66.193 32.502 130.41 111.47 127.19z" />
        <path d="m-62.207 496.75l-109.29-123.71c13.272 70.38 34.372 126.76 109.29 123.71z" />
      </g>
      <g transform="matrix(.96355 -.46744 .61671 .90504 -621.14 68.843)" fill="#ffc156" fill-rule="evenodd"
        stroke-width="1.363">
        <path d="m309.72 296.56c15.54-82.642-46.436-108.37-111.47-127.19 10.795 66.193 32.502 130.41 111.47 127.19z" />
        <path d="m308.79 295.1l-109.29-123.71c13.272 70.38 34.372 126.76 109.29 123.71z" />
      </g>
      <g transform="matrix(.60112 .88633 -.80698 .74042 304.61 -220.14)" fill="#ffc156" fill-rule="evenodd"
        stroke-width="1.363">
        <path d="m-90.127 558c15.54-82.642-46.436-108.37-111.47-127.19 10.795 66.193 32.502 130.41 111.47 127.19z" />
        <path d="m-91.059 556.54l-109.29-123.71c13.272 70.38 34.372 126.76 109.29 123.71z" />
      </g>
      <g transform="matrix(1.0346 -.27679 .43443 1.0053 -608.74 -129.32)" fill="#ffc156" fill-rule="evenodd"
        stroke-width="1.363">
        <path d="m244.64 297.49c15.54-82.642-46.436-108.37-111.47-127.19 10.795 66.193 32.502 130.41 111.47 127.19z" />
        <path d="m243.71 296.03l-109.29-123.71c13.272 70.38 34.372 126.76 109.29 123.71z" />
      </g>
      <g transform="matrix(.74678 .76762 -.66514 .87007 125.86 -397.64)">
        <g transform="matrix(.91587 .28306 -.29602 1.0004 202 -80.531)" fill="#ffc156" fill-rule="evenodd"
          stroke-width="1.363">
          <path
            d="m-102.37 596.22c15.54-82.642-46.436-108.37-111.47-127.19 10.795 66.193 32.502 130.41 111.47 127.19z" />
          <path d="m-103.3 594.76l-109.29-123.71c13.272 70.38 34.372 126.76 109.29 123.71z" />
        </g>
      </g>
      <g transform="matrix(1.0601 -.15198 .31198 1.0498 -573.18 -289.86)" fill="#ffc156" fill-rule="evenodd"
        stroke-width="1.363">
        <path d="m203.55 304.25c15.54-82.642-46.436-108.37-111.47-127.19 10.795 66.193 32.502 130.41 111.47 127.19z" />
        <path d="m202.61 302.79l-109.29-123.71c13.272 70.38 34.372 126.76 109.29 123.71z" />
      </g>
      <g transform="matrix(.27102 1.0361 -1.0077 .42882 425.16 -343.1)" fill="#ffc156" fill-rule="evenodd"
        stroke-width="1.363">
        <path d="m-113.52 672.21c15.54-82.642-46.436-108.37-111.47-127.19 10.795 66.193 32.502 130.41 111.47 127.19z" />
        <path d="m-114.46 670.75l-109.29-123.71c13.272 70.38 34.372 126.76 109.29 123.71z" />
      </g>
      <g transform="matrix(1.0381 .26304 -.11117 1.0895 -337.73 -516.6)" fill="#ffc156" fill-rule="evenodd"
        stroke-width="1.363">
        <path d="m74.563 358.18c15.54-82.642-46.436-108.37-111.47-127.19 10.795 66.193 32.502 130.41 111.47 127.19z" />
        <path d="m73.631 356.72l-109.29-123.71c13.272 70.38 34.372 126.76 109.29 123.71z" />
      </g>
      <g transform="matrix(-.012536 1.0709 -1.0853 .14714 574.43 -341.58)" fill="#ffc156" fill-rule="evenodd"
        stroke-width="1.363">
        <path d="m-104.1 759.57c15.54-82.642-46.436-108.37-111.47-127.19 10.795 66.193 32.502 130.41 111.47 127.19z" />
        <path d="m-105.03 758.11l-109.29-123.71c13.272 70.38 34.372 126.76 109.29 123.71z" />
      </g>
      <g transform="matrix(.88059 .6095 -.4852 .98184 -70.368 -666.84)" fill="#ffc156" fill-rule="evenodd"
        stroke-width="1.363">
        <path d="m-23.114 444.15c15.54-82.642-46.436-108.37-111.47-127.19 10.795 66.193 32.502 130.41 111.47 127.19z" />
        <path d="m-24.045 442.69l-109.29-123.71c13.272 70.38 34.372 126.76 109.29 123.71z" />
      </g>
      <g transform="matrix(.10261 1.066 -1.0632 .26291 572.88 -541.28)" fill="#ffc156" fill-rule="evenodd"
        stroke-width="1.363">
        <path d="m-110.84 725.16c15.54-82.642-46.436-108.37-111.47-127.19 10.795 66.193 32.502 130.41 111.47 127.19z" />
        <path d="m-111.78 723.7l-109.29-123.71c13.272 70.38 34.372 126.76 109.29 123.71z" />
      </g>
      <g transform="matrix(.73848 .77561 -.67445 .86287 122.13 -776.62)" fill="#ffc156" fill-rule="evenodd"
        stroke-width="1.363">
        <path d="m-65.161 504.94c15.54-82.642-46.436-108.37-111.47-127.19 10.795 66.193 32.502 130.41 111.47 127.19z" />
        <path d="m-66.093 503.48l-109.29-123.71c13.272 70.38 34.372 126.76 109.29 123.71z" />
      </g>
    </g>
    <path d="m463.51 633.25a13.132 13.132 0 1 1 -26.264 0 13.132 13.132 0 1 1 26.264 0z" fill="#ffc156"
      stroke-linecap="round" stroke-width=".849" />
  </g>
</svg>