<svg width="136" height="38" viewBox="0 0 136 38" xmlns="http://www.w3.org/2000/svg">
  <path fill-rule="evenodd" clip-rule="evenodd"
    d="M3.7339 5.72517L15.3821 17.3784C17.9226 19.914 22.0754 19.9162 24.618 17.3784L36.2662 5.72517C36.3835 5.60786 36.3665 5.41468 36.2304 5.31977C35.0423 4.49121 33.5968 4 32.0397 4H7.9605C6.40334 4 4.95784 4.49129 3.76978 5.31977C3.63369 5.41468 3.6166 5.60786 3.7339 5.72517ZM0.621094 11.3393C0.621094 10.1149 0.924678 8.95798 1.45942 7.94112C1.54305 7.78204 1.75501 7.74987 1.88208 7.87695L13.3828 19.3777C17.0247 23.0249 22.9733 23.027 26.6174 19.3777L38.1181 7.87695C38.2452 7.74987 38.4572 7.78204 38.5408 7.94112C39.0755 8.95798 39.3791 10.115 39.3791 11.3393V26.6606C39.3791 30.7106 36.0847 34 32.0397 34H7.9605C3.91563 34 0.621094 30.7106 0.621094 26.6606V11.3393Z" />
  <path
    d="M53.4909 32V8.16H69.5229V12.48H58.4509V17.888H68.8829V22.208H58.4509V27.68H69.5229V32H53.4909ZM71.9827 32V14.528H76.4627V18.784L75.9827 18.08C76.2387 16.736 76.8573 15.744 77.8387 15.104C78.82 14.464 79.9933 14.144 81.3587 14.144C82.8093 14.144 84.0787 14.5173 85.1667 15.264C86.276 15.9893 86.9693 16.9707 87.2467 18.208L85.8707 18.336C86.4467 16.9067 87.268 15.8507 88.3347 15.168C89.4013 14.4853 90.6493 14.144 92.0787 14.144C93.3373 14.144 94.4467 14.4213 95.4067 14.976C96.388 15.5307 97.156 16.3093 97.7107 17.312C98.2653 18.2933 98.5427 19.4453 98.5427 20.768V32H93.7427V21.792C93.7427 21.1093 93.6147 20.5227 93.3587 20.032C93.124 19.5413 92.7827 19.1573 92.3347 18.88C91.8867 18.6027 91.3427 18.464 90.7027 18.464C90.084 18.464 89.54 18.6027 89.0707 18.88C88.6227 19.1573 88.2707 19.5413 88.0147 20.032C87.78 20.5227 87.6627 21.1093 87.6627 21.792V32H82.8627V21.792C82.8627 21.1093 82.7347 20.5227 82.4787 20.032C82.244 19.5413 81.9027 19.1573 81.4547 18.88C81.0067 18.6027 80.4627 18.464 79.8227 18.464C79.204 18.464 78.66 18.6027 78.1907 18.88C77.7427 19.1573 77.3907 19.5413 77.1347 20.032C76.9 20.5227 76.7827 21.1093 76.7827 21.792V32H71.9827ZM107.109 32.384C105.851 32.384 104.763 32.1813 103.845 31.776C102.928 31.3707 102.224 30.7947 101.733 30.048C101.243 29.28 100.997 28.3733 100.997 27.328C100.997 26.3467 101.221 25.4827 101.669 24.736C102.117 23.968 102.8 23.328 103.717 22.816C104.656 22.304 105.819 21.9413 107.205 21.728L112.549 20.864V24.384L108.069 25.184C107.387 25.312 106.864 25.536 106.501 25.856C106.139 26.1547 105.957 26.592 105.957 27.168C105.957 27.7013 106.16 28.1173 106.565 28.416C106.971 28.7147 107.472 28.864 108.069 28.864C108.859 28.864 109.552 28.6933 110.149 28.352C110.747 28.0107 111.205 27.552 111.525 26.976C111.867 26.3787 112.037 25.728 112.037 25.024V20.48C112.037 19.8187 111.771 19.264 111.237 18.816C110.725 18.368 110.021 18.144 109.125 18.144C108.272 18.144 107.515 18.3787 106.853 18.848C106.213 19.3173 105.744 19.936 105.445 20.704L101.605 18.88C101.947 17.8987 102.491 17.056 103.237 16.352C103.984 15.648 104.88 15.104 105.925 14.72C106.971 14.336 108.112 14.144 109.349 14.144C110.821 14.144 112.123 14.4107 113.253 14.944C114.384 15.4773 115.259 16.224 115.877 17.184C116.517 18.1227 116.837 19.2213 116.837 20.48V32H112.357V29.184L113.445 28.992C112.933 29.76 112.368 30.4 111.749 30.912C111.131 31.4027 110.437 31.7653 109.669 32C108.901 32.256 108.048 32.384 107.109 32.384ZM120.358 32V14.528H125.158V32H120.358ZM120.358 12.96V8.16H125.158V12.96H120.358ZM128.67 32V7.776H133.47V32H128.67Z" />
</svg>