<svg width="418" height="418" viewBox="0 0 418 418" fill="none" xmlns="http://www.w3.org/2000/svg">
<g clip-path="url(#clip0_23_9129)">
<rect width="418" height="418" fill="#3d58d3"/>
<path d="M57.8084 278.37V138.74H155.948V164.909H87.3382V194.419H154.5V220.588H87.3382V278.37H57.8084Z" fill="white"/>
<path d="M176.532 278.37V138.74H206.062V278.37H176.532Z" fill="white"/>
<path d="M323.943 278.37L289.226 227.287L254.289 278.37H219.15L269.466 206.783L222.266 138.74H257.405L289.207 186.465L320.625 138.74H356.186L308.986 206.562L359.302 278.37H323.961H323.943Z" fill="white"/>
<rect x="169.857" y="449.8" width="387.721" height="70" transform="rotate(-40 169.857 449.8)" fill="#00AC6B"/>
<path d="M307.525 402.164L285.773 376.241L297.098 366.738C299.819 364.455 302.431 363.287 304.934 363.233C307.417 363.155 309.543 364.17 311.312 366.278C312.484 367.676 313.136 369.175 313.269 370.777C313.401 372.378 313.038 373.936 312.179 375.451C313.999 374.634 315.756 374.413 317.449 374.788C319.147 375.118 320.664 376.08 322.001 377.673C323.934 379.978 324.652 382.425 324.152 385.016C323.657 387.562 322.024 389.998 319.254 392.322L307.525 402.164ZM299.521 383.441L305.514 378.411C308.725 375.717 309.292 373.132 307.215 370.656C305.137 368.18 302.493 368.289 299.282 370.984L293.288 376.013L299.521 383.441ZM309.055 394.803L315.673 389.249C318.909 386.534 319.437 383.877 317.256 381.278C315.076 378.68 312.368 378.738 309.132 381.454L302.514 387.007L309.055 394.803ZM332.84 380.922L311.088 354.999L328.333 340.529L331.48 344.279L318.758 354.955L324.743 362.088L336.657 352.091L339.804 355.842L327.891 365.839L334.216 373.377L346.938 362.701L350.085 366.452L332.84 380.922ZM360.851 357.418L342.401 335.429L333.502 342.896L330.201 338.961L352.704 320.079L356.006 324.013L347.107 331.48L365.558 353.469L360.851 357.418ZM371.771 348.255L361.749 312.49L365.61 309.25L399.091 325.331L394.311 329.342L386.708 325.508L374.059 336.122L376.551 344.244L371.771 348.255ZM367.913 316.027L372.53 331.014L381.943 323.115L367.986 315.966L367.913 316.027Z" fill="white"/>
</g>
<defs>
<clipPath id="clip0_23_9129">
<rect width="418" height="418" fill="white"/>
</clipPath>
</defs>
</svg>
