<svg width="154" height="24" viewBox="0 0 154 24" fill="none" xmlns="http://www.w3.org/2000/svg">
  <path
    d="M18.0206 6.29382H18.8866L21.3554 3.82508L21.4768 2.77725C16.8822 -1.27832 9.87054 -0.840933 5.81497 3.75363C4.68856 5.03008 3.87093 6.54784 3.4248 8.19103C3.69946 8.07831 4.00428 8.06005 4.29084 8.13943L9.22835 7.32498C9.22835 7.32498 9.47918 6.90903 9.60936 6.93522C11.8058 4.52284 15.5018 4.24183 18.0372 6.29462H18.0198L18.0206 6.29382Z"
    fill="#E43630" />
  <path
    d="M24.8727 8.1902C24.3051 6.1009 23.1406 4.22195 21.5204 2.78516L18.0555 6.25013C19.5185 7.44561 20.352 9.24676 20.3162 11.1352V11.7504C22.019 11.7504 23.4002 13.1309 23.4002 14.8344C23.4002 16.5379 22.0197 17.9183 20.3162 17.9183H14.1491L13.5339 18.5423V22.2406L14.1491 22.8558H20.3162C24.7457 22.89 28.3647 19.3273 28.3996 14.8979C28.4202 12.2132 27.0969 9.69606 24.8727 8.19179V8.1902Z"
    fill="#4B73B7" />
  <path
    d="M7.97309 22.82H14.1402V17.8825H7.97309C7.53332 17.8825 7.09911 17.788 6.69982 17.6055L5.83378 17.8738L3.34757 20.3425L3.13086 21.2086C4.52479 22.2612 6.22592 22.8271 7.97309 22.82Z"
    fill="#1A9C4D" />
  <path
    d="M7.97316 6.80376C3.5437 6.82996 -0.0260524 10.4426 0.000143255 14.8728C0.0152256 17.3463 1.17021 19.6746 3.13092 21.1828L6.70862 17.6051C5.15673 16.9042 4.46689 15.0776 5.16783 13.5257C5.86876 11.9738 7.69533 11.284 9.24722 11.985C9.93069 12.2937 10.4784 12.8415 10.788 13.5257L14.3657 9.94804C12.844 7.95796 10.4784 6.79503 7.97316 6.80376Z"
    fill="#F7BA00" />
  <path
    d="M44.8209 19.3722C42.6752 19.3992 40.6113 18.5522 39.1039 17.0249C37.548 15.5619 36.678 13.5131 36.7042 11.377C36.6788 9.24163 37.5488 7.1936 39.1039 5.72902C40.6042 4.18586 42.6689 3.32219 44.8209 3.33807C46.8705 3.31108 48.8455 4.10647 50.3037 5.54724L48.7621 7.11501C47.7064 6.09497 46.2894 5.53374 44.8209 5.55597C43.2809 5.53692 41.8036 6.16562 40.7494 7.28806C39.6548 8.37399 39.0507 9.8608 39.0777 11.4024C39.065 12.9265 39.6675 14.3911 40.7494 15.4651C42.98 17.6878 46.5752 17.7298 48.8566 15.5604C49.5361 14.8166 49.9529 13.8703 50.0434 12.8662H44.8463V10.6491H52.2001C52.2724 11.096 52.3017 11.5484 52.2867 12.0001C52.3787 13.891 51.6937 15.7382 50.3894 17.1107C48.9384 18.6213 46.9134 19.4437 44.8201 19.3714L44.8209 19.3722ZM61.9187 17.8997C59.8683 19.8652 56.6328 19.8652 54.5824 17.8997C53.5893 16.9368 53.0455 15.6016 53.0837 14.218C53.0463 12.8352 53.5901 11.5 54.5824 10.5363C56.6343 8.57483 59.8668 8.57483 61.9187 10.5363C62.911 11.5 63.4548 12.8352 63.4175 14.218C63.4532 15.6024 62.907 16.9376 61.91 17.8997H61.9187ZM56.2025 16.4534C57.2623 17.5846 59.038 17.6433 60.1692 16.5836C60.2136 16.5415 60.2573 16.4978 60.2994 16.4534C60.8773 15.8556 61.19 15.0499 61.1654 14.2188C61.1908 13.3845 60.8788 12.5756 60.2994 11.9755C59.2103 10.8396 57.4059 10.8015 56.27 11.8906C56.2414 11.9184 56.2128 11.9469 56.1851 11.9755C55.6056 12.5756 55.2928 13.3845 55.319 14.2188C55.2968 15.0515 55.6127 15.8572 56.1938 16.4534H56.2025ZM73.1972 17.8997C71.1468 19.8652 67.9112 19.8652 65.8608 17.8997C64.8677 16.9368 64.324 15.6016 64.3621 14.218C64.3248 12.8352 64.8685 11.5 65.8608 10.5363C67.9112 8.57086 71.1468 8.57086 73.1972 10.5363C74.1894 11.5 74.7332 12.8352 74.6959 14.218C74.734 15.6008 74.1902 16.936 73.1972 17.8997ZM67.4802 16.4534C68.5399 17.5846 70.3156 17.6433 71.4468 16.5836C71.4913 16.5415 71.5349 16.4978 71.577 16.4534C72.1549 15.8556 72.4677 15.0499 72.4431 14.2188C72.4685 13.3845 72.1565 12.5756 71.577 11.9755C70.4879 10.8396 68.6836 10.8015 67.5476 11.8906C67.5191 11.9184 67.4905 11.9469 67.4627 11.9755C66.8832 12.5756 66.5705 13.3845 66.5967 14.2188C66.5744 15.0515 66.8904 15.8572 67.4714 16.4534H67.4802ZM80.6114 23.9978C79.5731 24.0311 78.5554 23.7064 77.7267 23.0793C76.9916 22.5268 76.4121 21.7925 76.0462 20.9487L78.0212 20.1256C78.2363 20.6296 78.5721 21.0734 78.9999 21.4163C79.458 21.7854 80.0319 21.9791 80.6201 21.9616C81.3742 22.0077 82.1109 21.7227 82.6379 21.1821C83.1595 20.5526 83.4175 19.7453 83.3571 18.9301V18.1855H83.2793C82.6102 18.9801 81.6052 19.4135 80.5685 19.3548C79.2539 19.3587 77.9973 18.8118 77.1035 17.8473C76.1343 16.8908 75.5992 15.5794 75.6223 14.218C75.5985 12.8487 76.1327 11.5286 77.1035 10.5625C77.995 9.59408 79.2516 9.04397 80.5685 9.04635C81.1194 9.04556 81.6639 9.16701 82.1625 9.40118C82.5935 9.58932 82.9785 9.87033 83.2889 10.2244H83.3667V9.40118H85.5147V18.626C85.629 20.1009 85.1305 21.5576 84.1375 22.6538C83.1912 23.5588 81.9204 24.043 80.6122 23.9962L80.6114 23.9978ZM80.7677 17.3456C81.5163 17.3623 82.2339 17.0448 82.7253 16.4796C83.2595 15.8668 83.5413 15.0745 83.5135 14.2625C83.5453 13.4361 83.2643 12.6288 82.7253 12.0017C82.2347 11.4357 81.5171 11.1182 80.7677 11.1357C79.9993 11.1198 79.2611 11.4357 78.7411 12.0017C78.168 12.6066 77.8568 13.4123 77.8751 14.245C77.8576 15.0698 78.1688 15.8683 78.7411 16.4621C79.2587 17.0337 79.997 17.3559 80.7677 17.3456ZM89.3337 3.91993V19.0611H87.073V3.91993H89.3337ZM95.5358 19.3722C94.1672 19.4072 92.8455 18.8705 91.889 17.891C90.919 16.9186 90.3895 15.5913 90.4252 14.218C90.3736 12.8416 90.8833 11.504 91.8374 10.5109C92.7368 9.56233 93.995 9.03762 95.3024 9.06461C95.8969 9.05826 96.486 9.17336 97.0345 9.40277C97.5282 9.60202 97.9791 9.89652 98.3601 10.2688C98.6872 10.5848 98.9777 10.9364 99.2262 11.3166C99.427 11.6381 99.5985 11.9771 99.7374 12.3303L99.9716 12.9193L93.0424 15.7691C93.4711 16.755 94.4633 17.3742 95.5373 17.3282C96.5756 17.3313 97.5393 16.7884 98.0752 15.8993L99.8072 17.0686C99.3651 17.7013 98.7991 18.2371 98.1442 18.6451C97.3647 19.1373 96.4582 19.3905 95.5373 19.373L95.5358 19.3722ZM92.6431 14.0632L97.2512 12.1486C97.1091 11.8112 96.8551 11.5326 96.532 11.3603C96.17 11.1563 95.7604 11.0515 95.3452 11.0571C94.6403 11.0753 93.9712 11.3714 93.483 11.8803C92.8916 12.4462 92.5836 13.2464 92.6431 14.0632Z"
    fill="#666A6F" />
  <path
    d="M111.812 19.3723C107.871 19.4406 104.621 16.3003 104.553 12.359C104.551 12.263 104.551 12.1661 104.554 12.0701C104.462 8.12962 107.583 4.86071 111.523 4.76863C111.619 4.76625 111.716 4.76625 111.812 4.76784C113.784 4.70592 115.675 5.54815 116.949 7.0548L115.702 8.26774C114.766 7.09052 113.325 6.43087 111.822 6.49199C110.38 6.45945 108.989 7.0167 107.967 8.03357C106.905 9.10204 106.337 10.565 106.399 12.0701C106.337 13.5752 106.905 15.0381 107.967 16.1066C108.989 17.1243 110.38 17.6807 111.822 17.6482C113.498 17.6672 115.093 16.9211 116.153 15.6216L117.4 16.8687C116.747 17.6498 115.927 18.2745 115 18.696C114.002 19.1572 112.913 19.3882 111.812 19.3715V19.3723Z"
    fill="#666A6F" />
  <path d="M120.751 19.0611H118.958V5.07178H120.751V19.0611Z" fill="#666A6F" />
  <path
    d="M123.679 10.6409C125.635 8.69847 128.791 8.69847 130.747 10.6409C131.675 11.6205 132.174 12.9303 132.133 14.2789C132.174 15.6276 131.675 16.9374 130.747 17.917C128.791 19.8594 125.635 19.8594 123.679 17.917C122.751 16.9374 122.253 15.6276 122.293 14.2789C122.253 12.9303 122.751 11.6205 123.679 10.6409ZM125.013 16.7914C126.16 18.0043 128.074 18.0567 129.286 16.9096C129.327 16.8715 129.367 16.8318 129.405 16.7914C130.037 16.1119 130.372 15.2069 130.332 14.2797C130.372 13.3518 130.038 12.4468 129.405 11.7681C128.257 10.5552 126.344 10.5028 125.131 11.6499C125.09 11.688 125.051 11.7276 125.013 11.7681C124.38 12.4476 124.046 13.3526 124.085 14.2797C124.05 15.2053 124.387 16.1071 125.021 16.7834L125.012 16.7921L125.013 16.7914Z"
    fill="#666A6F" />
  <path
    d="M142.068 19.0611H140.336V17.7354H140.285C139.977 18.2387 139.54 18.6515 139.02 18.9309C138.48 19.2436 137.868 19.408 137.245 19.4072C136.219 19.477 135.217 19.0754 134.525 18.3157C133.868 17.4854 133.539 16.4447 133.598 15.3881V9.49805H135.391V15.0587C135.391 16.8432 136.179 17.7354 137.756 17.7354C138.466 17.7576 139.144 17.4346 139.574 16.8694C140.039 16.2804 140.287 15.5493 140.276 14.7991V9.49805H142.069V19.0611H142.068Z"
    fill="#666A6F" />
  <path
    d="M148.157 19.373C146.926 19.377 145.755 18.842 144.953 17.9093C144.055 16.9178 143.574 15.6175 143.611 14.28C143.574 12.9424 144.055 11.6421 144.953 10.6507C145.755 9.71794 146.927 9.18292 148.157 9.18688C148.839 9.17577 149.512 9.33691 150.115 9.65444C150.645 9.92116 151.094 10.3252 151.415 10.8237H151.492L151.415 9.49806V5.07178H153.208V19.0611H151.476V17.7354H151.398C151.077 18.2347 150.629 18.638 150.098 18.9047C149.501 19.2198 148.834 19.3802 148.158 19.3723L148.157 19.373ZM148.452 17.7362C149.272 17.7481 150.057 17.4076 150.609 16.8011C151.218 16.1073 151.529 15.2016 151.475 14.2808C151.529 13.3591 151.218 12.4534 150.609 11.7604C149.52 10.5641 147.669 10.4768 146.473 11.5651C146.405 11.6271 146.34 11.6921 146.278 11.7604C145.667 12.4494 145.355 13.3536 145.412 14.272C145.355 15.1913 145.667 16.0954 146.278 16.7836C146.83 17.4012 147.623 17.7489 148.452 17.7362Z"
    fill="#666A6F" />
</svg>