<svg width="21" height="20" viewBox="0 0 21 20" fill="none" xmlns="http://www.w3.org/2000/svg">
  <path
    d="M4.93242 12.0862L4.23625 14.6852L1.69176 14.739C0.931328 13.3286 0.5 11.7148 0.5 10C0.5 8.34176 0.903281 6.77801 1.61813 5.40109H1.61867L3.88398 5.8164L4.87633 8.06812C4.66863 8.67363 4.55543 9.32363 4.55543 10C4.55551 10.7341 4.68848 11.4374 4.93242 12.0862Z"
    fill="#FBBB00" />
  <path
    d="M20.3252 8.13188C20.44 8.7368 20.4999 9.36153 20.4999 10C20.4999 10.7159 20.4246 11.4143 20.2812 12.0879C19.7944 14.3802 18.5224 16.3819 16.7604 17.7984L16.7598 17.7978L13.9065 17.6522L13.5027 15.1313C14.6719 14.4456 15.5857 13.3725 16.067 12.0879H10.7197V8.13188H16.145H20.3252Z"
    fill="#518EF8" />
  <path
    d="M16.7595 17.7978L16.7601 17.7984C15.0464 19.1758 12.8694 20 10.4996 20C6.69141 20 3.38043 17.8714 1.69141 14.739L4.93207 12.0863C5.77656 14.3401 7.95074 15.9445 10.4996 15.9445C11.5952 15.9445 12.6216 15.6484 13.5024 15.1313L16.7595 17.7978Z"
    fill="#28B446" />
  <path
    d="M16.883 2.30219L13.6434 4.95438C12.7319 4.38461 11.6544 4.05547 10.5 4.05547C7.89344 4.05547 5.67859 5.73348 4.87641 8.06813L1.61871 5.40109H1.61816C3.28246 2.19231 6.6352 0 10.5 0C12.9264 0 15.1511 0.864297 16.883 2.30219Z"
    fill="#F14336" />
</svg>