<svg width="40" height="40" viewBox="0 0 40 40" fill="none" xmlns="http://www.w3.org/2000/svg">
  <path
    d="M20 35C28.2843 35 35 28.2843 35 20C35 11.7157 28.2843 5 20 5C11.7157 5 5 11.7157 5 20C5 28.2843 11.7157 35 20 35Z"
    fill="#00498C" />
  <path fill-rule="evenodd" clip-rule="evenodd"
    d="M13.026 29.9376V29.3134L14.0663 28.2419C14.2709 28.0303 14.4261 27.863 14.5319 27.7399C14.6376 27.6168 14.7104 27.5137 14.7503 27.4304C14.7902 27.3472 14.8101 27.2657 14.8101 27.186C14.8101 27.0438 14.7642 26.9319 14.6723 26.8505C14.5804 26.769 14.4651 26.7282 14.3264 26.7282C14.1877 26.7282 14.0577 26.769 13.9467 26.8505C13.8357 26.9319 13.7542 27.0559 13.7022 27.2224L13 26.9935C13.0416 26.7924 13.1283 26.6173 13.2601 26.4681C13.3919 26.319 13.5514 26.2037 13.7386 26.1222C13.9259 26.0407 14.1218 26 14.3264 26C14.583 26 14.8084 26.0451 15.0026 26.1352C15.1968 26.2254 15.3476 26.352 15.4551 26.515C15.5626 26.6779 15.6164 26.8687 15.6164 27.0871C15.6164 27.2258 15.5921 27.3619 15.5436 27.4954C15.495 27.629 15.4213 27.7642 15.3225 27.9012C15.2237 28.0381 15.0962 28.1864 14.9402 28.3459L14.0507 29.2614H15.6528V29.9376H13.026ZM16.2705 29.9377L17.8362 26.7387H16.0469V26.0625H18.6841V26.7387L17.1652 29.9377H16.2705ZM19.848 29.7503C20.0821 29.9168 20.3534 30 20.662 30C20.9741 30 21.2472 29.9159 21.4813 29.7477C21.7153 29.5795 21.8974 29.3455 22.0274 29.0455C22.1575 28.7456 22.2225 28.3962 22.2225 27.9974C22.2225 27.5986 22.1575 27.2492 22.0274 26.9493C21.8974 26.6493 21.7153 26.4161 21.4813 26.2497C21.2472 26.0832 20.9655 26 20.6568 26C20.3482 26 20.0769 26.0832 19.8428 26.2497C19.6087 26.4161 19.4267 26.6485 19.2966 26.9467C19.1666 27.2449 19.1016 27.5986 19.1016 27.9974C19.1016 28.3962 19.1674 28.7464 19.2992 29.0481C19.431 29.3498 19.6139 29.5839 19.848 29.7503ZM21.073 29.1209C20.962 29.2215 20.8267 29.2718 20.6672 29.2718C20.5043 29.2718 20.3664 29.2206 20.2537 29.1183C20.141 29.016 20.0552 28.8695 19.9962 28.6788C19.9373 28.4881 19.9078 28.2644 19.9078 27.9974C19.9078 27.7304 19.9373 27.5024 19.9962 27.3134C20.0552 27.1244 20.1401 26.9796 20.2511 26.8791C20.3621 26.7785 20.4938 26.7282 20.6568 26.7282C20.8198 26.7282 20.9577 26.7785 21.0704 26.8791C21.1831 26.9796 21.2689 27.1244 21.3278 27.3134C21.3868 27.5024 21.4163 27.7304 21.4163 27.9974C21.4163 28.2644 21.3868 28.4933 21.3278 28.684C21.2689 28.8747 21.1839 29.0204 21.073 29.1209ZM24.2987 30C23.9901 30 23.7188 29.9168 23.4847 29.7503C23.2506 29.5839 23.0677 29.3498 22.9359 29.0481C22.8042 28.7464 22.7383 28.3962 22.7383 27.9974C22.7383 27.5986 22.8033 27.2449 22.9333 26.9467C23.0634 26.6485 23.2454 26.4161 23.4795 26.2497C23.7136 26.0832 23.9849 26 24.2935 26C24.6022 26 24.8839 26.0832 25.118 26.2497C25.3521 26.4161 25.5341 26.6493 25.6642 26.9493C25.7942 27.2492 25.8592 27.5986 25.8592 27.9974C25.8592 28.3962 25.7942 28.7456 25.6642 29.0455C25.5341 29.3455 25.3521 29.5795 25.118 29.7477C24.8839 29.9159 24.6108 30 24.2987 30ZM24.304 29.2718C24.4635 29.2718 24.5987 29.2215 24.7097 29.1209C24.8206 29.0204 24.9056 28.8747 24.9645 28.684C25.0235 28.4933 25.053 28.2644 25.053 27.9974C25.053 27.7304 25.0235 27.5024 24.9645 27.3134C24.9056 27.1244 24.8198 26.9796 24.7071 26.8791C24.5944 26.7785 24.4565 26.7282 24.2935 26.7282C24.1306 26.7282 23.9988 26.7785 23.8878 26.8791C23.7769 26.9796 23.6919 27.1244 23.6329 27.3134C23.574 27.5024 23.5445 27.7304 23.5445 27.9974C23.5445 28.2644 23.574 28.4881 23.6329 28.6788C23.6919 28.8695 23.7777 29.016 23.8904 29.1183C24.0031 29.2206 24.141 29.2718 24.304 29.2718ZM27.0081 26.7439V29.9377H27.8144V26.0625H26.2539V26.7439H27.0081Z"
    fill="white" />
  <path
    d="M27.7515 15.4905C27.578 15.0388 27.2817 14.6543 26.9015 14.3874C26.311 14.0164 25.6436 13.8104 24.9603 13.7882C24.277 13.766 23.5993 13.9284 22.9892 14.2606C22.6922 14.4367 22.4349 14.6813 22.2358 14.9768C22.0366 15.2723 21.9004 15.6116 21.837 15.9703C21.6066 17.1009 21.668 18.4466 22.4771 19.2795C22.9694 19.716 23.5548 20.0137 24.1806 20.1456C24.8064 20.2775 25.4529 20.2395 26.0617 20.035C26.1895 19.9999 26.3145 19.9538 26.4355 19.8972C26.8398 19.7258 27.1937 19.44 27.4596 19.0699C27.7551 18.5353 27.9347 17.9358 27.9853 17.3161C28.0358 16.6964 27.9559 16.0723 27.7515 15.4905ZM25.7032 18.0385C25.6908 18.159 25.6486 18.2737 25.5811 18.3707C25.5135 18.4677 25.4231 18.5435 25.3191 18.59C25.1367 18.6588 24.9425 18.683 24.7503 18.6611C24.5581 18.6392 24.3729 18.5716 24.2079 18.4632C24.1011 18.3566 24.0166 18.2267 23.9601 18.0821C23.9036 17.9375 23.8763 17.7817 23.8802 17.6249C23.8185 17.0106 23.8549 16.3894 23.9877 15.7883C24.0623 15.6386 24.1754 15.5152 24.3135 15.433C24.4516 15.3508 24.6087 15.3133 24.7661 15.325C24.9235 15.307 25.0826 15.3284 25.231 15.3878C25.3794 15.4471 25.5129 15.5427 25.6213 15.667C25.7218 15.8881 25.771 16.1323 25.7646 16.3784C25.7853 16.9327 25.7647 17.4878 25.7032 18.0385ZM15.687 18.59H14.8574V15.3967H15.6921V13.88H12V15.3912H12.8398V18.579H12V20.0571H15.7228V18.59H15.687ZM25.0938 20.752C24.7347 21.3115 24.2997 21.8097 23.8034 22.2301H23.7163C23.5064 22.0922 23.2759 21.9819 23.0711 21.833C23.3459 21.4889 23.5926 21.1198 23.8085 20.73H23.5525C23.344 21.0786 23.1057 21.4054 22.8407 21.7062C22.4862 21.5499 22.1237 21.4155 21.7551 21.3036L21.709 21.2705C21.787 21.0916 21.8537 20.9074 21.9087 20.7189H21.6834L21.4581 21.2043C20.9505 21.0983 20.4375 21.0246 19.9218 20.9837C19.8911 20.9065 19.9218 20.7961 19.8911 20.7189H19.6709C19.6812 20.8124 19.6812 20.9068 19.6709 21.0002C19.1547 21.0218 18.641 21.0882 18.1347 21.1988L17.9094 20.7245C17.8295 20.7134 17.7486 20.7134 17.6687 20.7245L17.8838 21.276C17.5048 21.3973 17.131 21.5352 16.7674 21.6951H16.7316C16.4895 21.4223 16.2702 21.127 16.0761 20.8127C16.0352 20.6583 15.8611 20.7465 15.7638 20.73C15.985 21.1201 16.2368 21.4892 16.5165 21.833C16.2912 21.9819 16.0608 22.1198 15.8201 22.2467C15.288 21.8313 14.8212 21.3267 14.4375 20.752C14.3477 20.7355 14.2559 20.7355 14.1661 20.752C14.8074 21.7927 15.69 22.635 16.7265 23.1953C17.3979 23.5596 18.1186 23.8071 18.8618 23.9288C20.1149 24.1204 21.3926 23.9233 22.5454 23.3607C23.6981 22.798 24.6781 21.8931 25.3703 20.752C25.2862 20.73 25.1984 20.73 25.1143 20.752H25.0938ZM21.5707 21.5517C21.9264 21.634 22.2707 21.7656 22.5949 21.9433C22.3174 22.2683 22.0025 22.5537 21.6578 22.7927C21.4632 22.914 21.2686 23.0519 21.0638 23.1567L20.7053 22.9857V22.925C21.0419 22.4941 21.3434 22.0328 21.6066 21.5462L21.5707 21.5517ZM19.8911 21.3036C20.3654 21.3063 20.8379 21.3674 21.2993 21.4856C21.0595 21.9843 20.7784 22.4587 20.4595 22.903C20.3201 22.9004 20.1813 22.8838 20.0447 22.8533H19.8911V21.3036ZM18.2627 21.4635C18.7109 21.3631 19.1671 21.3095 19.6248 21.3036V22.8147C19.4507 22.8589 19.251 22.8589 19.082 22.903C18.7445 22.4699 18.4494 22.0004 18.2013 21.5021L18.2525 21.4635H18.2627ZM16.9006 21.9433C17.23 21.7775 17.5728 21.6446 17.9247 21.5462H17.9555C18.2114 22.0366 18.4971 22.5082 18.8106 22.9581C18.6877 23.0298 18.5392 23.074 18.4317 23.1457C17.86 22.8439 17.3405 22.4391 16.8955 21.9488L16.9006 21.9433ZM18.022 23.4269C17.3045 23.2196 16.6279 22.8739 16.0249 22.4066C16.2222 22.2615 16.4313 22.136 16.6497 22.0316C17.118 22.5109 17.6331 22.9344 18.1859 23.2946C18.1412 23.3514 18.0852 23.3966 18.022 23.4269ZM21.1559 23.5428C20.2393 23.7689 19.2869 23.7689 18.3702 23.5428C18.3702 23.4986 18.4163 23.4931 18.4368 23.46C18.8572 23.1958 19.3367 23.0608 19.8233 23.0695C20.3099 23.0783 20.785 23.2305 21.1969 23.5097C21.1969 23.5648 21.1508 23.5483 21.1355 23.5648L21.1559 23.5428ZM21.9599 23.3056L21.5656 23.4435C21.4968 23.4073 21.433 23.3609 21.3761 23.3056C21.9326 22.9577 22.4484 22.5392 22.9124 22.0591C23.1417 22.1616 23.3598 22.2911 23.5627 22.4452C23.0733 22.8255 22.5328 23.1231 21.9599 23.3277V23.3056ZM14.4375 13.1851C14.6445 12.8719 14.8721 12.5752 15.1186 12.2971C15.3166 12.0723 15.5363 11.8707 15.774 11.696C15.9993 11.8449 16.2451 11.9772 16.4551 12.1206C16.181 12.4641 15.9359 12.8332 15.7228 13.2237C15.8087 13.2457 15.8981 13.2457 15.984 13.2237C16.1921 12.8833 16.4305 12.5656 16.6958 12.2751C17.0512 12.4253 17.4136 12.556 17.7814 12.6666L17.8121 12.7053L17.597 13.2182C17.6777 13.2397 17.7621 13.2397 17.8428 13.2182C17.9196 13.0637 17.9708 12.8983 18.0579 12.7439C18.5626 12.8645 19.0772 12.9311 19.5941 12.9424C19.6607 13.0086 19.5941 13.141 19.6351 13.2182H19.8604V12.959C20.3584 12.936 20.8537 12.8659 21.3403 12.7494H21.3813L21.6066 13.2127C21.6865 13.2237 21.7674 13.2237 21.8473 13.2127L21.6066 12.6942C21.9905 12.58 22.3669 12.4381 22.7331 12.2695C23.002 12.5705 23.2469 12.8952 23.4654 13.2402C23.5487 13.2513 23.633 13.2513 23.7163 13.2402C23.6112 13.0447 23.4895 12.8601 23.3528 12.6887C23.2569 12.4948 23.1455 12.3103 23.0199 12.1372V12.0931L23.6139 11.7291L23.6959 11.696C24.2199 12.1104 24.6767 12.6155 25.0477 13.1906C25.1376 13.2072 25.2293 13.2072 25.3191 13.1906C24.7591 12.2876 24.0159 11.5335 23.1456 10.9851C22.2754 10.4367 21.3009 10.1083 20.2957 10.0248C20.0474 9.99172 19.7963 9.99172 19.548 10.0248C19.4428 10.0083 19.3358 10.0083 19.2305 10.0248C18.2138 10.099 17.2267 10.4253 16.3464 10.9783C15.466 11.5313 14.7164 12.296 14.1558 13.2127C14.2477 13.2237 14.3405 13.2237 14.4324 13.2127L14.4375 13.1851ZM17.9452 12.3964H17.9094C17.5598 12.3061 17.2173 12.1862 16.8852 12.0379V11.9772C17.343 11.5107 17.8603 11.117 18.4215 10.808C18.5444 10.8687 18.6775 10.9073 18.8055 10.9679V11.0396C18.4857 11.4653 18.1996 11.9192 17.9503 12.3964H17.9452ZM19.6197 12.6446C19.3917 12.6722 19.1615 12.6722 18.9335 12.6446C18.6792 12.6094 18.4276 12.5541 18.1808 12.4791C18.4219 11.9733 18.7119 11.4963 19.0462 11.0562L19.589 11.1389V12.6391L19.6197 12.6446ZM19.8758 12.6446V11.1334L20.3878 11.0617C20.7298 11.4971 21.0252 11.9726 21.2686 12.4791C20.8107 12.5989 20.3418 12.6637 19.8706 12.6722L19.8758 12.6446ZM22.5744 12.0158C22.2453 12.1769 21.9023 12.3025 21.5502 12.3909C21.2845 11.9068 20.9939 11.4392 20.6797 10.99C20.7975 10.9238 20.9409 10.8687 21.0638 10.7915C21.6338 11.0985 22.1528 11.5047 22.6 11.9938L22.5744 12.0158ZM21.4939 10.4881C22.2136 10.6824 22.8929 11.0211 23.4961 11.4864V11.514L22.9021 11.8449H22.8356C22.376 11.3654 21.8594 10.9537 21.2993 10.6205C21.3445 10.5582 21.4047 10.5105 21.4734 10.4826L21.4939 10.4881ZM21.1559 10.3944C20.7588 10.6812 20.2951 10.8425 19.8172 10.86C19.3394 10.8776 18.8665 10.7506 18.4522 10.4936C18.4061 10.4605 18.3242 10.4385 18.3139 10.3778C19.2485 10.1407 20.2214 10.1407 21.1559 10.3778V10.3944ZM15.9737 11.4974C16.507 11.083 17.0982 10.7627 17.725 10.5488C17.7558 10.5212 17.7762 10.4991 17.8018 10.4991C17.8684 10.4991 17.9196 10.433 17.9759 10.4991C18.0323 10.5653 18.0835 10.5764 18.1296 10.626C17.5758 10.9826 17.0606 11.4043 16.5933 11.8835C16.3743 11.7841 16.1664 11.6583 15.9737 11.5084V11.4974ZM19.6044 18.6673C19.2171 18.792 18.806 18.8031 18.4135 18.6994C18.021 18.5956 17.6613 18.3808 17.3717 18.0771C17.3051 17.9889 17.2642 17.8786 17.1976 17.7958H16.0608C16.0608 18.5128 16.0352 19.3511 16.0608 20.0681H17.3307V19.649C17.4781 19.7193 17.6217 19.7984 17.7609 19.8861C18.2144 20.1044 18.7056 20.2172 19.2024 20.2172C19.6991 20.2172 20.1903 20.1044 20.6439 19.8861C20.9505 19.7034 21.1984 19.4246 21.3547 19.0869C21.5111 18.7491 21.5685 18.3681 21.5195 17.9944C21.448 17.5992 21.2738 17.234 21.0173 16.9412C20.7608 16.6483 20.4324 16.4398 20.0703 16.3398L18.022 15.7056L17.8735 15.6228C17.839 15.5964 17.8118 15.5604 17.7946 15.5186C17.7775 15.4769 17.7712 15.431 17.7762 15.3857C17.935 15.0878 18.2883 15.1816 18.5853 15.1871C18.8854 15.203 19.1786 15.2898 19.4441 15.4413C19.7096 15.5929 19.9409 15.8055 20.1216 16.0641H21.3249V13.9407H20.1011C20.1079 14.0627 20.0992 14.1852 20.0755 14.3047L19.6965 14.0951C19.2072 13.8613 18.673 13.7568 18.1386 13.7904C17.6041 13.8239 17.0849 13.9946 16.6241 14.2881C16.3706 14.5077 16.1816 14.8016 16.0798 15.1344C15.978 15.4671 15.9678 15.8245 16.0505 16.1633C16.1385 16.4791 16.297 16.7669 16.5122 17.0015C16.7273 17.2361 16.9925 17.4104 17.2846 17.5091C18.0323 17.8014 18.8209 17.9944 19.589 18.2757C19.6607 18.3143 19.7631 18.397 19.7426 18.4908C19.7221 18.5845 19.676 18.6066 19.6248 18.6452L19.6044 18.6673Z"
    fill="white" />
</svg>