<svg width="24" height="24" viewBox="0 0 24 24" xmlns="http://www.w3.org/2000/svg">
  <path fill-rule="evenodd"
    d="M12 20C16.4183 20 20 16.4183 20 12C20 7.58172 16.4183 4 12 4C7.58172 4 4 7.58172 4 12C4 16.4183 7.58172 20 12 20ZM11.9995 18.5005C15.5896 18.5005 18.5 15.5901 18.5 12C18.5 8.40988 15.5896 5.49951 11.9995 5.49951C8.40939 5.49951 5.49902 8.40988 5.49902 12C5.49902 15.5901 8.40939 18.5005 11.9995 18.5005Z" />
  <path fill-rule="evenodd"
    d="M12 15.252C13.796 15.252 15.252 13.796 15.252 12C15.252 10.204 13.796 8.74805 12 8.74805C10.204 8.74805 8.74805 10.204 8.74805 12C8.74805 13.796 10.204 15.252 12 15.252ZM12 13.75C12.9665 13.75 13.75 12.9665 13.75 12C13.75 11.0335 12.9665 10.25 12 10.25C11.0335 10.25 10.25 11.0335 10.25 12C10.25 12.9665 11.0335 13.75 12 13.75Z" />
  <path d="M12 9V3" stroke="currentColor" stroke-width="1.5" stroke-linecap="round" />
  <path d="M10 10L4.79297 6.5" stroke="currentColor" stroke-width="1.5" stroke-linecap="round" />
  <path
    d="M11.0766 14.8177L11.4669 14.1773L10.1861 13.3967L9.79576 14.0371L11.0766 14.8177ZM6.38886 19.6273C6.1733 19.981 6.28528 20.4425 6.63899 20.658C6.99269 20.8736 7.45417 20.7616 7.66973 20.4079L6.38886 19.6273ZM9.79576 14.0371L6.38886 19.6273L7.66973 20.4079L11.0766 14.8177L9.79576 14.0371Z" />
  <path
    d="M14.2752 14.0882L13.8849 13.4478L12.604 14.2284L12.9943 14.8688L14.2752 14.0882ZM16.3596 20.3903C16.5751 20.744 17.0366 20.856 17.3903 20.6404C17.744 20.4249 17.856 19.9634 17.6404 19.6097L16.3596 20.3903ZM12.9943 14.8688L16.3596 20.3903L17.6404 19.6097L14.2752 14.0882L12.9943 14.8688Z" />
  <path
    d="M9.15974 13.2425L9.88746 13.0611L9.52458 11.6056L8.79686 11.7871L9.15974 13.2425ZM2.84004 13.2723C2.43813 13.3725 2.19356 13.7795 2.29376 14.1814C2.39397 14.5834 2.80102 14.8279 3.20293 14.7277L2.84004 13.2723ZM8.79686 11.7871L2.84004 13.2723L3.20293 14.7277L9.15974 13.2425L8.79686 11.7871Z" />
  <path
    d="M15.2024 11.7995L14.4746 11.6181L14.1118 13.0735L14.8395 13.255L15.2024 11.7995ZM20.7463 14.7277C21.1482 14.8279 21.5552 14.5834 21.6555 14.1814C21.7557 13.7795 21.5111 13.3725 21.1092 13.2723L20.7463 14.7277ZM14.8395 13.255L20.7463 14.7277L21.1092 13.2723L15.2024 11.7995L14.8395 13.255Z" />
  <path d="M14 10L19.1543 6.5" stroke="currentColor" stroke-width="1.5" stroke-linecap="round" />
</svg>