<svg width="40" height="40" viewBox="0 0 40 40" fill="none" xmlns="http://www.w3.org/2000/svg">
  <path
    d="M20 35C28.2843 35 35 28.2843 35 20C35 11.7157 28.2843 5 20 5C11.7157 5 5 11.7157 5 20C5 28.2843 11.7157 35 20 35Z"
    fill="#003399" />
  <path fill-rule="evenodd" clip-rule="evenodd"
    d="M20.5036 7.72295H21.9133L20.8316 8.63942L21.1861 10.0298L19.973 9.14227L18.7611 10.0298L19.1144 8.63942L18.0352 7.72295H19.4424L19.973 6.29639L20.5036 7.72295ZM26.4294 9.27129H27.8391L26.7574 10.1878L27.1119 11.5781L25.8988 10.6906L24.6869 11.5781L25.0402 10.1878L23.9609 9.27129H25.3682L25.8988 7.84473L26.4294 9.27129ZM15.9875 9.27129H14.5778L14.0472 7.84473L13.5166 9.27129H12.1094L13.1886 10.1878L12.8353 11.5781L14.0472 10.6906L15.2604 11.5781L14.9058 10.1878L15.9875 9.27129ZM20.5036 31.3968H21.9133L20.8316 32.3132L21.1861 33.7036L19.973 32.8161L18.7611 33.7036L19.1144 32.3132L18.0352 31.3968H19.4424L19.973 29.9702L20.5036 31.3968ZM27.8391 29.8484H26.4294L25.8988 28.4219L25.3682 29.8484H23.9609L25.0402 30.7649L24.6869 32.1553L25.8988 31.2678L27.1119 32.1553L26.7574 30.7649L27.8391 29.8484ZM14.5778 29.8484H15.9875L14.9058 30.7649L15.2604 32.1553L14.0472 31.2678L12.8353 32.1553L13.1886 30.7649L12.1094 29.8484H13.5166L14.0472 28.4219L14.5778 29.8484ZM11.6477 13.6126H10.238L9.70739 12.186L9.1768 13.6126H7.76953L8.8488 14.5291L8.49547 15.9195L9.70739 15.0319L10.9205 15.9195L10.566 14.5291L11.6477 13.6126ZM30.7302 13.6126H32.1398L31.0582 14.5291L31.4127 15.9195L30.1996 15.0319L28.9877 15.9195L29.341 14.5291L28.2617 13.6126H29.669L30.1996 12.186L30.7302 13.6126ZM11.6477 25.4158H10.238L9.70739 23.9893L9.1768 25.4158H7.76953L8.8488 26.3323L8.49547 27.7227L9.70739 26.8351L10.9205 27.7227L10.566 26.3323L11.6477 25.4158ZM8.71845 19.4925H10.1281L9.04645 20.409L9.40098 21.7993L8.18786 20.9118L6.97594 21.7993L7.32927 20.409L6.25 19.4925H7.65727L8.18786 18.0659L8.71845 19.4925ZM33.7492 19.4925H32.3395L31.809 18.0659L31.2784 19.4925H29.8711L30.9504 20.409L30.597 21.7993L31.809 20.9118L33.0221 21.7993L32.6675 20.409L33.7492 19.4925ZM30.7302 25.4158H32.1398L31.0582 26.3323L31.4127 27.7227L30.1996 26.8351L28.9877 27.7227L29.341 26.3323L28.2617 25.4158H29.669L30.1996 23.9893L30.7302 25.4158Z"
    fill="#FFCC00" />
  <path fill-rule="evenodd" clip-rule="evenodd"
    d="M21.4375 22C21.1346 22 20.8502 21.9447 20.5841 21.8342C20.318 21.7237 20.0887 21.5665 19.8961 21.3628C19.7036 21.1591 19.5598 20.9185 19.4646 20.6411L20.2888 20.2705C20.4099 20.5349 20.5776 20.743 20.7918 20.8947C21.0059 21.0464 21.2428 21.1222 21.5024 21.1222C21.6408 21.1222 21.7598 21.1006 21.8593 21.0572C21.9589 21.0139 22.0367 20.9543 22.093 20.8784C22.1492 20.8026 22.1773 20.7126 22.1773 20.6086C22.1773 20.4959 22.1427 20.3994 22.0735 20.3192C22.0043 20.2391 21.8961 20.1751 21.749 20.1274L20.8015 19.8153C20.4164 19.6896 20.1265 19.5108 19.9318 19.2789C19.7371 19.047 19.6398 18.7685 19.6398 18.4434C19.6398 18.1573 19.7101 17.9059 19.8507 17.6892C19.9913 17.4725 20.1882 17.3034 20.4413 17.1821C20.6944 17.0607 20.9854 17 21.3142 17C21.6041 17 21.8723 17.0498 22.1189 17.1495C22.3656 17.2492 22.5786 17.3901 22.7582 17.5722C22.9377 17.7542 23.073 17.9731 23.1638 18.2289L22.3461 18.5995C22.2552 18.3741 22.1189 18.1974 21.9372 18.0696C21.7555 17.9417 21.5478 17.8778 21.3142 17.8778C21.1801 17.8778 21.0611 17.8994 20.9572 17.9428C20.8534 17.9861 20.7734 18.0479 20.7171 18.1281C20.6609 18.2083 20.6327 18.3004 20.6327 18.4044C20.6327 18.5171 20.6695 18.6157 20.7431 18.7003C20.8166 18.7848 20.927 18.8509 21.0741 18.8986L22.0021 19.1977C22.3915 19.3234 22.6825 19.4989 22.875 19.7243C23.0675 19.9497 23.1638 20.225 23.1638 20.5501C23.1638 20.8318 23.0903 21.0821 22.9432 21.301C22.7961 21.5199 22.5938 21.6912 22.3363 21.8147C22.0789 21.9382 21.7793 22 21.4375 22ZM13 17.0781V21.9221H14.0059V18.9791L16.1801 21.9221H16.9588V17.0781H15.9529V19.9564L13.7723 17.0781H13ZM17.8153 17.0781V21.9221H18.8212V17.0781H17.8153ZM23.7235 21.1417V21.922H27.0009V21.0767H25.0021L26.1118 19.9324C26.3065 19.733 26.4655 19.5477 26.5888 19.3765C26.7121 19.2052 26.8041 19.0362 26.8647 18.8693C26.9252 18.7024 26.9555 18.5323 26.9555 18.3589C26.9555 18.0858 26.8885 17.8474 26.7543 17.6437C26.6202 17.44 26.432 17.2818 26.1897 17.1691C25.9474 17.0563 25.6662 17 25.346 17C25.0908 17 24.8463 17.0509 24.6127 17.1528C24.379 17.2547 24.18 17.3988 24.0156 17.5852C23.8512 17.7716 23.743 17.9905 23.6911 18.2419L24.5672 18.528C24.6321 18.3199 24.7338 18.1649 24.8723 18.0631C25.0107 17.9612 25.173 17.9103 25.346 17.9103C25.5191 17.9103 25.6629 17.9612 25.7776 18.0631C25.8923 18.1649 25.9496 18.3047 25.9496 18.4824C25.9496 18.5821 25.9247 18.684 25.875 18.788C25.8252 18.8921 25.7343 19.021 25.6024 19.1749C25.4704 19.3288 25.2768 19.5379 25.0215 19.8023L23.7235 21.1417Z"
    fill="white" />
</svg>