<svg clip-rule="evenodd" fill-rule="evenodd" stroke-linejoin="round" stroke-miterlimit="1.41421" viewBox="0 0 560 400" xmlns="http://www.w3.org/2000/svg" xmlns:xlink="http://www.w3.org/1999/xlink"><linearGradient id="a" gradientTransform="matrix(0 36.63 -36.63 0 30.03 6.57)" gradientUnits="userSpaceOnUse" x1="0" x2="1" y1="0" y2="0"><stop offset="0" stop-color="#2684ff"/><stop offset=".82" stop-color="#0052cc"/><stop offset="1" stop-color="#0052cc"/></linearGradient><linearGradient id="b" gradientTransform="matrix(12.27 25.68 -25.68 12.27 19.05 42.17)" gradientUnits="userSpaceOnUse" x1="0" x2="1" y1="0" y2="0"><stop offset="0" stop-color="#2684ff"/><stop offset=".62" stop-color="#0052cc"/><stop offset="1" stop-color="#0052cc"/></linearGradient><g transform="matrix(1.13192 0 0 1.13192 31.11 155.014)"><path d="m268.79 53.58c-2.85 5.88-8.19 8.9-15 8.9-11.75 0-17.62-10.06-17.62-23.14 0-12.55 6.14-23.14 18.51-23.14 6.5 0 11.48 2.94 14.15 8.72v-7.83h7.48v40.5c0 13.08-6.14 21.89-22.08 21.89-5.381.155-10.747-.658-15.84-2.4v-7.48c4.987 1.713 10.217 2.615 15.49 2.67 11.12 0 15-6 15-14.24zm-111.25 25.42h-7.65v-61.91h7.65v8c2.85-5.87 8.19-8.9 15-8.9 11.84 0 17.8 10.06 17.8 23.14 0 12.55-6.23 23.14-18.69 23.14-6.45.01-11.44-2.93-14.11-8.71zm55.72-16.52c-5.349.127-10.654-1-15.49-3.29v-8.1c4.857 2.695 10.288 4.19 15.84 4.36 5.88 0 8.9-2.4 8.9-5.87s-2.58-5.34-11-7.39c-9.88-2.4-14.07-6.23-14.07-13.53 0-7.74 6-12.46 16.11-12.46 4.962-.074 9.871 1.022 14.33 3.2v7.93c-5.34-2.68-9.7-4.1-14.42-4.1-5.6 0-8.63 2-8.63 5.43 0 3.12 2.14 5.07 10.32 7 9.85 2.43 14.85 6.08 14.85 13.83 0 7.39-4.82 12.99-16.74 12.99zm-129.05-30.26c0-17.62 10.14-30 28.21-30s28.13 12.37 28.13 30c0 17.8-10.15 30.26-28.13 30.26s-28.21-12.48-28.21-30.26zm208.7 10.55c1.07 7.57 6 12.46 16.46 12.46 4.616-.003 9.195-.815 13.53-2.4v7c-3.65 1.94-9.25 2.65-13.79 2.65-16.65 0-23.95-9.61-23.95-23.23 0-13.44 7.48-23 21-23 13.71 0 19.22 9.52 19.22 23.05v3.47zm114.36 0c1.07 7.57 6 12.46 16.47 12.46 4.615-.005 9.195-.817 13.53-2.4v7c-3.65 1.94-9.27 2.65-13.8 2.65-16.65 0-23.94-9.61-23.94-23.23 0-13.44 7.47-23 21-23 13.71 0 19.23 9.52 19.23 23.05v3.47zm-16.61 18.82h-7.66v-44.5h7.66zm-48.52 0h-7.65v-44.5h7.65v7.3c2.778-5.145 8.224-8.315 14.07-8.19 10.23 0 16.11 7 16.11 19.31l-.02 26.08h-7.66v-26.88c0-8-3.2-11.57-10.5-11.57-7.12 0-12 4.72-12 13.71zm-171.6-38.27c-6.86 0-13 4.36-13 14.24v3.56c0 9.88 5.61 14.24 12.11 14.24 8.63 0 13.08-5.69 13.08-16 0-10.7-4.27-16.04-12.19-16.04zm85.255 32.04c6.848-.002 12.995-4.362 12.995-14.24v-3.56c0-9.88-5.61-14.24-12.1-14.24-8.64 0-13.09 5.7-13.09 16 0 10.678 4.268 16.038 12.195 16.04h-.005.01zm-163.585-23.14c0 12.37 5.78 22.61 20.2 22.61s20.11-10.24 20.11-22.61c0-12.1-5.78-22.34-20.11-22.34s-20.19 10.24-20.19 22.34zm200.61 3.92h24.83c-.44-8.28-4.18-13-11.84-13-8.1 0-12.19 5.25-12.99 13zm114.36 0h24.82c-.44-8.28-4.18-13-11.83-13-8.09 0-12.17 5.25-12.99 13zm-20.29-36.14c.117-.008.235-.012.352-.012 2.743 0 5 2.257 5 5 0 .117-.004.235-.012.352 0 2.929-2.411 5.34-5.34 5.34s-5.34-2.411-5.34-5.34c-.008-.117-.012-.235-.012-.352 0-2.743 2.257-5 5-5 .117 0 .235.004.352.012z" fill="#253858" fill-rule="nonzero"/><circle cx="30.03" cy="18.48" fill="url(#a)" r="17.84"/><g fill-rule="nonzero"><path d="m28.51 71.7c-11.65-7.432-21.341-17.562-28.25-29.53-.166-.297-.253-.632-.253-.973 0-.763.437-1.462 1.123-1.797l13.51-6.63c.94-.458 2.088-.106 2.61.8 6.83 11.447 16.932 20.591 29 26.25-4.451 4.485-9.381 8.469-14.7 11.88-.929.58-2.111.58-3.04 0z" fill="url(#b)"/><path d="m31.55 71.7c11.652-7.43 21.343-17.56 28.25-29.53.167-.298.255-.635.255-.977 0-.76-.434-1.457-1.115-1.793l-13.52-6.63c-.94-.458-2.088-.106-2.61.8-6.828 11.448-16.931 20.592-29 26.25 4.449 4.488 9.378 8.472 14.7 11.88.929.58 2.111.58 3.04 0z" fill="#2684ff"/></g></g></svg>