<svg width="24" height="24" viewBox="0 0 24 24" xmlns="http://www.w3.org/2000/svg">
  <path fill-rule="evenodd" clip-rule="evenodd"
    d="M10.8884 2.99994C9.85246 2.99994 8.82669 3.20398 7.86963 3.60041C6.91256 3.99683 6.04296 4.57789 5.31045 5.31039C4.57795 6.04289 3.99689 6.9125 3.60047 7.86956C3.20404 8.82663 3 9.8524 3 10.8883C3 11.9242 3.20404 12.95 3.60047 13.9071C3.9969 14.8641 4.57795 15.7337 5.31045 16.4662C6.04295 17.1987 6.91256 17.7798 7.86963 18.1762C8.82669 18.5727 9.85246 18.7767 10.8884 18.7767C11.9243 18.7767 12.9501 18.5727 13.9071 18.1762C14.6324 17.8758 15.3075 17.4693 15.9107 16.9713C15.9107 16.9713 15.9107 16.9713 15.9108 16.9714L19.5724 20.633C19.8652 20.9258 20.3401 20.9258 20.633 20.633C20.9259 20.3401 20.9259 19.8652 20.633 19.5723L16.9714 15.9107C16.9714 15.9107 16.9714 15.9107 16.9714 15.9106C17.4694 15.3074 17.8759 14.6324 18.1763 13.9071C18.5727 12.95 18.7768 11.9242 18.7768 10.8883C18.7768 9.8524 18.5727 8.82663 18.1763 7.86956C17.7799 6.9125 17.1988 6.04289 16.4663 5.31039C15.7338 4.57789 14.8642 3.99683 13.9071 3.60041C12.9501 3.20398 11.9243 2.99994 10.8884 2.99994ZM8.44365 4.98623C9.21872 4.66518 10.0494 4.49994 10.8884 4.49994C11.7273 4.49994 12.558 4.66518 13.3331 4.98623C14.1082 5.30727 14.8124 5.77784 15.4056 6.37105C15.9989 6.96427 16.4694 7.66852 16.7905 8.44359C17.1115 9.21866 17.2768 10.0494 17.2768 10.8883C17.2768 11.7272 17.1115 12.558 16.7905 13.333C16.4694 14.1081 15.9989 14.8124 15.4056 15.4056C14.8124 15.9988 14.1082 16.4694 13.3331 16.7904C12.558 17.1115 11.7273 17.2767 10.8884 17.2767C10.0494 17.2767 9.21872 17.1115 8.44365 16.7904C7.66858 16.4694 6.96433 15.9988 6.37111 15.4056C5.7779 14.8124 5.30733 14.1081 4.98629 13.333C4.66524 12.558 4.5 11.7272 4.5 10.8883C4.5 10.0494 4.66524 9.21866 4.98629 8.44359C5.30733 7.66852 5.7779 6.96427 6.37111 6.37105C6.96433 5.77784 7.66858 5.30727 8.44365 4.98623Z" />
</svg>