<svg width="24" height="24" viewBox="0 0 24 24" xmlns="http://www.w3.org/2000/svg">
  <path
    d="M3.75 20.5V19H5.75V3.5H14.75V4.5H18.25V10.404H16.75V6H14.75V12.2308H13.25V5H7.25V19H12.1348V20.5H3.75ZM17.1348 21.2885L16.9307 20.1057C16.6411 20.0224 16.3911 19.9179 16.1807 19.7922C15.9706 19.6666 15.7693 19.5147 15.577 19.3365L14.4538 19.7693L13.6655 18.477L14.5788 17.6885C14.5006 17.3808 14.4615 17.1026 14.4615 16.8538C14.4615 16.6051 14.5006 16.3269 14.5788 16.0192L13.6655 15.2308L14.4538 13.9385L15.577 14.3713C15.7693 14.1929 15.9706 14.0384 16.1807 13.9078C16.3911 13.7769 16.6411 13.6698 16.9307 13.5865L17.1348 12.404H18.6345L18.8385 13.5865C19.1282 13.6698 19.3782 13.7743 19.5885 13.9C19.7987 14.0257 19.9999 14.1776 20.1923 14.3558L21.3153 13.923L22.1038 15.2153L21.1903 16.0037C21.2686 16.3114 21.3078 16.5897 21.3078 16.8385C21.3078 17.0872 21.2686 17.3653 21.1903 17.673L22.1038 18.4615L21.3153 19.7538L20.1923 19.3365C19.9999 19.5147 19.7987 19.6666 19.5885 19.7922C19.3782 19.9179 19.1282 20.0224 18.8385 20.1057L18.6345 21.2885H17.1348ZM17.8825 18.923C18.4532 18.923 18.9423 18.7198 19.35 18.3135C19.7577 17.9072 19.9615 17.4188 19.9615 16.8483C19.9615 16.2776 19.7583 15.7884 19.352 15.3808C18.9457 14.9731 18.4572 14.7692 17.8867 14.7692C17.3161 14.7692 16.8269 14.9724 16.4193 15.3787C16.0116 15.7851 15.8077 16.2735 15.8077 16.844C15.8077 17.4147 16.0109 17.9038 16.4173 18.3115C16.8236 18.7192 17.312 18.923 17.8825 18.923ZM11.25 12.8845C11.0052 12.8845 10.7965 12.7983 10.624 12.626C10.4517 12.4535 10.3655 12.2448 10.3655 12C10.3655 11.7552 10.4517 11.5465 10.624 11.374C10.7965 11.2017 11.0052 11.1155 11.25 11.1155C11.4948 11.1155 11.7035 11.2017 11.876 11.374C12.0485 11.5465 12.1348 11.7552 12.1348 12C12.1348 12.2448 12.0485 12.4535 11.876 12.626C11.7035 12.7983 11.4948 12.8845 11.25 12.8845Z" />
</svg>