<svg width="24" height="24" viewBox="0 0 24 24" xmlns="http://www.w3.org/2000/svg">
  <rect width="24" height="24" fill="transparent" />
  <circle cx="12.2363" cy="12" r="9.5" fill="white" stroke="white" />
  <path
    d="M12.238 21C10.9931 21 9.82306 20.7638 8.72775 20.2914C7.63243 19.8189 6.6797 19.1778 5.86954 18.368C5.05938 17.5581 4.41793 16.6058 3.9452 15.5109C3.47262 14.4161 3.23633 13.2463 3.23633 12.0017C3.23633 10.7568 3.47254 9.58674 3.94496 8.49142C4.41738 7.39611 5.05851 6.44337 5.86835 5.63321C6.6782 4.82305 7.63054 4.18161 8.72538 3.70887C9.82022 3.23629 10.99 3 12.2347 3C13.4795 3 14.6496 3.23621 15.7449 3.70863C16.8402 4.18105 17.793 4.82218 18.6031 5.63203C19.4133 6.44187 20.0547 7.39421 20.5275 8.48905C21 9.5839 21.2363 10.7537 21.2363 11.9983C21.2363 13.2432 21.0001 14.4133 20.5277 15.5086C20.0553 16.6039 19.4141 17.5566 18.6043 18.3668C17.7945 19.1769 16.8421 19.8184 15.7473 20.2911C14.6524 20.7637 13.4827 21 12.238 21ZM12.2363 16.5727C12.8617 15.9473 13.4165 15.3032 13.9006 14.6403C14.3154 14.0739 14.6959 13.4495 15.042 12.7669C15.3881 12.0843 15.5611 11.4114 15.5611 10.7483C15.5611 9.83629 15.2355 9.05479 14.5844 8.40379C13.9332 7.75279 13.1505 7.42729 12.2361 7.42729C11.3217 7.42729 10.539 7.75279 9.88804 8.40379C9.23704 9.05495 8.91154 9.83771 8.91154 10.7521C8.91154 11.4127 9.08514 12.0838 9.43235 12.7655C9.77972 13.4471 10.1617 14.0731 10.5784 14.6434C11.0583 15.3042 11.6109 15.9473 12.2363 16.5727ZM12.2368 12C11.8904 12 11.5957 11.8787 11.3527 11.6362C11.1098 11.3937 10.9884 11.0991 10.9884 10.7526C10.9884 10.4061 11.1097 10.1114 11.3522 9.86842C11.5947 9.62558 11.8893 9.50416 12.2359 9.50416C12.5823 9.50416 12.877 9.62542 13.12 9.86795C13.3628 10.1105 13.4843 10.405 13.4843 10.7516C13.4843 11.098 13.363 11.3927 13.1205 11.6357C12.8779 11.8786 12.5834 12 12.2368 12Z" />
</svg>