<svg width="32" height="8" viewBox="0 0 32 8" fill="none" xmlns="http://www.w3.org/2000/svg">
  <path
    d="M7.29289 3.29289L4.70711 0.707107C4.31658 0.316583 3.68342 0.316582 3.29289 0.707106L0.707107 3.29289C0.316583 3.68342 0.316582 4.31658 0.707106 4.70711L3.29289 7.29289C3.68342 7.68342 4.31658 7.68342 4.70711 7.29289L7.29289 4.70711C7.68342 4.31658 7.68342 3.68342 7.29289 3.29289Z"
    fill="#E01A4F" />
  <path
    d="M15.2929 3.29289L12.7071 0.707107C12.3166 0.316582 11.6834 0.316582 11.2929 0.707106L8.70711 3.29289C8.31658 3.68342 8.31658 4.31658 8.70711 4.70711L11.2929 7.29289C11.6834 7.68342 12.3166 7.68342 12.7071 7.29289L15.2929 4.70711C15.6834 4.31658 15.6834 3.68342 15.2929 3.29289Z"
    fill="#E01A4F" />
  <path
    d="M23.2929 3.29289L20.7071 0.707107C20.3166 0.316583 19.6834 0.316582 19.2929 0.707106L16.7071 3.29289C16.3166 3.68342 16.3166 4.31658 16.7071 4.70711L19.2929 7.29289C19.6834 7.68342 20.3166 7.68342 20.7071 7.29289L23.2929 4.70711C23.6834 4.31658 23.6834 3.68342 23.2929 3.29289Z"
    fill="#E01A4F" />
  <path
    d="M31.2929 3.29289L28.7071 0.707107C28.3166 0.316582 27.6834 0.316582 27.2929 0.707106L24.7071 3.29289C24.3166 3.68342 24.3166 4.31658 24.7071 4.70711L27.2929 7.29289C27.6834 7.68342 28.3166 7.68342 28.7071 7.29289L31.2929 4.70711C31.6834 4.31658 31.6834 3.68342 31.2929 3.29289Z"
    fill="#E01A4F" />
</svg>