
<svg width="223" height="40" viewBox="0 0 223 40" xmlns="http://www.w3.org/2000/svg">
  <path
    d="M20 40C31.0457 40 40 31.0457 40 20C40 8.9543 31.0457 0 20 0C8.9543 0 0 8.9543 0 20C0 31.0457 8.9543 40 20 40Z"
    fill="url(#paint0_linear_3656_2061)"
  />
  <path
    d="M20.0001 35.5267C28.5753 35.5267 35.5269 28.5752 35.5269 20C35.5269 11.4248 28.5753 4.47325 20.0001 4.47325C11.4249 4.47325 4.47339 11.4248 4.47339 20C4.47339 28.5752 11.4249 35.5267 20.0001 35.5267Z"
    fill="url(#paint1_linear_3656_2061)"
  />
  <path
    fill-rule="evenodd"
    clip-rule="evenodd"
    d="M28.1387 25.3764C28.0646 26.0193 27.8424 26.5388 27.4464 26.8854C27.0504 27.232 26.5309 27.4049 25.8633 27.4049C25.3932 27.4049 24.9981 27.2814 24.6515 27.0583C24.3049 26.836 24.0332 26.5141 23.8357 26.0687C23.6381 25.648 23.5393 25.1532 23.5393 24.61V23.7942C23.5393 23.25 23.6381 22.7552 23.8357 22.3354C24.0332 21.9147 24.3057 21.569 24.6762 21.3459C25.0475 21.1236 25.4673 20.9993 25.9373 20.9993C26.605 20.9993 27.1244 21.1721 27.5204 21.5434C27.9164 21.89 28.1387 22.4086 28.1881 23.0269H27.6192C27.4957 21.9632 26.9269 21.4438 25.9126 21.4438C25.3438 21.4438 24.8984 21.666 24.5774 22.0867C24.2308 22.5074 24.0826 23.1009 24.0826 23.8427V24.6091C24.0826 25.3261 24.2555 25.895 24.5774 26.3157C24.8993 26.7363 25.3438 26.9586 25.888 26.9586C26.4321 26.9586 26.8528 26.8351 27.1244 26.5626C27.3961 26.291 27.5698 25.895 27.6439 25.3755H28.1387V25.3764ZM22.5004 24.535C22.5004 25.1039 22.4016 25.5986 22.204 26.044C22.0065 26.4647 21.734 26.8104 21.3635 27.0336C20.9922 27.2558 20.5724 27.3802 20.1024 27.3802C19.3853 27.3802 18.7918 27.1332 18.3464 26.6138C17.901 26.0943 17.6788 25.402 17.6788 24.5112V23.8682C17.6788 23.2994 17.7775 22.8046 17.9751 22.3592C18.1726 21.9138 18.4699 21.5928 18.8156 21.345C19.1869 21.1227 19.6067 20.9984 20.0768 20.9984C20.5469 20.9984 20.9667 21.1219 21.338 21.345C21.7093 21.5672 21.9809 21.8891 22.1785 22.3098C22.376 22.7305 22.4748 23.2253 22.5004 23.7686V24.535ZM21.9809 23.8674C21.9809 23.1256 21.808 22.5321 21.4614 22.1114C21.1148 21.6907 20.6703 21.4685 20.0768 21.4685C19.4832 21.4685 19.0378 21.6907 18.6921 22.1114C18.3455 22.5321 18.1726 23.1256 18.1726 23.8921V24.535C18.1726 25.2767 18.3455 25.8456 18.6921 26.291C19.0387 26.7117 19.5079 26.9339 20.0768 26.9339C20.6456 26.9339 21.1404 26.7117 21.4614 26.291C21.7834 25.8703 21.9562 25.2767 21.9562 24.5103L21.9809 23.8674ZM16.3426 25.7715C16.3426 25.4249 16.2191 25.1532 15.9713 24.9557C15.7243 24.7581 15.279 24.5597 14.636 24.3868C13.9931 24.214 13.523 24.0155 13.2267 23.7933C12.806 23.4969 12.5837 23.1009 12.5837 22.6062C12.5837 22.1114 12.7813 21.741 13.1773 21.4438C13.5733 21.1474 14.0672 20.9984 14.6863 20.9984C15.107 20.9984 15.4774 21.0725 15.7993 21.2453C16.1212 21.3935 16.3682 21.6166 16.5657 21.913C16.7386 22.1846 16.8374 22.5065 16.8374 22.8531H16.3179C16.3179 22.4324 16.1697 22.0867 15.8725 21.8389C15.5753 21.591 15.2049 21.4429 14.7101 21.4429C14.2153 21.4429 13.8696 21.5417 13.5724 21.7648C13.3007 21.987 13.1517 22.2596 13.1517 22.6053C13.1517 22.9272 13.2752 23.1741 13.523 23.3717C13.7699 23.5693 14.1906 23.743 14.7348 23.8912C15.3037 24.0393 15.7243 24.2131 15.996 24.3613C16.2923 24.5341 16.4908 24.7326 16.6389 24.9548C16.7871 25.1771 16.8612 25.4496 16.8612 25.7706C16.8612 26.2654 16.6636 26.6605 16.2676 26.9577C15.8716 27.2541 15.3522 27.4031 14.7339 27.4031C14.2885 27.4031 13.8934 27.329 13.5221 27.1809C13.1508 27.0327 12.8792 26.8096 12.6816 26.5132C12.4841 26.2416 12.41 25.9197 12.41 25.5484H12.9294C12.9294 25.9937 13.1023 26.3395 13.4242 26.5873C13.7461 26.8342 14.1906 26.9586 14.7348 26.9586C15.2296 26.9586 15.6 26.8598 15.8972 26.6367C16.1935 26.4144 16.3426 26.1419 16.3426 25.7715ZM30.6866 15.4835H27.8671L27.2241 17.2395H26.6799L29.0295 11.0323H29.5242L31.8738 17.2395H31.3296L30.6866 15.4835ZM28.0399 15.0382H30.5376L29.3011 11.6497L28.0399 15.0382ZM23.168 14.6924V17.2148H22.6485V11.0323H24.7511C25.3941 11.0323 25.9135 11.2052 26.2848 11.5271C26.6561 11.849 26.8537 12.3182 26.8537 12.8871C26.8537 13.4559 26.6808 13.926 26.3095 14.247C25.9382 14.569 25.4196 14.7171 24.7511 14.7171H23.168V14.6924ZM23.168 14.247H24.7511C25.2706 14.247 25.641 14.1236 25.9135 13.8757C26.1852 13.6288 26.3095 13.3069 26.3095 12.8615C26.3095 12.4408 26.1861 12.0951 25.9135 11.8226C25.6419 11.5756 25.2706 11.4266 24.7758 11.4266H23.168V14.2462V14.247ZM21.4614 15.286C21.3874 15.9289 21.1651 16.4484 20.7691 16.795C20.3731 17.1416 19.8536 17.3145 19.186 17.3145C18.7159 17.3145 18.3208 17.191 17.9742 16.9679C17.6276 16.7456 17.356 16.4237 17.1584 15.9783C16.9608 15.5576 16.8621 15.0628 16.8621 14.5196V13.7038C16.8621 13.1596 16.9608 12.6648 17.1584 12.245C17.356 11.8243 17.6285 11.4786 17.9989 11.2555C18.3702 11.0332 18.79 10.9089 19.2601 10.9089C19.9277 10.9089 20.4472 11.0817 20.8432 11.453C21.2392 11.7996 21.4614 12.3182 21.5108 12.9365H20.9914C20.8679 11.8728 20.299 11.3534 19.2848 11.3534C18.7159 11.3534 18.2705 11.5756 17.9495 11.9963C17.6029 12.417 17.4547 13.0105 17.4547 13.7523V14.5187C17.4547 15.2357 17.6276 15.8046 17.9495 16.2253C18.2714 16.6459 18.7159 16.8682 19.2601 16.8682C19.8043 16.8682 20.2249 16.7447 20.4966 16.4722C20.7682 16.2006 20.942 15.8046 21.0161 15.2851H21.4614V15.286ZM14.9324 17.2395H15.4518V11.0323H14.9324V17.2395ZM12.806 15.4835H9.98638L9.34344 17.2395H8.79927L11.1488 11.0323H11.6436L13.9931 17.2395H13.4489L12.806 15.4835ZM10.1592 15.0382H12.6569L11.4204 11.6497L10.1592 15.0382ZM37.2651 14.569C37.2157 14.569 37.191 14.5936 37.191 14.643C37.191 14.6924 37.1663 14.7418 37.191 14.8159V15.0135C37.1663 15.1369 37.117 15.211 37.0182 15.2357C36.9441 15.2604 36.8453 15.2357 36.7712 15.1863C36.6971 15.1369 36.6478 15.0382 36.5984 14.9394C36.5737 14.8159 36.5737 14.7171 36.5984 14.6175C36.6231 14.5178 36.6971 14.4693 36.7959 14.4446L36.87 14.6669C36.8206 14.6669 36.7959 14.7162 36.7712 14.7409C36.7465 14.7903 36.7465 14.815 36.7712 14.8891C36.7959 14.9385 36.8206 14.9632 36.8453 14.9879C36.87 15.0126 36.9194 15.0126 36.9441 15.0126C36.9688 15.0126 36.9935 14.9879 37.0182 14.9385V14.5178C37.0182 14.4684 37.0429 14.419 37.0923 14.3696C37.117 14.3202 37.1663 14.2956 37.2157 14.2956C37.3145 14.2709 37.3886 14.2955 37.4627 14.3449C37.5368 14.3943 37.5861 14.4931 37.6355 14.6166C37.6602 14.6907 37.6602 14.7647 37.6602 14.8388C37.6602 14.9129 37.6355 14.9623 37.5861 15.0117C37.5368 15.0611 37.4874 15.0858 37.438 15.1105L37.3639 14.8882C37.4133 14.8635 37.438 14.8388 37.4627 14.7894C37.4874 14.7401 37.4874 14.6907 37.4627 14.6413C37.438 14.5919 37.4133 14.5425 37.3886 14.5178C37.3392 14.5425 37.2898 14.5425 37.2651 14.5672M36.9185 16.1512L37.0173 16.1265C36.9185 16.0771 36.8444 15.9783 36.8197 15.8548C36.7703 15.6573 36.8691 15.5082 37.1161 15.4588L37.7837 15.3107L37.8331 15.5329L37.1902 15.6811C37.1161 15.7058 37.0914 15.7305 37.0667 15.7552C37.042 15.7799 37.042 15.8293 37.042 15.9033C37.0667 16.0021 37.1161 16.0515 37.2148 16.0762L37.9319 15.9033L37.9813 16.1256L36.967 16.3478L36.9176 16.1503L36.9185 16.1512ZM37.6602 17.4124C37.5615 17.4371 37.4627 17.4124 37.3886 17.3877C37.3145 17.363 37.2404 17.3136 37.1663 17.2642C37.117 17.1901 37.0676 17.116 37.0676 17.0173C37.0429 16.8691 37.0676 16.7703 37.1416 16.6706C37.2157 16.571 37.3145 16.4978 37.4636 16.4731H37.5129C37.6117 16.4484 37.7105 16.4484 37.7846 16.4978C37.8587 16.5225 37.9328 16.5719 38.0068 16.6213C38.0562 16.6953 38.1056 16.7694 38.1056 16.8682C38.1303 17.0164 38.1056 17.1398 38.0315 17.2395C37.9328 17.3136 37.834 17.3877 37.6602 17.4124ZM37.6355 17.1901C37.7343 17.1654 37.8084 17.1407 37.8578 17.0913C37.9072 17.0419 37.9319 16.9679 37.9072 16.8938C37.9072 16.8197 37.8578 16.7703 37.7837 16.7209C37.7096 16.6962 37.6355 16.6715 37.5121 16.6962C37.4133 16.7209 37.3392 16.7456 37.2898 16.795C37.2404 16.8444 37.2157 16.9185 37.2404 16.9926C37.2404 17.0666 37.2898 17.116 37.3639 17.1654C37.438 17.1901 37.5121 17.1901 37.6355 17.1901ZM36.9432 17.9812C36.9185 17.9812 36.8691 17.9812 36.8444 17.9565C36.8197 17.9318 36.795 17.9071 36.795 17.8577C36.795 17.8084 36.795 17.7837 36.8197 17.759C36.8444 17.7343 36.8691 17.7096 36.8938 17.7096C36.9185 17.7096 36.9679 17.7096 36.9926 17.7343C37.0173 17.759 37.042 17.7837 37.042 17.8331C37.042 17.8824 37.042 17.9071 37.0173 17.9318C36.9926 17.9565 36.9679 17.9565 36.9432 17.9812ZM38.2044 17.5861L38.2291 17.8084L37.2148 17.9318L37.1902 17.7096L38.2044 17.5861ZM36.9926 18.3031L37.2395 18.2784L37.2148 18.1056L37.3877 18.0809L37.4124 18.2537L37.9813 18.2044C38.0307 18.2044 38.0553 18.1797 38.0553 18.1797C38.08 18.155 38.08 18.1303 38.08 18.1056C38.08 18.0809 38.08 18.0562 38.0553 18.0315L38.2282 18.0068C38.2529 18.0562 38.2529 18.1056 38.2529 18.155C38.2776 18.3278 38.1788 18.4266 37.9813 18.4513L37.4124 18.5007L37.4371 18.6736L37.2642 18.6982L37.2395 18.5254L36.9926 18.5501V18.3031ZM38.3279 18.9708C38.3032 18.9955 38.2538 18.9955 38.2291 18.9955C38.3032 19.0696 38.3526 19.1436 38.3526 19.2671C38.3526 19.3659 38.3279 19.4647 38.2785 19.5141C38.2291 19.5881 38.155 19.6128 38.0562 19.6128C37.9574 19.6128 37.8587 19.5881 37.8093 19.4894C37.7599 19.4153 37.7105 19.2918 37.7105 19.1428V18.9946H37.6364C37.587 18.9946 37.5376 19.0193 37.5129 19.044C37.4883 19.0687 37.4636 19.1181 37.4636 19.1921C37.4636 19.2415 37.4883 19.2909 37.5129 19.3156C37.5376 19.3403 37.5623 19.365 37.6117 19.365V19.5873C37.5623 19.5873 37.4883 19.5626 37.4636 19.5379C37.4142 19.4885 37.3648 19.4391 37.3401 19.3897C37.3154 19.3156 37.2907 19.2415 37.2907 19.1674C37.2907 19.044 37.3154 18.9452 37.3648 18.8711C37.4142 18.797 37.5129 18.7476 37.6117 18.7476L38.0818 18.7229C38.1806 18.7229 38.2547 18.6982 38.3041 18.6736H38.3288V18.9699L38.3279 18.9708ZM38.155 19.2424C38.155 19.193 38.1303 19.1436 38.1056 19.1189C38.0809 19.0696 38.0562 19.0449 38.0068 19.0202H37.8093V19.1436C37.8093 19.2177 37.834 19.2918 37.8587 19.3412C37.8834 19.3906 37.9328 19.3906 37.9821 19.3906C38.0315 19.3906 38.0562 19.3659 38.0809 19.3412C38.155 19.3165 38.155 19.2918 38.155 19.2424ZM38.155 20.3554V19.8113H38.3279L38.3032 20.6518H38.155L37.4627 20.1076V20.6271H37.2651L37.2898 19.8113H37.438L38.155 20.3554ZM36.9926 21.0725C36.9679 21.0725 36.9185 21.0478 36.9185 21.0231C36.8938 20.9984 36.8938 20.9737 36.8938 20.9243C36.8938 20.8749 36.9185 20.8502 36.9432 20.8255C36.9679 20.8008 36.9926 20.8008 37.042 20.8008C37.0667 20.8008 37.1161 20.8255 37.1161 20.8502C37.1408 20.8749 37.1408 20.8996 37.1408 20.949C37.1408 20.9984 37.1161 21.0231 37.0914 21.0478C37.0667 21.0478 37.042 21.0725 36.9926 21.0725ZM38.3032 20.8996L38.2785 21.1219L37.2642 21.0725L37.2889 20.8502L38.3032 20.8996ZM37.191 21.9385H37.3145C37.2404 21.8645 37.191 21.741 37.2157 21.6166C37.2404 21.3944 37.3639 21.3203 37.6117 21.3203L38.2794 21.3944L38.2547 21.6166L37.587 21.5425C37.5129 21.5425 37.4636 21.5425 37.4389 21.5672C37.4142 21.5919 37.3895 21.6413 37.3895 21.6907C37.3895 21.7895 37.4142 21.8636 37.4883 21.913L38.2053 21.987L38.1806 22.2093L37.1663 22.1105L37.191 21.9377V21.9385ZM38.1303 22.7543H38.0315C38.1056 22.8284 38.1056 22.9272 38.1056 23.0507C38.0809 23.1495 38.0562 23.2235 37.9821 23.2729C37.9081 23.3223 37.834 23.347 37.7599 23.3223C37.6611 23.2976 37.587 23.2482 37.5376 23.1495C37.4883 23.0507 37.4883 22.9519 37.5129 22.7782L37.5376 22.63H37.4636C37.4142 22.63 37.3648 22.63 37.3401 22.6547C37.3154 22.6794 37.2907 22.7288 37.266 22.7782C37.266 22.8275 37.266 22.8769 37.2907 22.9016C37.3154 22.951 37.3401 22.951 37.3895 22.9757L37.3401 23.198C37.2907 23.198 37.2413 23.1486 37.1919 23.1239C37.1425 23.0745 37.1178 23.0251 37.0931 22.951C37.0684 22.8769 37.0684 22.8028 37.0931 22.7288C37.1178 22.6053 37.1672 22.5312 37.2413 22.4571C37.3154 22.4077 37.4142 22.383 37.5129 22.383L37.983 22.4571C38.0818 22.4818 38.1559 22.4818 38.2053 22.4571H38.23L38.1312 22.7535L38.1303 22.7543ZM37.9081 22.9775V22.854C37.8834 22.8046 37.8587 22.7799 37.834 22.7552L37.6364 22.7305L37.6117 22.854C37.587 22.9281 37.6117 23.0022 37.6117 23.0516C37.6364 23.1009 37.6611 23.1256 37.7352 23.1256C37.7846 23.1256 37.8093 23.1256 37.8587 23.1009C37.8834 23.0516 37.9081 23.0269 37.9081 22.9775ZM37.2404 24.4115C37.0923 24.3868 36.9688 24.3127 36.8938 24.214C36.8197 24.1152 36.795 24.0164 36.8197 23.8921C36.8444 23.7686 36.9185 23.6945 36.9926 23.6451L36.8938 23.6204L36.9432 23.4229L37.9081 23.6451C38.0315 23.6698 38.1303 23.7439 38.1797 23.8427C38.2291 23.9414 38.2538 24.0649 38.2044 24.1893C38.1797 24.2634 38.155 24.3374 38.1056 24.3868C38.0562 24.4609 38.0068 24.4856 37.9574 24.5103L37.8587 24.3621C37.9575 24.3127 38.0068 24.2387 38.0315 24.1399C38.0562 24.0658 38.0315 23.9917 38.0068 23.9423C37.9821 23.8929 37.9328 23.8436 37.834 23.8436L37.7599 23.8189C37.8093 23.8929 37.834 23.9917 37.8093 24.1152C37.7846 24.2387 37.7105 24.3127 37.6117 24.3621C37.5376 24.4362 37.4142 24.4362 37.2404 24.4115ZM37.3145 24.1893C37.4133 24.214 37.4874 24.214 37.5615 24.1893C37.6355 24.1646 37.6849 24.1152 37.6849 24.0411C37.7096 23.9423 37.6849 23.8682 37.6108 23.8189L37.1655 23.7201C37.0914 23.7448 37.0173 23.7942 36.9926 23.8929C36.9679 23.967 36.9926 24.0411 37.042 24.0905C37.1161 24.1152 37.2148 24.1646 37.3136 24.1893M36.9185 24.4362C36.8938 24.4609 36.8938 24.4856 36.8938 24.535C36.8691 24.6338 36.8938 24.7079 36.9432 24.7819L37.6108 24.9795L37.5368 25.2018L36.5472 24.9054L36.5966 24.6832L36.7201 24.7079C36.646 24.6338 36.6213 24.535 36.646 24.4362C36.646 24.4115 36.6707 24.3868 36.6707 24.3621L36.9176 24.4362H36.9185ZM36.8691 25.2273C36.9926 25.2767 37.0914 25.3261 37.191 25.4002C37.2651 25.4743 37.3145 25.5731 37.3392 25.6718C37.3639 25.7706 37.3639 25.8694 37.3145 25.9937C37.2898 26.0925 37.2157 26.1913 37.1416 26.2407C37.0676 26.3148 36.9688 26.3395 36.8453 26.3642C36.7218 26.3642 36.6231 26.3642 36.4987 26.3148L36.4246 26.2901C36.3011 26.2407 36.2024 26.1913 36.1027 26.0925C36.0286 26.0184 35.9792 25.9197 35.9545 25.8209C35.9298 25.7221 35.9298 25.6233 35.9792 25.499C36.0286 25.4002 36.078 25.3014 36.1521 25.252C36.2262 25.1779 36.325 25.1532 36.4484 25.1286C36.5719 25.1286 36.6707 25.1286 36.8197 25.1779L36.8691 25.2273ZM36.721 25.4258C36.5728 25.3764 36.4493 25.3517 36.3497 25.4011C36.2509 25.4258 36.1768 25.4999 36.1521 25.5986C36.1274 25.6974 36.1274 25.7962 36.1768 25.8703C36.2262 25.9444 36.325 26.0184 36.4731 26.0678L36.5472 26.0925C36.6954 26.1419 36.8189 26.1419 36.9185 26.1172C37.0173 26.0925 37.0914 26.0184 37.1161 25.9197C37.1408 25.8209 37.1408 25.7221 37.0914 25.648C37.042 25.5739 36.9432 25.4999 36.795 25.4505L36.721 25.4258ZM36.6716 27.5768C36.6222 27.7003 36.5234 27.7991 36.3999 27.8485C36.2765 27.8979 36.153 27.8732 36.0039 27.8238H35.9792C35.8805 27.7744 35.8064 27.725 35.757 27.6509C35.7076 27.5768 35.6582 27.5028 35.6582 27.4287C35.6582 27.3546 35.6582 27.2558 35.7076 27.1817C35.757 27.0583 35.8558 26.9842 35.9545 26.9348C36.078 26.9101 36.2015 26.9101 36.3505 26.9842L36.4246 27.0336L36.1283 27.6518C36.2024 27.6765 36.2765 27.6765 36.3505 27.6518C36.4246 27.6271 36.474 27.5777 36.4987 27.5036C36.5481 27.4049 36.5481 27.3061 36.4987 27.2073L36.6469 27.1332C36.6963 27.2073 36.6963 27.2567 36.6963 27.3308C36.721 27.4296 36.6963 27.5036 36.6716 27.5777M35.8549 27.2311C35.8302 27.2805 35.8302 27.3299 35.8549 27.404C35.8796 27.4534 35.929 27.5028 36.003 27.5522L36.2006 27.1562H36.1759C36.1018 27.1315 36.0524 27.1315 36.003 27.1315C35.929 27.1315 35.8796 27.1809 35.8549 27.2302M36.0039 28.4676C36.0286 28.4182 36.0286 28.3688 36.0286 28.3195C36.0286 28.2701 35.9792 28.2207 35.9545 28.196L36.0533 27.9984C36.1027 28.0231 36.1521 28.0725 36.1768 28.1466C36.2015 28.196 36.2262 28.2701 36.2262 28.3441C36.2262 28.4182 36.2015 28.4923 36.1768 28.5417C36.1027 28.6652 36.0039 28.7393 35.8805 28.764C35.757 28.7887 35.6335 28.764 35.4845 28.6899H35.4598C35.3116 28.6158 35.2375 28.517 35.1881 28.3935C35.1387 28.2701 35.1634 28.1466 35.2375 28.0222C35.2869 27.9235 35.3857 27.8494 35.4845 27.8C35.5832 27.7753 35.682 27.7753 35.7808 27.8247L35.682 28.0222C35.6326 27.9975 35.5832 27.9975 35.5338 27.9975C35.4845 28.0222 35.4351 28.0469 35.4104 28.0963C35.3857 28.1704 35.361 28.2198 35.4104 28.2939C35.4351 28.3433 35.5092 28.4173 35.6079 28.4667L35.6326 28.4914C35.7314 28.5408 35.8055 28.5655 35.8796 28.5655C35.929 28.5902 35.9784 28.5408 36.003 28.4667M34.569 28.7146C34.5443 28.6899 34.5196 28.6652 34.5196 28.6405C34.5196 28.6158 34.5196 28.5664 34.5443 28.5417L34.6184 28.4676C34.6431 28.4676 34.6925 28.4676 34.7172 28.4923C34.7419 28.517 34.7666 28.5417 34.7666 28.5664C34.7666 28.5911 34.7666 28.6405 34.7419 28.6652L34.6678 28.7393C34.6431 28.7393 34.5937 28.7393 34.569 28.7146ZM35.8055 29.1846L35.682 29.3822L34.7921 28.8627L34.9156 28.6652L35.8055 29.1846ZM35.0885 29.7782L34.5937 29.1846L34.7172 28.9871L35.3848 29.8523L35.286 30.0251L34.2224 29.7535L34.3459 29.5559L35.0876 29.7782H35.0885ZM34.3714 29.9264C34.3467 29.9511 34.322 29.9758 34.322 30.0005C34.248 30.0745 34.248 30.1733 34.2974 30.2474L34.8662 30.6681L34.7427 30.8656L33.9022 30.2721L34.0257 30.0992L34.1245 30.1733C34.0751 30.0745 34.0998 29.9758 34.1492 29.9017C34.1739 29.877 34.1739 29.8523 34.1986 29.8523L34.3714 29.9264ZM34.3467 31.3613C34.248 31.4848 34.1492 31.5342 34.0248 31.5589C33.9005 31.5835 33.7779 31.5342 33.6535 31.4354L33.6288 31.4107C33.5548 31.3613 33.5054 31.2872 33.456 31.1884C33.4066 31.1144 33.4066 31.0156 33.4066 30.9415C33.4066 30.8674 33.456 30.7933 33.5054 30.7192C33.6041 30.6205 33.7029 30.5464 33.8017 30.5464C33.9252 30.5464 34.0486 30.5958 34.173 30.6945L34.2471 30.7439L33.8264 31.2634C33.9005 31.3128 33.9746 31.3375 34.0486 31.3128C34.1227 31.3128 34.1721 31.2634 34.2215 31.214C34.2956 31.1399 34.3203 31.0412 34.2956 30.9424L34.4685 30.9177C34.4931 30.9918 34.4931 31.0658 34.4685 31.1399C34.4191 31.214 34.3944 31.2881 34.345 31.3622M33.6297 30.8171C33.5803 30.8665 33.5803 30.9159 33.5803 30.99C33.5803 31.0394 33.6297 31.1135 33.6791 31.1629L33.9507 30.8163H33.9261C33.852 30.7669 33.8026 30.7422 33.7532 30.7669C33.7285 30.7422 33.6791 30.7669 33.6297 30.8163M33.456 31.8058C33.4066 31.7564 33.3572 31.7564 33.3078 31.7564C33.2584 31.7564 33.1843 31.8058 33.0856 31.8552C32.9868 31.9046 32.888 31.954 32.8139 31.9787C32.6657 32.0281 32.5423 32.0034 32.4673 31.9046C32.3932 31.8305 32.3438 31.7317 32.3685 31.6082C32.3685 31.4848 32.4179 31.386 32.5167 31.2616C32.5908 31.1876 32.6649 31.1382 32.7389 31.1135C32.813 31.0888 32.8871 31.0641 32.9612 31.0888C33.0353 31.1135 33.1094 31.1382 33.1588 31.1876L32.9859 31.3604C32.9365 31.311 32.8871 31.2863 32.813 31.2863C32.7636 31.2863 32.6896 31.3357 32.6402 31.3851C32.5908 31.4345 32.5661 31.5086 32.5661 31.558C32.5661 31.6074 32.5908 31.6568 32.6155 31.7061C32.6649 31.7308 32.6896 31.7555 32.7636 31.7308C32.813 31.7308 32.8871 31.6814 32.9859 31.6321C33.0847 31.5827 33.1588 31.5333 33.2328 31.5086C33.3069 31.4839 33.381 31.4839 33.4304 31.5086C33.4798 31.5333 33.5539 31.558 33.6033 31.6074C33.6773 31.6814 33.7267 31.7802 33.7267 31.879C33.7267 32.0025 33.6526 32.1013 33.5539 32.2256C33.4798 32.2997 33.4057 32.3491 33.3316 32.3985C33.2575 32.4232 33.1588 32.4479 33.0847 32.4479C33.0106 32.4479 32.9365 32.3985 32.8624 32.3491L33.0353 32.1762C33.0847 32.2256 33.1588 32.2503 33.2328 32.2503C33.3069 32.2503 33.3563 32.2009 33.4304 32.1268C33.4798 32.0774 33.5045 32.0034 33.5292 31.954C33.5045 31.9046 33.5045 31.8552 33.4551 31.8058M32.4426 33.7108L32.3685 33.7849L31.2802 32.5731L31.3543 32.499L32.4426 33.7108ZM30.9336 34.2788C30.9089 34.2294 30.8595 34.2047 30.8101 34.2047C30.7607 34.2047 30.6866 34.2294 30.5879 34.2541C30.5138 34.3035 30.4397 34.3282 30.3656 34.3282H30.2174C30.1681 34.3035 30.1434 34.2788 30.1187 34.2541C30.0693 34.18 30.0693 34.1059 30.0693 34.0318C30.094 33.9578 30.1434 33.8837 30.2421 33.8096C30.3409 33.7355 30.415 33.7108 30.5138 33.7108C30.6126 33.7108 30.6866 33.7602 30.736 33.8343L30.6373 33.9084C30.6126 33.859 30.5385 33.8343 30.4891 33.8343C30.415 33.8343 30.3656 33.859 30.2915 33.9084C30.2421 33.9578 30.1928 34.0072 30.1681 34.0565C30.1434 34.1059 30.1681 34.1553 30.1928 34.2047C30.2174 34.2541 30.2668 34.2788 30.3162 34.2788C30.3656 34.2788 30.4397 34.2541 30.5385 34.2294C30.6373 34.18 30.7113 34.1553 30.7607 34.1553H30.9089C30.9583 34.18 30.983 34.2047 31.0077 34.2541C31.0571 34.3282 31.0818 34.4023 31.0571 34.4764C31.0324 34.5504 30.983 34.6245 30.8842 34.6986C30.7854 34.7727 30.6866 34.7974 30.5879 34.7974C30.4891 34.7974 30.415 34.748 30.3656 34.6986L30.4644 34.6245C30.5138 34.6739 30.5632 34.6986 30.6126 34.6986C30.6866 34.6986 30.736 34.6739 30.8101 34.6245C30.8842 34.5751 30.9089 34.5257 30.9336 34.4764C30.983 34.3529 30.9583 34.3035 30.9336 34.2788ZM29.2023 34.5513L29.3011 34.6995C29.3011 34.6254 29.3011 34.5513 29.3505 34.5019C29.3752 34.4525 29.4246 34.4031 29.474 34.3538C29.5727 34.3044 29.6468 34.2797 29.7209 34.3044C29.795 34.3291 29.8691 34.3785 29.9432 34.5019L30.3145 35.0708L30.2157 35.1202L29.8444 34.5513C29.795 34.4772 29.7456 34.4278 29.6715 34.4031C29.6221 34.3785 29.548 34.4031 29.474 34.4525C29.4246 34.5019 29.3752 34.5513 29.3505 34.6007C29.3258 34.6748 29.3258 34.7489 29.3505 34.823L29.7465 35.4165L29.6477 35.4659L29.0788 34.6007L29.2023 34.5513ZM28.3618 35.6149C28.3124 35.5409 28.2877 35.4421 28.2877 35.3433C28.2877 35.2445 28.2877 35.1704 28.3371 35.0964C28.3865 35.0223 28.4359 34.9729 28.51 34.9235C28.6335 34.8494 28.7569 34.8494 28.8813 34.8741C29.0048 34.9235 29.1035 34.9976 29.1776 35.1458V35.1704C29.227 35.2445 29.2517 35.3433 29.2517 35.4421C29.2517 35.5162 29.2517 35.6149 29.2023 35.689C29.1529 35.7631 29.1035 35.8125 29.0295 35.8619C28.906 35.936 28.7825 35.936 28.6582 35.9113C28.5347 35.8619 28.4359 35.7631 28.3618 35.6149ZM28.4606 35.5903C28.51 35.689 28.6088 35.7631 28.6829 35.8125C28.7816 35.8619 28.8804 35.8372 28.9545 35.7878C29.0533 35.7384 29.1027 35.6643 29.1027 35.5656C29.1274 35.4668 29.1027 35.368 29.0286 35.2436V35.219C28.9792 35.1449 28.9298 35.0955 28.8804 35.0461C28.831 34.9967 28.7569 34.972 28.7075 34.972C28.6335 34.972 28.5841 34.972 28.5347 35.0214C28.4359 35.0708 28.3865 35.1449 28.3865 35.2436C28.3865 35.3424 28.3865 35.4412 28.4606 35.5903ZM27.6448 35.0708V35.0214C27.6448 34.9967 27.6695 34.9967 27.6942 34.972C27.7189 34.972 27.7436 34.9473 27.7436 34.972C27.7683 34.972 27.7683 34.9967 27.793 35.0214V35.0708C27.793 35.0955 27.7683 35.0955 27.7436 35.1202C27.7189 35.1202 27.6942 35.1449 27.6942 35.1202C27.6695 35.1202 27.6448 35.0955 27.6448 35.0708ZM28.3618 36.2085L28.263 36.2579L27.793 35.3424L27.8917 35.293L28.3618 36.2085ZM27.2735 35.293L27.397 35.54L27.5945 35.4412L27.6439 35.5153L27.4464 35.6141L27.7427 36.2323C27.7674 36.2817 27.7921 36.3064 27.8168 36.3311C27.8415 36.3558 27.8909 36.3558 27.9156 36.3311C27.9403 36.3311 27.9649 36.3064 27.9896 36.2817L28.039 36.3558C28.0143 36.3805 27.9649 36.4052 27.9403 36.4299C27.8662 36.4546 27.8168 36.4546 27.7674 36.4299C27.718 36.4052 27.6686 36.3558 27.6439 36.2817L27.3476 35.6635L27.1747 35.7375L27.1253 35.6635L27.2982 35.5894L27.1747 35.3424L27.2735 35.293ZM27.2735 36.728C27.2488 36.7033 27.2241 36.6539 27.1994 36.6045C27.1747 36.6786 27.15 36.728 27.1006 36.7774C27.0512 36.8267 27.0019 36.8761 26.9278 36.9008C26.829 36.9502 26.7549 36.9502 26.6808 36.9255C26.6067 36.9008 26.5574 36.8514 26.508 36.7774C26.4586 36.6786 26.4833 36.6045 26.5327 36.5057C26.582 36.4316 26.6808 36.3575 26.829 36.2835L27.0266 36.2094L26.9772 36.1106C26.9525 36.0365 26.9031 35.9871 26.8537 35.9871C26.8043 35.9624 26.7302 35.9624 26.6561 36.0118C26.582 36.0365 26.5327 36.0859 26.508 36.1353C26.4833 36.1847 26.4586 36.2588 26.4833 36.3082L26.3845 36.3575C26.3598 36.2835 26.3598 36.2094 26.4092 36.1106C26.4586 36.0365 26.5327 35.9624 26.6314 35.913C26.7302 35.8637 26.829 35.8637 26.9031 35.8884C26.9772 35.913 27.0512 35.9871 27.1006 36.0612L27.2982 36.5066C27.3476 36.6054 27.3723 36.6548 27.4217 36.7042L27.2735 36.7289V36.728ZM26.9022 36.7774C26.9763 36.7527 27.0257 36.7033 27.0751 36.6539C27.1244 36.6045 27.1491 36.5304 27.1491 36.4563L27.0751 36.2588L26.8775 36.3329C26.7787 36.3822 26.7046 36.4316 26.6553 36.481C26.6059 36.5304 26.6059 36.6045 26.6306 36.6786C26.6553 36.728 26.6799 36.7774 26.754 36.7774C26.7787 36.8021 26.8281 36.8021 26.9022 36.7774ZM25.7645 37.1972L26.4074 36.9749L26.4321 37.0737L25.6657 37.3453L25.641 37.2713L25.9629 36.257L25.3941 36.4546L25.3694 36.3558L26.0864 36.1088L26.1111 36.1829L25.7645 37.1972ZM24.8746 36.1838V36.1344C24.8746 36.1097 24.8993 36.1097 24.924 36.085H24.9734C24.9981 36.085 24.9981 36.1097 24.9981 36.1344V36.1838C24.9981 36.2085 24.9734 36.2085 24.9487 36.2332H24.8993C24.8993 36.2085 24.8993 36.1838 24.8746 36.1838ZM25.3941 37.3956L25.2953 37.4203L24.9989 36.4308L25.0977 36.4061L25.3941 37.3956ZM24.0588 36.7033L24.1082 36.8761C24.1329 36.8021 24.1576 36.7527 24.207 36.7033C24.2563 36.6539 24.3057 36.6292 24.3798 36.6045C24.4786 36.5798 24.5774 36.5798 24.6515 36.6292C24.7255 36.6786 24.7749 36.7527 24.7996 36.8761L24.9725 37.5191L24.8737 37.5438L24.7008 36.9008C24.6762 36.8021 24.6515 36.7527 24.6021 36.728C24.5527 36.7033 24.4786 36.6786 24.4045 36.7033C24.3304 36.728 24.281 36.7527 24.2316 36.8021C24.1823 36.8514 24.1576 36.9255 24.1576 36.9996L24.3304 37.6919L24.2316 37.7166L23.9847 36.7271L24.0588 36.7024V36.7033ZM23.7616 37.8154C23.7369 37.7907 23.7369 37.7413 23.7122 37.6672C23.6875 37.7166 23.6381 37.766 23.5887 37.8154C23.5393 37.8648 23.4652 37.8895 23.4158 37.8895C23.3171 37.9142 23.243 37.8895 23.1689 37.8648C23.0948 37.8154 23.0454 37.766 23.0454 37.6672C23.0207 37.5685 23.0454 37.4944 23.1195 37.4203C23.1936 37.3462 23.2924 37.2968 23.4414 37.2721L23.639 37.2227L23.6143 37.0993C23.5896 37.0252 23.5649 36.9758 23.5155 36.9511C23.4661 36.9264 23.392 36.9017 23.3179 36.9264C23.2439 36.9511 23.1698 36.9758 23.1451 37.0252C23.0957 37.0746 23.0957 37.124 23.0957 37.1734L22.9722 37.198C22.9475 37.124 22.9722 37.0499 23.0463 36.9758C23.1204 36.9017 23.1945 36.8523 23.2933 36.8276C23.4167 36.8029 23.4908 36.8276 23.5649 36.8523C23.639 36.9017 23.6884 36.9758 23.7131 37.0746L23.8118 37.5447C23.8365 37.6434 23.8612 37.7175 23.8859 37.7669L23.7624 37.8163L23.7616 37.8154ZM23.3903 37.8154C23.4643 37.7907 23.5384 37.766 23.5878 37.7166C23.6372 37.6672 23.6619 37.6179 23.6866 37.5438L23.6372 37.3215L23.4397 37.3709C23.3409 37.3956 23.2421 37.4203 23.1927 37.4944C23.1433 37.5438 23.1186 37.6179 23.1186 37.6672C23.1186 37.7166 23.168 37.766 23.2174 37.7907C23.2668 37.8154 23.3409 37.8154 23.3903 37.8154ZM21.8821 37.5932C21.8574 37.445 21.8821 37.2968 21.9315 37.1972C21.9809 37.0984 22.0797 37.0243 22.2032 37.0243C22.3513 36.9996 22.4501 37.049 22.5498 37.1478L22.5251 36.9996L22.6239 36.9749L22.7473 37.9645C22.772 38.0879 22.7473 38.2114 22.6732 38.2864C22.5992 38.3605 22.5251 38.4345 22.4016 38.4345C22.3275 38.4345 22.2534 38.4345 22.204 38.4099C22.13 38.3852 22.0806 38.3605 22.0312 38.3111L22.0806 38.237C22.1793 38.3358 22.2781 38.3605 22.3769 38.3358C22.4757 38.3358 22.5498 38.2864 22.5745 38.2123C22.6239 38.1382 22.6485 38.0641 22.6239 37.9653L22.5992 37.8419C22.5498 37.9407 22.451 38.0147 22.3028 38.0394C22.1793 38.0641 22.0806 38.0147 22.0065 37.9407C21.9571 37.8913 21.9077 37.7678 21.883 37.594L21.8821 37.5932ZM22.0056 37.5932C22.0303 37.7166 22.055 37.8154 22.1291 37.8895C22.1785 37.9636 22.2772 37.9883 22.376 37.9636C22.5242 37.9389 22.5983 37.8648 22.6477 37.7413L22.5983 37.2713C22.5736 37.2219 22.5242 37.1725 22.4748 37.1478C22.4254 37.1231 22.3513 37.0984 22.2772 37.1231C22.1785 37.1231 22.1044 37.1725 22.0797 37.2713C22.0056 37.3453 21.9809 37.4441 22.0056 37.5932ZM21.7093 37.1972H21.6352C21.5611 37.1972 21.5117 37.2219 21.4623 37.2713C21.4129 37.3206 21.3882 37.37 21.3635 37.4441L21.4129 38.1364H21.2895L21.2154 37.1222H21.3142L21.3388 37.2951C21.3882 37.1716 21.487 37.0975 21.6105 37.0975H21.6846L21.7093 37.1963V37.1972ZM20.9667 37.5685C20.9667 37.6919 20.942 37.8154 20.9173 37.9151C20.8679 38.0139 20.8185 38.0879 20.7444 38.1373C20.6703 38.1867 20.5716 38.2114 20.4728 38.2114C20.2999 38.2114 20.1764 38.162 20.0768 38.0385C19.978 37.9151 19.9286 37.7669 19.9286 37.5685V37.4203C19.9286 37.2968 19.9533 37.1734 19.978 37.0737C20.0274 36.9749 20.0768 36.9008 20.1509 36.8514C20.2249 36.8021 20.3237 36.7774 20.4225 36.7774C20.5213 36.7774 20.6201 36.8021 20.6941 36.8514C20.7682 36.9008 20.8423 36.9749 20.8917 37.0737C20.9411 37.1725 20.9658 37.2713 20.9658 37.3956V37.5685H20.9667ZM20.8679 37.4203C20.8679 37.2474 20.8185 37.124 20.7444 37.0243C20.6703 36.9255 20.5716 36.8761 20.4225 36.9008C20.299 36.9008 20.2003 36.9502 20.1262 37.049C20.0521 37.1478 20.0274 37.2713 20.0274 37.445V37.5932C20.0274 37.766 20.0768 37.8895 20.1509 37.9892C20.2249 38.0879 20.3237 38.1373 20.4728 38.1373C20.5962 38.1373 20.695 38.0879 20.7691 37.9892C20.8432 37.8904 20.8679 37.7669 20.8679 37.5932V37.4203ZM18.7909 38.1867C18.5933 38.1867 18.469 38.0879 18.3949 37.9151C18.3702 37.841 18.3455 37.7422 18.3455 37.6434V37.594C18.3455 37.4953 18.3702 37.3965 18.4196 37.3224C18.469 37.2483 18.5184 37.1989 18.5925 37.1495C18.6665 37.1002 18.7406 37.1002 18.8147 37.1002C18.9382 37.1002 19.037 37.1495 19.111 37.2483C19.1851 37.3471 19.2098 37.4459 19.1851 37.5949V37.669L18.4434 37.6196V37.6443C18.4434 37.7678 18.4681 37.8666 18.5175 37.9407C18.5669 38.0147 18.6657 38.0641 18.7644 38.0641C18.8138 38.0641 18.8632 38.0641 18.9373 38.0394C18.9867 38.0147 19.0361 37.99 19.0608 37.9407L19.1349 37.99C19.0608 38.1382 18.9373 38.1876 18.7882 38.1876M18.8156 37.2219C18.7415 37.2219 18.6674 37.2466 18.5933 37.2959C18.5193 37.3453 18.4946 37.4441 18.4699 37.5429L19.0881 37.5923V37.5676C19.0881 37.4688 19.0634 37.3947 19.014 37.3206C18.9893 37.2466 18.9152 37.2219 18.8165 37.2219M17.7273 37.9892C17.8013 37.9892 17.8754 37.9892 17.9248 37.9398C17.9742 37.8904 18.0236 37.841 18.0236 37.7669L18.1224 37.7916C18.1224 37.841 18.073 37.9151 18.0483 37.9645C17.9989 38.0139 17.9495 38.0385 17.9001 38.0632C17.826 38.0879 17.7767 38.0879 17.7026 38.0879C17.5791 38.0632 17.4803 38.0139 17.4062 37.9151C17.3321 37.8163 17.3075 37.6928 17.3321 37.5191V37.4944C17.3321 37.3956 17.3815 37.3215 17.4062 37.2227C17.4556 37.1487 17.505 37.0993 17.5791 37.0746C17.6532 37.0499 17.7273 37.0252 17.826 37.0499C17.9495 37.0746 18.0236 37.0993 18.0977 37.1734C18.1718 37.2474 18.1965 37.3462 18.1718 37.445L18.073 37.4203C18.073 37.3462 18.0483 37.2721 18.0236 37.2227C17.9742 37.1734 17.9248 37.124 17.826 37.124C17.7273 37.0993 17.6285 37.1487 17.5791 37.198C17.505 37.2721 17.4803 37.3709 17.4556 37.4944V37.5191C17.4309 37.6426 17.4556 37.766 17.505 37.841C17.5544 37.9398 17.6285 37.9645 17.7273 37.9892ZM16.9855 37.9645L16.8621 37.9398L17.0349 36.9255L17.1584 36.9502L16.9855 37.9645ZM17.0843 36.6283C17.0843 36.5789 17.1337 36.5542 17.1831 36.5542C17.2078 36.5542 17.2325 36.5789 17.2325 36.5789C17.2325 36.6036 17.2572 36.6036 17.2325 36.6283C17.2325 36.653 17.2078 36.6777 17.2078 36.6777C17.1831 36.7024 17.1584 36.7024 17.1584 36.6777C17.1337 36.6777 17.109 36.653 17.109 36.653C17.0843 36.6777 17.0843 36.653 17.0843 36.6283ZM16.2685 37.6672L16.7633 36.8761L16.8868 36.9008L16.2932 37.841L16.1944 37.8163L16.0216 36.728L16.145 36.7527L16.2685 37.6681V37.6672ZM15.9219 36.8021C15.8972 36.8021 15.8725 36.7774 15.8478 36.7774C15.7737 36.7527 15.7243 36.7527 15.6503 36.7774C15.6009 36.8021 15.5515 36.8514 15.5021 36.9255L15.3292 37.6179L15.2305 37.5932L15.4774 36.6036L15.5762 36.6283L15.5268 36.7765C15.6256 36.6777 15.7243 36.6283 15.8487 36.6777C15.8734 36.6777 15.8981 36.7024 15.9228 36.7024V36.8012L15.9219 36.8021ZM14.5866 37.4203C14.4138 37.3709 14.315 37.2474 14.2647 37.0737C14.24 36.9749 14.2647 36.9008 14.2894 36.8021V36.7527C14.3141 36.6539 14.3635 36.5798 14.4129 36.5057C14.4623 36.4316 14.5364 36.4069 14.6104 36.3822C14.6845 36.3575 14.7586 36.3575 14.8327 36.3822C14.9562 36.4316 15.0303 36.481 15.0796 36.6045C15.129 36.7033 15.129 36.8267 15.0796 36.9758L15.0549 37.0252L14.3626 36.8029V36.8276C14.3379 36.9511 14.3379 37.0499 14.3626 37.124C14.412 37.2227 14.4614 37.2721 14.5602 37.3215C14.6096 37.3462 14.6836 37.3462 14.733 37.3462C14.7824 37.3462 14.8318 37.3215 14.8812 37.2721L14.9306 37.3462C14.8812 37.445 14.7577 37.4697 14.584 37.4203M14.8583 36.4801C14.7842 36.4554 14.7101 36.4554 14.636 36.5048C14.5619 36.5542 14.5126 36.6283 14.4632 36.7024L15.0567 36.8753C15.0814 36.7765 15.0814 36.7024 15.0567 36.6283C15.0073 36.5542 14.9579 36.5048 14.8592 36.4801M13.9684 36.8267C13.9931 36.7527 13.9931 36.6786 13.9684 36.6292C13.9437 36.5798 13.8449 36.5057 13.7461 36.4069C13.6227 36.3082 13.5486 36.2341 13.4992 36.16C13.4251 36.0612 13.4251 35.9624 13.4498 35.8637C13.4992 35.7649 13.5486 35.6908 13.6721 35.6661C13.7708 35.6414 13.8943 35.6414 14.0187 35.6908C14.0927 35.7155 14.1668 35.7649 14.2409 35.839C14.2903 35.8884 14.3397 35.9624 14.3397 36.0365C14.3644 36.1106 14.3397 36.1847 14.315 36.2588L14.2162 36.2094C14.2409 36.1106 14.2409 36.0365 14.2162 35.9624C14.1668 35.8884 14.1174 35.839 13.994 35.7896C13.8952 35.7402 13.7964 35.7402 13.7223 35.7649C13.6482 35.7896 13.5988 35.839 13.5742 35.913C13.5495 35.9871 13.5495 36.0365 13.5988 36.1106C13.6235 36.16 13.6976 36.2341 13.8211 36.3082C13.9199 36.3822 13.994 36.4563 14.0434 36.5057C14.0927 36.5551 14.1174 36.6292 14.1421 36.6786C14.1421 36.7527 14.1421 36.8021 14.1174 36.8514C14.068 36.9502 14.0187 37.0243 13.8952 37.049C13.7964 37.0737 13.6729 37.0737 13.5486 37.0243C13.4498 36.9996 13.3757 36.9502 13.3263 36.8761C13.2522 36.8267 13.2275 36.7527 13.2029 36.6786C13.1782 36.6045 13.2029 36.5304 13.2275 36.4563L13.3263 36.5057C13.3016 36.6045 13.3016 36.6786 13.351 36.7527C13.4004 36.8267 13.4745 36.9008 13.598 36.9255C13.6967 36.9749 13.7955 36.9749 13.8696 36.9502C13.8943 36.9502 13.9437 36.9008 13.9684 36.8267ZM12.8307 35.7384C12.806 35.7137 12.7813 35.7137 12.7566 35.689C12.7072 35.6643 12.6331 35.6396 12.559 35.6643C12.5096 35.689 12.4356 35.7137 12.3862 35.7631L12.0898 36.4061L11.9911 36.3567L12.4364 35.4165L12.5352 35.4659L12.4611 35.6141C12.5599 35.54 12.6834 35.5153 12.8077 35.5647C12.8324 35.5894 12.8571 35.5894 12.8818 35.6141L12.8324 35.7375L12.8307 35.7384ZM11.1982 35.3424C11.2476 35.2436 11.297 35.1943 11.371 35.1449C11.4451 35.0955 11.5192 35.0708 11.5933 35.0708C11.6674 35.0708 11.7662 35.0955 11.8402 35.1202C11.9637 35.1943 12.0378 35.2683 12.0625 35.4165C12.0872 35.54 12.0625 35.6635 11.9884 35.8125V35.8372C11.939 35.9113 11.8896 35.9854 11.8155 36.0348C11.7415 36.0841 11.6674 36.1088 11.5933 36.1088C11.5192 36.1088 11.4204 36.0841 11.3463 36.0595C11.2229 35.9854 11.1488 35.9113 11.1241 35.7631C11.0747 35.6396 11.0994 35.4915 11.1982 35.3424ZM11.2723 35.4165C11.2229 35.5153 11.1982 35.6388 11.2229 35.7384C11.2476 35.8372 11.297 35.9113 11.3957 35.9607C11.4945 36.0101 11.5686 36.0101 11.6674 35.9854C11.7662 35.936 11.8402 35.8619 11.8896 35.7631V35.7384C11.939 35.6643 11.939 35.5903 11.9637 35.5162C11.9637 35.4421 11.9637 35.3927 11.939 35.3186C11.9143 35.2692 11.8649 35.2198 11.8155 35.1951C11.7168 35.1458 11.6427 35.1458 11.5439 35.1704C11.4204 35.2198 11.3463 35.2939 11.2723 35.4174V35.4165ZM10.4812 35.5162L10.9759 34.7251L10.8278 34.6263L10.8771 34.5522L11.0253 34.651L11.0994 34.5522C11.1488 34.4534 11.2229 34.404 11.297 34.3793C11.371 34.3546 11.4451 34.3793 11.5439 34.4287C11.5686 34.4534 11.618 34.4781 11.6427 34.5028L11.5933 34.5769C11.5686 34.5522 11.5439 34.5275 11.5192 34.5028C11.4698 34.4781 11.4204 34.4534 11.371 34.4781C11.3217 34.5028 11.2723 34.5275 11.2476 34.6016L11.1735 34.7004L11.371 34.8238L11.3217 34.8979L11.1241 34.7745L10.6293 35.5656L10.4812 35.5162ZM9.98638 34.6995C9.8876 34.7983 9.78882 34.8723 9.66447 34.8723C9.54011 34.8723 9.41752 34.8477 9.31786 34.7489C9.24378 34.6995 9.16969 34.6254 9.145 34.5266C9.1203 34.4278 9.09561 34.3291 9.1203 34.255C9.145 34.1562 9.19439 34.0574 9.24377 33.9586L9.34255 33.8105C9.41664 33.7117 9.49072 33.6376 9.5895 33.5882C9.66358 33.5388 9.76236 33.5141 9.86114 33.5141C9.95992 33.5141 10.0587 33.5635 10.1328 33.6129C10.2563 33.7117 10.3303 33.8105 10.355 33.9093C10.3797 34.0327 10.355 34.1315 10.2809 34.2559L10.1822 34.1818C10.3056 33.9842 10.2563 33.8105 10.0834 33.6623C9.98461 33.5882 9.86114 33.5635 9.76148 33.5882C9.63801 33.6129 9.53923 33.7117 9.43957 33.8352L9.34079 33.9833C9.24201 34.1068 9.19262 34.2303 9.21732 34.3546C9.21732 34.4781 9.26671 34.5769 9.36548 34.651C9.46426 34.7251 9.56304 34.7498 9.63713 34.7498C9.71121 34.7498 9.80999 34.7004 9.88407 34.6016L9.98285 34.7004L9.98638 34.6995ZM9.0471 33.7849C8.97302 33.8837 8.87424 33.9578 8.77546 34.0072C8.67668 34.0565 8.5779 34.0565 8.47912 34.0565C8.38035 34.0318 8.28157 34.0072 8.20748 33.9331C8.08401 33.8343 8.00993 33.7108 8.00993 33.5371C8.00993 33.3889 8.05932 33.2407 8.20748 33.0917L8.30626 32.9929C8.38035 32.8941 8.47912 32.82 8.5779 32.7707C8.67668 32.7213 8.77546 32.6966 8.87424 32.7213C8.97302 32.746 9.0471 32.7707 9.14588 32.8447C9.21996 32.9188 9.29405 32.9929 9.31874 33.0917C9.34344 33.1905 9.34344 33.2892 9.31874 33.388C9.29405 33.4868 9.24466 33.5856 9.17057 33.6844L9.0471 33.7831V33.7849ZM9.0471 33.5865C9.14588 33.463 9.21996 33.3395 9.21996 33.2152C9.21996 33.0908 9.17057 32.9929 9.07179 32.9188C8.97302 32.8447 8.87424 32.7954 8.74988 32.82C8.62641 32.8447 8.52763 32.9188 8.40328 33.0423L8.3045 33.1411C8.20572 33.2645 8.15633 33.388 8.13163 33.5124C8.13163 33.6359 8.18102 33.7346 8.2798 33.8343C8.37858 33.9084 8.50205 33.9578 8.60171 33.9331C8.72519 33.9084 8.82397 33.8343 8.94832 33.7108L9.0471 33.5873V33.5865ZM7.78503 33.067C7.83442 33.0176 7.85911 32.9435 7.85911 32.8694C7.85911 32.7954 7.80972 32.6966 7.73564 32.5731C7.66156 32.4496 7.61217 32.3508 7.61217 32.2512C7.58747 32.1277 7.61217 32.0536 7.68625 31.9549C7.76033 31.8808 7.85911 31.8561 7.95789 31.8561C8.05667 31.8808 8.18014 31.9302 8.2798 32.0289C8.35389 32.103 8.40328 32.1524 8.42797 32.2265C8.45267 32.3006 8.45266 32.3747 8.45266 32.4487C8.42797 32.5228 8.40328 32.5969 8.35389 32.6463L8.2798 32.5722C8.35389 32.4981 8.37858 32.424 8.37858 32.35C8.37858 32.2759 8.32919 32.1771 8.25511 32.103C8.18102 32.0289 8.10694 31.9795 8.03286 31.9795C7.95877 31.9549 7.88469 31.9795 7.8353 32.0536C7.78591 32.103 7.76122 32.1771 7.78591 32.2265C7.78591 32.3006 7.8353 32.3994 7.90938 32.4981C7.98347 32.5969 8.00816 32.6957 8.03286 32.7698C8.05755 32.8439 8.05755 32.8932 8.05755 32.9673C8.03286 33.0414 8.00816 33.0908 7.95877 33.1402C7.88469 33.2143 7.78591 33.2637 7.68713 33.239C7.58835 33.2143 7.46488 33.1649 7.36522 33.0661C7.29114 32.992 7.24175 32.9179 7.21705 32.8439C7.19236 32.7698 7.16766 32.6957 7.19236 32.6216C7.21705 32.5475 7.24175 32.4734 7.29114 32.4241L7.36522 32.4981C7.29114 32.5722 7.26644 32.6463 7.29114 32.7451C7.31583 32.8439 7.36522 32.9179 7.4393 33.0167C7.51339 33.0908 7.58747 33.1402 7.68625 33.1402C7.66156 33.1402 7.73564 33.1155 7.78503 33.0661"
    fill="white"
  />
  <path d="M8.60181 19.2424H32.269" stroke="white" stroke-width="0.74" stroke-linecap="round" stroke-linejoin="round" />
  <path
    fill-rule="evenodd"
    clip-rule="evenodd"
    d="M27.2487 30.2976C27.2487 30.1742 27.2734 30.0754 27.3228 29.9757C27.3722 29.877 27.4216 29.8029 27.5204 29.7535C27.5944 29.7041 27.6932 29.6794 27.792 29.6794C27.9649 29.6794 28.0883 29.7288 28.188 29.8523C28.2877 29.9757 28.3362 30.1239 28.3362 30.2976V30.3223C28.3362 30.4458 28.3115 30.5446 28.2621 30.6443C28.2127 30.743 28.1633 30.8171 28.0645 30.8665C27.9657 30.9159 27.8917 30.9406 27.7682 30.9406C27.5953 30.9406 27.4719 30.8912 27.3722 30.7677C27.2981 30.6443 27.2487 30.4961 27.2487 30.2976ZM27.471 30.3223C27.471 30.4458 27.4957 30.5693 27.5698 30.6443C27.6191 30.7183 27.7179 30.7677 27.8167 30.7677C27.9155 30.7677 28.0143 30.7183 28.0636 30.6443C28.113 30.5702 28.1624 30.4467 28.1624 30.2976C28.1624 30.1742 28.1377 30.0507 28.0636 29.9757C28.0143 29.9016 27.9155 29.8523 27.8167 29.8523C27.7179 29.8523 27.6438 29.9016 27.5698 29.9757C27.4957 30.0498 27.471 30.1733 27.471 30.3223ZM26.9021 30.594C26.9021 30.5446 26.8774 30.4952 26.828 30.4705C26.7786 30.4458 26.7046 30.4211 26.6058 30.3964C26.507 30.3717 26.4082 30.347 26.3588 30.3223C26.3094 30.2976 26.2601 30.2483 26.2354 30.2236C26.2107 30.1742 26.186 30.1248 26.186 30.0754C26.186 29.9766 26.2354 29.9025 26.3094 29.8284C26.3835 29.7544 26.507 29.7297 26.6314 29.7297C26.7557 29.7297 26.8783 29.7544 26.9533 29.8284C27.0273 29.9025 27.0767 29.9766 27.0767 30.1001H26.8792C26.8792 30.0507 26.8545 30.0013 26.8051 29.9519C26.7557 29.9025 26.7063 29.9025 26.6322 29.9025C26.5582 29.9025 26.5088 29.9272 26.4594 29.9519C26.41 29.9766 26.3853 30.026 26.3853 30.0754C26.3853 30.1248 26.41 30.1742 26.4347 30.1989C26.4841 30.2236 26.5335 30.2483 26.6569 30.273C26.7557 30.2976 26.8298 30.3223 26.9039 30.347C26.978 30.3717 27.0027 30.4211 27.052 30.4705C27.0767 30.5199 27.1014 30.5693 27.1014 30.6434C27.1014 30.7421 27.052 30.8409 26.978 30.8903C26.9039 30.9644 26.7804 30.9891 26.656 30.9891C26.5573 30.9891 26.4832 30.9644 26.4091 30.9397C26.335 30.915 26.2856 30.8656 26.2362 30.7915C26.1869 30.7421 26.1622 30.6681 26.1622 30.594H26.3597C26.3597 30.6681 26.3844 30.7175 26.4338 30.7668C26.4832 30.8162 26.5573 30.8162 26.6314 30.8162C26.7054 30.8162 26.7795 30.7915 26.8289 30.7668C26.8783 30.6928 26.903 30.6434 26.903 30.594M25.8147 30.3717H26.0369V30.5446H25.8147V30.9159H25.6171V30.5446H24.8754V30.4211L25.5924 29.3081H25.8147V30.3717ZM25.1215 30.3717H25.6162V29.5806L25.5915 29.63L25.1215 30.3717ZM24.3303 30.7677C24.4044 30.7677 24.4785 30.743 24.5279 30.6936C24.5773 30.6443 24.602 30.5949 24.6267 30.5208H24.8242C24.8242 30.5949 24.7995 30.6689 24.7502 30.7183C24.7008 30.7677 24.6514 30.8418 24.5773 30.8665C24.5032 30.8912 24.4291 30.9159 24.355 30.9159C24.1822 30.9159 24.0587 30.8665 23.959 30.743C23.8603 30.6443 23.8109 30.4961 23.8109 30.2976V30.273C23.8109 30.1495 23.8356 30.0507 23.885 29.951C23.9343 29.8523 23.9837 29.7782 24.0578 29.7288C24.1319 29.6794 24.2307 29.6547 24.3295 29.6547C24.4529 29.6547 24.5764 29.7041 24.6761 29.7782C24.7748 29.8523 24.8242 29.951 24.8242 30.1001H24.6267C24.6267 30.026 24.602 29.9519 24.5279 29.9025C24.4785 29.8531 24.4044 29.8284 24.3303 29.8284C24.2316 29.8284 24.1575 29.8778 24.0834 29.9519C24.034 30.026 24.0093 30.1248 24.0093 30.2738V30.3232C24.0093 30.4714 24.034 30.5702 24.0834 30.6451C24.1575 30.7192 24.2316 30.7686 24.3303 30.7686M22.5744 30.2976C22.5744 30.1742 22.5991 30.0754 22.6485 29.9757C22.6979 29.877 22.7472 29.8029 22.846 29.7535C22.9201 29.7041 23.0189 29.6794 23.1177 29.6794C23.2905 29.6794 23.414 29.7288 23.5137 29.8523C23.6124 29.9757 23.6618 30.1239 23.6618 30.2976V30.3223C23.6618 30.4458 23.6371 30.5446 23.5877 30.6443C23.5384 30.743 23.489 30.8171 23.3902 30.8665C23.2914 30.9159 23.2173 30.9406 23.0939 30.9406C22.921 30.9406 22.7975 30.8912 22.6979 30.7677C22.6238 30.6443 22.5744 30.4961 22.5744 30.2976ZM22.7719 30.3223C22.7719 30.4458 22.7966 30.5693 22.8707 30.6443C22.9201 30.7183 23.0189 30.7677 23.1177 30.7677C23.2164 30.7677 23.3152 30.7183 23.3646 30.6443C23.414 30.5702 23.4634 30.4467 23.4634 30.2976C23.4634 30.1742 23.4387 30.0507 23.3646 29.9757C23.3152 29.9016 23.2164 29.8523 23.1177 29.8523C23.0189 29.8523 22.9448 29.9016 22.8707 29.9757C22.7966 30.0498 22.7719 30.1733 22.7719 30.3223ZM22.204 30.594C22.204 30.5446 22.1793 30.4952 22.1299 30.4705C22.0805 30.4458 22.0064 30.4211 21.9076 30.3964C21.8088 30.3717 21.7101 30.347 21.6607 30.3223C21.6113 30.2976 21.5619 30.2483 21.5372 30.2236C21.5125 30.1742 21.4878 30.1248 21.4878 30.0754C21.4878 29.9766 21.5372 29.9025 21.6113 29.8284C21.6854 29.7544 21.8088 29.7297 21.9332 29.7297C22.0576 29.7297 22.1801 29.7544 22.2551 29.8284C22.3292 29.9025 22.3786 29.9766 22.3786 30.1001H22.181C22.181 30.0507 22.1563 30.0013 22.1069 29.9519C22.0576 29.9025 22.0082 29.9025 21.9341 29.9025C21.86 29.9025 21.8106 29.9272 21.7612 29.9519C21.7118 29.9766 21.6871 30.026 21.6871 30.0754C21.6871 30.1248 21.7118 30.1742 21.7365 30.1989C21.7859 30.2236 21.8353 30.2483 21.9588 30.273C22.0576 30.2976 22.1316 30.3223 22.2057 30.347C22.2798 30.3717 22.3045 30.4211 22.3539 30.4705C22.3786 30.5199 22.4033 30.5693 22.4033 30.6434C22.4033 30.7421 22.3539 30.8409 22.2798 30.8903C22.2057 30.9644 22.0823 30.9891 21.9579 30.9891C21.8591 30.9891 21.785 30.9644 21.711 30.9397C21.6369 30.915 21.5875 30.8656 21.5381 30.7915C21.4887 30.7421 21.464 30.6681 21.464 30.594H21.6616C21.6616 30.6681 21.6863 30.7175 21.7356 30.7668C21.785 30.8162 21.8591 30.8162 21.9332 30.8162C22.0073 30.8162 22.0814 30.7915 22.1308 30.7668C22.1801 30.6928 22.2048 30.6434 22.2048 30.594M20.6702 31.0394H20.4974L21.165 29.2834H21.3379L20.6702 31.0394ZM19.3597 30.2976C19.3597 30.1001 19.4091 29.951 19.4831 29.8523C19.5572 29.7535 19.6807 29.6794 19.8297 29.6794C19.9788 29.6794 20.1014 29.7288 20.1764 29.8276V29.7041H20.3739V30.8665C20.3739 31.0147 20.3245 31.1381 20.2257 31.2378C20.127 31.3366 20.0035 31.3613 19.8544 31.3613C19.7804 31.3613 19.6816 31.3366 19.6075 31.3119C19.5334 31.2872 19.4593 31.2131 19.4099 31.1637L19.5087 31.0402C19.6075 31.139 19.7063 31.2131 19.8306 31.2131C19.9294 31.2131 20.0035 31.1884 20.0529 31.139C20.1023 31.0896 20.127 31.0156 20.127 30.8921V30.7933C20.0529 30.8921 19.9294 30.9415 19.7804 30.9415C19.6313 30.9415 19.5334 30.8921 19.4338 30.7686C19.4091 30.6451 19.3597 30.497 19.3597 30.2985M19.5819 30.3223C19.5819 30.4458 19.6066 30.5693 19.656 30.6443C19.7054 30.7192 19.7795 30.7677 19.8783 30.7677C20.0017 30.7677 20.1005 30.7183 20.1499 30.5949V30.0507C20.0758 29.9272 20.0017 29.8778 19.8783 29.8778C19.7795 29.8778 19.7054 29.9272 19.656 30.0013C19.6066 30.0507 19.5819 30.1742 19.5819 30.3232M19.2856 29.9016H19.1868C19.0633 29.9016 18.9646 29.951 18.9152 30.0745V30.915H18.7176V29.7279H18.9152V29.8761C18.9893 29.7773 19.088 29.7279 19.2115 29.7279C19.2609 29.7279 19.2856 29.7279 19.3103 29.7526L19.2856 29.9008V29.9016ZM17.4053 30.2976C17.4053 30.1742 17.43 30.0754 17.4794 29.9757C17.5287 29.877 17.5781 29.8029 17.6769 29.7535C17.751 29.7041 17.8498 29.6794 17.9485 29.6794C18.1214 29.6794 18.2449 29.7288 18.3445 29.8523C18.4442 29.9757 18.4927 30.1239 18.4927 30.2976V30.3223C18.4927 30.4458 18.468 30.5446 18.4186 30.6443C18.3692 30.743 18.3198 30.8171 18.2211 30.8665C18.1223 30.9159 18.0482 30.9406 17.9247 30.9406C17.7519 30.9406 17.6284 30.8912 17.5287 30.7677C17.4547 30.6443 17.4053 30.4961 17.4053 30.2976ZM17.6284 30.3223C17.6284 30.4458 17.6531 30.5693 17.7272 30.6443C17.7766 30.7183 17.8753 30.7677 17.9741 30.7677C18.0729 30.7677 18.1717 30.7183 18.2211 30.6443C18.2705 30.5702 18.3198 30.4467 18.3198 30.2976C18.3198 30.1742 18.2952 30.0507 18.2211 29.9757C18.1717 29.9016 18.0729 29.8523 17.9741 29.8523C17.8753 29.8523 17.8013 29.9016 17.7272 29.9757C17.6531 30.0498 17.6284 30.1733 17.6284 30.3223ZM16.9361 30.7924C16.9361 30.7677 16.9361 30.7183 16.9608 30.6936C16.9855 30.6689 17.0102 30.6689 17.0595 30.6689C17.1089 30.6689 17.1336 30.6689 17.1583 30.6936C17.183 30.7183 17.183 30.743 17.183 30.7924C17.183 30.8171 17.183 30.8418 17.1583 30.8665C17.1336 30.8912 17.1089 30.8912 17.0595 30.8912C17.0102 30.8912 16.9855 30.8912 16.9608 30.8665C16.9361 30.8665 16.9361 30.8171 16.9361 30.7924ZM16.4907 30.9159C16.4907 30.8912 16.466 30.8418 16.466 30.7924C16.3672 30.8912 16.2684 30.9406 16.1194 30.9406C15.9959 30.9406 15.8971 30.9159 15.823 30.8418C15.749 30.7677 15.6996 30.6936 15.6996 30.5949C15.6996 30.4714 15.749 30.3726 15.8477 30.2985C15.9465 30.2244 16.07 30.1997 16.2437 30.1997H16.4413V30.101C16.4413 30.0269 16.4166 29.9775 16.3672 29.9281C16.3178 29.8787 16.2684 29.854 16.1697 29.854C16.0956 29.854 16.0462 29.8787 15.9968 29.9034C15.9474 29.9281 15.9227 29.9775 15.9227 30.0269H15.7498C15.7498 29.9775 15.7745 29.9034 15.8239 29.854C15.8733 29.8046 15.9227 29.7552 15.9968 29.7306C16.0709 29.7059 16.145 29.6812 16.2437 29.6812C16.3919 29.6812 16.4907 29.7059 16.5656 29.7799C16.6397 29.854 16.6891 29.9528 16.6891 30.0763V30.6204C16.6891 30.7192 16.7138 30.818 16.7385 30.8921V30.9168H16.4916L16.4907 30.9159ZM16.1441 30.743C16.2182 30.743 16.2675 30.7183 16.3169 30.6936C16.3663 30.6689 16.4157 30.6196 16.4404 30.5702V30.3232H16.2922C16.0453 30.3232 15.9209 30.3973 15.9209 30.5455C15.9209 30.6196 15.9456 30.6689 15.995 30.6936C16.0197 30.7183 16.0938 30.743 16.1432 30.743H16.1441ZM15.5505 30.3223C15.5505 30.4952 15.5011 30.6443 15.4271 30.7677C15.353 30.8912 15.2295 30.9406 15.0804 30.9406C14.9314 30.9406 14.8335 30.8912 14.7338 30.7924V31.3613H14.5363V29.7041H14.7338V29.8276C14.8079 29.7288 14.9314 29.6794 15.0804 29.6794C15.2295 29.6794 15.3274 29.7288 15.4271 29.8523C15.5011 29.951 15.5505 30.0992 15.5505 30.3223ZM15.353 30.2976C15.353 30.1742 15.3283 30.0507 15.2789 29.9757C15.2295 29.9008 15.1307 29.8523 15.0319 29.8523C14.9085 29.8523 14.8097 29.9016 14.7603 30.0251V30.594C14.8097 30.6928 14.9085 30.7668 15.0319 30.7668C15.1307 30.7668 15.2048 30.7175 15.2542 30.6434C15.3283 30.5693 15.353 30.4458 15.353 30.2968V30.2976ZM13.8942 30.7677C13.9683 30.7677 14.0424 30.743 14.0918 30.6936C14.1412 30.6443 14.1659 30.5949 14.1906 30.5208H14.3881C14.3881 30.5949 14.3634 30.6689 14.314 30.7183C14.2646 30.7677 14.2153 30.8418 14.1412 30.8665C14.0671 30.8912 13.993 30.9159 13.9189 30.9159C13.7461 30.9159 13.6226 30.8665 13.5229 30.743C13.4241 30.6443 13.3748 30.4961 13.3748 30.2976V30.273C13.3748 30.1495 13.3994 30.0507 13.4488 29.951C13.4982 29.8514 13.5476 29.7782 13.6217 29.7288C13.6958 29.6794 13.7946 29.6547 13.8933 29.6547C14.0168 29.6547 14.1403 29.7041 14.2399 29.7782C14.3396 29.8523 14.3881 29.951 14.3881 30.1001H14.1906C14.1906 30.026 14.1659 29.9519 14.0918 29.9025C14.0424 29.8531 13.9683 29.8284 13.8942 29.8284C13.7954 29.8284 13.7214 29.8778 13.6473 29.9519C13.5979 30.026 13.5732 30.1248 13.5732 30.2738V30.3232C13.5732 30.4714 13.5979 30.5702 13.6473 30.6451C13.6967 30.7192 13.7954 30.7686 13.8942 30.7686M12.9294 29.3822C12.9294 29.3575 12.9294 29.3328 12.9541 29.3081C12.9788 29.2834 13.0034 29.2834 13.0528 29.2834C13.1022 29.2834 13.1269 29.2834 13.1516 29.3081C13.1763 29.3328 13.1763 29.3575 13.1763 29.3822C13.1763 29.4069 13.1763 29.4316 13.1516 29.4563C13.1269 29.481 13.1022 29.481 13.0528 29.481C13.0034 29.481 12.9788 29.481 12.9541 29.4563C12.9294 29.4563 12.9294 29.4316 12.9294 29.3822ZM12.9294 30.9159H13.1269V29.7288H12.9294V30.9159ZM12.484 30.9159C12.484 30.8912 12.4593 30.8418 12.4593 30.7924C12.3605 30.8912 12.2617 30.9406 12.1127 30.9406C11.9892 30.9406 11.8904 30.9159 11.8163 30.8418C11.7423 30.7677 11.6929 30.6936 11.6929 30.5949C11.6929 30.4714 11.7423 30.3726 11.841 30.2985C11.9398 30.2244 12.0633 30.1997 12.237 30.1997H12.4346V30.101C12.4346 30.0269 12.4099 29.9775 12.3605 29.9281C12.3111 29.8787 12.2617 29.854 12.163 29.854C12.0889 29.854 12.0395 29.8787 11.9901 29.9034C11.9407 29.9281 11.916 29.9775 11.916 30.0269H11.7184C11.7184 29.9775 11.7431 29.9034 11.7925 29.854C11.8419 29.8046 11.8913 29.7552 11.9654 29.7306C12.0395 29.7059 12.1136 29.6812 12.2123 29.6812C12.3605 29.6812 12.4593 29.7059 12.5343 29.7799C12.6083 29.854 12.6577 29.9528 12.6577 30.0763V30.6204C12.6577 30.7192 12.6824 30.818 12.7071 30.8921V30.9168H12.4849L12.484 30.9159ZM12.1383 30.743C12.2123 30.743 12.2617 30.7183 12.3111 30.6936C12.3605 30.6689 12.4099 30.6196 12.4346 30.5702V30.3232H12.2864C12.0395 30.3232 11.9151 30.3973 11.9151 30.5455C11.9151 30.6196 11.9398 30.6689 11.9892 30.6936C12.0139 30.7183 12.0633 30.743 12.1374 30.743H12.1383Z"
    fill="white"
  />
  <path
    d="M52.068 25.144C51.5 25.144 50.98 25.04 50.508 24.832C50.036 24.616 49.636 24.324 49.308 23.956C48.98 23.588 48.744 23.176 48.6 22.72L49.62 22.3C49.836 22.876 50.156 23.32 50.58 23.632C51.012 23.936 51.516 24.088 52.092 24.088C52.444 24.088 52.752 24.032 53.016 23.92C53.28 23.808 53.484 23.652 53.628 23.452C53.78 23.244 53.856 23.004 53.856 22.732C53.856 22.356 53.748 22.06 53.532 21.844C53.324 21.62 53.016 21.452 52.608 21.34L50.964 20.836C50.316 20.636 49.82 20.32 49.476 19.888C49.132 19.456 48.96 18.96 48.96 18.4C48.96 17.912 49.076 17.484 49.308 17.116C49.548 16.74 49.876 16.448 50.292 16.24C50.716 16.024 51.196 15.916 51.732 15.916C52.268 15.916 52.752 16.012 53.184 16.204C53.624 16.396 53.996 16.656 54.3 16.984C54.604 17.304 54.828 17.672 54.972 18.088L53.964 18.508C53.772 18.004 53.484 17.624 53.1 17.368C52.716 17.104 52.264 16.972 51.744 16.972C51.424 16.972 51.14 17.028 50.892 17.14C50.652 17.244 50.464 17.4 50.328 17.608C50.2 17.808 50.136 18.048 50.136 18.328C50.136 18.656 50.24 18.948 50.448 19.204C50.656 19.46 50.972 19.656 51.396 19.792L52.896 20.236C53.6 20.452 54.132 20.76 54.492 21.16C54.852 21.56 55.032 22.056 55.032 22.648C55.032 23.136 54.904 23.568 54.648 23.944C54.4 24.32 54.052 24.616 53.604 24.832C53.164 25.04 52.652 25.144 52.068 25.144ZM61.0258 25.144C60.3938 25.144 59.8018 25.032 59.2498 24.808C58.6978 24.576 58.2138 24.252 57.7978 23.836C57.3898 23.42 57.0698 22.932 56.8378 22.372C56.6058 21.804 56.4898 21.188 56.4898 20.524C56.4898 19.852 56.6058 19.236 56.8378 18.676C57.0698 18.116 57.3898 17.628 57.7978 17.212C58.2138 16.796 58.6938 16.476 59.2378 16.252C59.7898 16.028 60.3858 15.916 61.0258 15.916C61.6658 15.916 62.2578 16.032 62.8018 16.264C63.3538 16.488 63.8338 16.808 64.2418 17.224C64.6578 17.632 64.9818 18.116 65.2138 18.676C65.4538 19.236 65.5738 19.852 65.5738 20.524C65.5738 21.188 65.4538 21.804 65.2138 22.372C64.9818 22.932 64.6578 23.42 64.2418 23.836C63.8338 24.252 63.3538 24.576 62.8018 24.808C62.2578 25.032 61.6658 25.144 61.0258 25.144ZM61.0258 24.052C61.5218 24.052 61.9738 23.964 62.3818 23.788C62.7898 23.604 63.1418 23.352 63.4378 23.032C63.7418 22.704 63.9738 22.328 64.1338 21.904C64.3018 21.472 64.3858 21.012 64.3858 20.524C64.3858 20.036 64.3018 19.58 64.1338 19.156C63.9738 18.732 63.7418 18.36 63.4378 18.04C63.1418 17.712 62.7898 17.46 62.3818 17.284C61.9738 17.1 61.5218 17.008 61.0258 17.008C60.5378 17.008 60.0898 17.1 59.6818 17.284C59.2738 17.46 58.9178 17.712 58.6138 18.04C58.3178 18.36 58.0858 18.732 57.9178 19.156C57.7498 19.58 57.6658 20.036 57.6658 20.524C57.6658 21.012 57.7498 21.472 57.9178 21.904C58.0858 22.328 58.3178 22.704 58.6138 23.032C58.9178 23.352 59.2738 23.604 59.6818 23.788C60.0898 23.964 60.5378 24.052 61.0258 24.052ZM71.405 25.144C70.773 25.144 70.189 25.032 69.653 24.808C69.125 24.576 68.661 24.252 68.261 23.836C67.869 23.42 67.565 22.932 67.349 22.372C67.133 21.812 67.025 21.2 67.025 20.536C67.025 19.864 67.133 19.248 67.349 18.688C67.565 18.128 67.869 17.64 68.261 17.224C68.653 16.808 69.117 16.488 69.653 16.264C70.189 16.032 70.773 15.916 71.405 15.916C72.021 15.916 72.573 16.024 73.061 16.24C73.557 16.456 73.973 16.736 74.309 17.08C74.653 17.424 74.897 17.792 75.041 18.184L73.961 18.676C73.753 18.18 73.429 17.78 72.989 17.476C72.549 17.164 72.021 17.008 71.405 17.008C70.781 17.008 70.225 17.156 69.737 17.452C69.257 17.748 68.881 18.16 68.609 18.688C68.337 19.216 68.201 19.832 68.201 20.536C68.201 21.232 68.337 21.844 68.609 22.372C68.881 22.9 69.257 23.312 69.737 23.608C70.225 23.904 70.781 24.052 71.405 24.052C72.021 24.052 72.549 23.9 72.989 23.596C73.429 23.284 73.753 22.88 73.961 22.384L75.041 22.876C74.897 23.268 74.653 23.636 74.309 23.98C73.973 24.324 73.557 24.604 73.061 24.82C72.573 25.036 72.021 25.144 71.405 25.144ZM78.3668 25V24.184L80.8388 21.508C81.3268 20.988 81.7148 20.56 82.0028 20.224C82.2988 19.888 82.5148 19.588 82.6508 19.324C82.7868 19.06 82.8548 18.78 82.8548 18.484C82.8548 17.996 82.7108 17.62 82.4228 17.356C82.1348 17.092 81.7548 16.96 81.2828 16.96C80.8028 16.96 80.3948 17.1 80.0588 17.38C79.7228 17.652 79.4908 18.04 79.3628 18.544L78.2948 18.268C78.3988 17.788 78.5908 17.372 78.8708 17.02C79.1508 16.668 79.4988 16.396 79.9148 16.204C80.3308 16.012 80.7868 15.916 81.2828 15.916C81.8268 15.916 82.3028 16.024 82.7108 16.24C83.1268 16.448 83.4508 16.74 83.6828 17.116C83.9228 17.492 84.0428 17.928 84.0428 18.424C84.0428 18.752 83.9748 19.072 83.8388 19.384C83.7028 19.696 83.5028 20.028 83.2388 20.38C82.9748 20.724 82.6308 21.124 82.2068 21.58L79.9988 23.98H84.2348V25H78.3668Z"
  />
  <path
    d="M135 40C146.046 40 155 31.0457 155 20C155 8.9543 146.046 0 135 0C123.954 0 115 8.9543 115 20C115 31.0457 123.954 40 135 40Z"
    fill="#E8000B"
  />
  <path
    d="M147.929 17.5898C147.638 16.8871 147.141 16.2888 146.504 15.8736C145.515 15.2963 144.397 14.9759 143.252 14.9414C142.107 14.9069 140.971 15.1596 139.949 15.6763C139.451 15.9503 139.02 16.3308 138.686 16.7906C138.352 17.2504 138.124 17.7782 138.018 18.3363C137.632 20.0954 137.735 22.189 139.091 23.4847C139.915 24.1639 140.896 24.627 141.945 24.8323C142.994 25.0375 144.077 24.9784 145.097 24.6603C145.311 24.6056 145.521 24.5338 145.723 24.4458C146.401 24.1792 146.994 23.7345 147.44 23.1587C147.935 22.327 148.236 21.3943 148.32 20.4301C148.405 19.4659 148.271 18.4951 147.929 17.5898ZM144.496 21.5541C144.476 21.7416 144.405 21.92 144.292 22.071C144.179 22.2219 144.027 22.3397 143.853 22.4121C143.547 22.5191 143.222 22.5568 142.9 22.5227C142.578 22.4886 142.267 22.3834 141.991 22.2148C141.812 22.0489 141.67 21.8468 141.576 21.6219C141.481 21.397 141.435 21.1545 141.442 20.9105C141.338 19.9548 141.399 18.9883 141.622 18.0531C141.747 17.8202 141.936 17.6283 142.168 17.5004C142.399 17.3725 142.662 17.3142 142.926 17.3324C143.19 17.3043 143.457 17.3377 143.705 17.43C143.954 17.5223 144.178 17.671 144.359 17.8644C144.528 18.2085 144.61 18.5883 144.599 18.9713C144.634 19.8336 144.6 20.6973 144.496 21.5541ZM127.713 22.4121H126.322V17.4439H127.721V15.0842H121.534V17.4353H122.942V22.395H121.534V24.6946H127.773V22.4121H127.713ZM143.475 25.7758C142.874 26.6461 142.145 27.4213 141.313 28.0754H141.167C140.815 27.8609 140.429 27.6893 140.086 27.4576C140.546 26.9222 140.96 26.348 141.322 25.7415H140.893C140.543 26.2838 140.144 26.7923 139.7 27.2603C139.106 27.0172 138.498 26.808 137.881 26.6339L137.803 26.5824C137.934 26.3042 138.046 26.0175 138.138 25.7243H137.761L137.383 26.4794C136.532 26.3145 135.673 26.1999 134.809 26.1362C134.757 26.016 134.809 25.8444 134.757 25.7243H134.388C134.406 25.8697 134.406 26.0166 134.388 26.1619C133.523 26.1955 132.663 26.2988 131.814 26.4708L131.437 25.7329C131.303 25.7157 131.167 25.7157 131.033 25.7329L131.394 26.591C130.759 26.7797 130.132 26.9942 129.523 27.2431H129.463C129.057 26.8186 128.69 26.3592 128.365 25.8702C128.296 25.6299 128.004 25.7672 127.841 25.7415C128.212 26.3485 128.634 26.9227 129.103 27.4576C128.725 27.6893 128.339 27.9038 127.936 28.1012C127.044 27.4549 126.262 26.6698 125.619 25.7758C125.468 25.75 125.315 25.75 125.164 25.7758C126.239 27.395 127.718 28.7053 129.454 29.577C130.58 30.1438 131.787 30.5289 133.033 30.7183C135.132 31.0164 137.273 30.7097 139.205 29.8344C141.137 28.959 142.779 27.5511 143.939 25.7758C143.798 25.7416 143.651 25.7416 143.51 25.7758H143.475ZM137.572 27.02C138.168 27.148 138.745 27.3528 139.288 27.6292C138.823 28.1348 138.295 28.5789 137.718 28.9507C137.392 29.1394 137.066 29.3539 136.722 29.517L136.122 29.251V29.1566C136.686 28.4861 137.191 27.7684 137.632 27.0114L137.572 27.02ZM134.757 26.6339C135.552 26.6381 136.344 26.7331 137.117 26.917C136.715 27.6929 136.244 28.431 135.71 29.1223C135.476 29.1182 135.244 29.0924 135.015 29.045H134.757V26.6339ZM132.029 26.8827C132.78 26.7265 133.544 26.6432 134.311 26.6339V28.985C134.019 29.0536 133.685 29.0536 133.402 29.1223C132.836 28.4484 132.341 27.718 131.926 26.9428L132.011 26.8827H132.029ZM129.746 27.6292C130.298 27.3713 130.873 27.1645 131.462 27.0114H131.514C131.943 27.7743 132.421 28.5081 132.947 29.2081C132.741 29.3196 132.492 29.3883 132.312 29.4998C131.354 29.0303 130.483 28.4006 129.738 27.6378L129.746 27.6292ZM131.625 29.9374C130.423 29.6149 129.289 29.0771 128.279 28.35C128.609 28.1242 128.96 27.9289 129.326 27.7665C130.11 28.5123 130.974 29.1712 131.9 29.7315C131.825 29.8199 131.731 29.8903 131.625 29.9374ZM136.877 30.1176C135.341 30.4695 133.745 30.4695 132.209 30.1176C132.209 30.049 132.286 30.0404 132.32 29.9889C133.025 29.5779 133.828 29.3678 134.644 29.3814C135.459 29.395 136.255 29.6318 136.945 30.0661C136.945 30.152 136.868 30.1262 136.842 30.152L136.877 30.1176ZM138.224 29.7487L137.563 29.9632C137.448 29.9069 137.341 29.8347 137.246 29.7487C138.178 29.2074 139.042 28.5563 139.82 27.8094C140.204 27.9689 140.57 28.1703 140.91 28.4101C140.09 29.0017 139.184 29.4647 138.224 29.783V29.7487ZM125.619 14.003C125.966 13.5158 126.347 13.0542 126.76 12.6215C127.092 12.2717 127.46 11.9582 127.858 11.6862C128.236 11.9179 128.648 12.1239 129 12.347C128.54 12.8813 128.13 13.4556 127.773 14.0631C127.916 14.0974 128.066 14.0974 128.21 14.0631C128.559 13.5336 128.958 13.0393 129.403 12.5872C129.999 12.821 130.606 13.0243 131.222 13.1965L131.274 13.2565L130.913 14.0545C131.048 14.088 131.19 14.088 131.325 14.0545C131.454 13.8143 131.54 13.5568 131.685 13.3166C132.531 13.5043 133.393 13.6078 134.26 13.6255C134.371 13.7285 134.26 13.9344 134.328 14.0545H134.706V13.6512C135.54 13.6156 136.37 13.5064 137.186 13.3252H137.254L137.632 14.0459C137.766 14.0631 137.901 14.0631 138.035 14.0459L137.632 13.2394C138.275 13.0616 138.906 12.8409 139.52 12.5786C139.97 13.0469 140.381 13.5521 140.747 14.0888C140.886 14.1061 141.027 14.1061 141.167 14.0888C140.991 13.7847 140.787 13.4974 140.558 13.2308C140.397 12.9291 140.211 12.642 140 12.3727V12.3041L140.995 11.7377L141.133 11.6862C142.011 12.3311 142.776 13.1169 143.398 14.0116C143.549 14.0374 143.702 14.0374 143.853 14.0116C142.914 12.6068 141.669 11.4335 140.211 10.5803C138.753 9.72706 137.12 9.21621 135.435 9.08629C135.019 9.03477 134.598 9.03477 134.182 9.08629C134.006 9.06059 133.827 9.06059 133.65 9.08629C131.947 9.20163 130.293 9.70931 128.817 10.5697C127.342 11.43 126.086 12.6198 125.147 14.0459C125.301 14.0631 125.456 14.0631 125.61 14.0459L125.619 14.003ZM131.497 12.776H131.437C130.851 12.6355 130.277 12.449 129.72 12.2183V12.1239C130.487 11.398 131.354 10.7854 132.295 10.3048C132.501 10.3991 132.724 10.4592 132.938 10.5536V10.6651C132.402 11.3274 131.923 12.0335 131.505 12.776H131.497ZM134.303 13.1621C133.92 13.2051 133.535 13.2051 133.153 13.1621C132.727 13.1074 132.305 13.0214 131.891 12.9047C132.295 12.1177 132.781 11.3756 133.341 10.6909L134.251 10.8196V13.1536L134.303 13.1621ZM134.732 13.1621V10.811L135.59 10.6995C136.163 11.3769 136.658 12.1167 137.066 12.9047C136.298 13.0911 135.513 13.1918 134.723 13.205L134.732 13.1621ZM139.254 12.1839C138.702 12.4345 138.127 12.63 137.537 12.7674C137.092 12.0143 136.605 11.2867 136.079 10.5879C136.276 10.4849 136.516 10.3991 136.722 10.279C137.677 10.7567 138.547 11.3887 139.297 12.1496L139.254 12.1839ZM137.443 9.80707C138.649 10.1094 139.787 10.6363 140.798 11.3602V11.4031L139.803 11.9179H139.691C138.921 11.1719 138.056 10.5314 137.117 10.013C137.193 9.91605 137.294 9.84183 137.409 9.79849L137.443 9.80707ZM136.877 9.6612C136.211 10.1074 135.434 10.3584 134.634 10.3857C133.833 10.413 133.04 10.2155 132.346 9.81565C132.269 9.76417 132.132 9.72985 132.114 9.63546C133.68 9.26648 135.311 9.26648 136.877 9.63546V9.6612ZM128.193 11.3773C129.087 10.7325 130.077 10.2343 131.128 9.90146C131.179 9.85856 131.213 9.82423 131.256 9.82423C131.368 9.82423 131.454 9.72126 131.548 9.82423C131.643 9.9272 131.728 9.94436 131.806 10.0216C130.878 10.5763 130.014 11.2325 129.231 11.978C128.864 11.8234 128.516 11.6276 128.193 11.3945V11.3773ZM134.277 22.5323C133.628 22.7264 132.939 22.7436 132.281 22.5822C131.624 22.4208 131.021 22.0866 130.536 21.6141C130.424 21.4768 130.355 21.3052 130.244 21.1765H128.339C128.339 22.292 128.296 23.5963 128.339 24.7118H130.467V24.0596C130.714 24.169 130.955 24.2922 131.188 24.4286C131.948 24.7682 132.771 24.9437 133.603 24.9437C134.436 24.9437 135.259 24.7682 136.019 24.4286C136.532 24.1442 136.948 23.7106 137.21 23.1851C137.472 22.6596 137.568 22.0669 137.486 21.4854C137.366 20.8706 137.074 20.3025 136.644 19.8468C136.215 19.3912 135.664 19.0668 135.058 18.9112L131.625 17.9244L131.377 17.7957C131.319 17.7546 131.273 17.6986 131.244 17.6336C131.216 17.5687 131.205 17.4972 131.213 17.4267C131.479 16.9634 132.072 17.1093 132.569 17.1178C133.072 17.1425 133.563 17.2775 134.008 17.5133C134.453 17.7491 134.841 18.0799 135.143 18.4822H137.16V15.1786H135.109C135.121 15.3684 135.106 15.559 135.066 15.7449L134.431 15.4189C133.611 15.055 132.716 14.8925 131.821 14.9447C130.925 14.997 130.055 15.2625 129.283 15.7192C128.858 16.0608 128.541 16.5181 128.371 17.0358C128.2 17.5535 128.183 18.1095 128.322 18.6366C128.469 19.128 128.735 19.5757 129.095 19.9407C129.456 20.3057 129.9 20.5768 130.39 20.7303C131.643 21.1851 132.964 21.4854 134.251 21.923C134.371 21.9831 134.543 22.1118 134.508 22.2577C134.474 22.4036 134.397 22.4379 134.311 22.498L134.277 22.5323Z"
    fill="white"
  />
  <path
    d="M163.996 24.5V15.56H165.172V24.5H163.996ZM170.232 24.644C169.664 24.644 169.144 24.54 168.672 24.332C168.2 24.116 167.8 23.824 167.472 23.456C167.144 23.088 166.908 22.676 166.764 22.22L167.784 21.8C168 22.376 168.32 22.82 168.744 23.132C169.176 23.436 169.68 23.588 170.256 23.588C170.608 23.588 170.916 23.532 171.18 23.42C171.444 23.308 171.648 23.152 171.792 22.952C171.944 22.744 172.02 22.504 172.02 22.232C172.02 21.856 171.912 21.56 171.696 21.344C171.488 21.12 171.18 20.952 170.772 20.84L169.128 20.336C168.48 20.136 167.984 19.82 167.64 19.388C167.296 18.956 167.124 18.46 167.124 17.9C167.124 17.412 167.24 16.984 167.472 16.616C167.712 16.24 168.04 15.948 168.456 15.74C168.88 15.524 169.36 15.416 169.896 15.416C170.432 15.416 170.916 15.512 171.348 15.704C171.788 15.896 172.16 16.156 172.464 16.484C172.768 16.804 172.992 17.172 173.136 17.588L172.128 18.008C171.936 17.504 171.648 17.124 171.264 16.868C170.88 16.604 170.428 16.472 169.908 16.472C169.588 16.472 169.304 16.528 169.056 16.64C168.816 16.744 168.628 16.9 168.492 17.108C168.364 17.308 168.3 17.548 168.3 17.828C168.3 18.156 168.404 18.448 168.612 18.704C168.82 18.96 169.136 19.156 169.56 19.292L171.06 19.736C171.764 19.952 172.296 20.26 172.656 20.66C173.016 21.06 173.196 21.556 173.196 22.148C173.196 22.636 173.068 23.068 172.812 23.444C172.564 23.82 172.216 24.116 171.768 24.332C171.328 24.54 170.816 24.644 170.232 24.644ZM179.19 24.644C178.558 24.644 177.966 24.532 177.414 24.308C176.862 24.076 176.378 23.752 175.962 23.336C175.554 22.92 175.234 22.432 175.002 21.872C174.77 21.304 174.654 20.688 174.654 20.024C174.654 19.352 174.77 18.736 175.002 18.176C175.234 17.616 175.554 17.128 175.962 16.712C176.378 16.296 176.858 15.976 177.402 15.752C177.954 15.528 178.55 15.416 179.19 15.416C179.83 15.416 180.422 15.532 180.966 15.764C181.518 15.988 181.998 16.308 182.406 16.724C182.822 17.132 183.146 17.616 183.378 18.176C183.618 18.736 183.738 19.352 183.738 20.024C183.738 20.688 183.618 21.304 183.378 21.872C183.146 22.432 182.822 22.92 182.406 23.336C181.998 23.752 181.518 24.076 180.966 24.308C180.422 24.532 179.83 24.644 179.19 24.644ZM179.19 23.552C179.686 23.552 180.138 23.464 180.546 23.288C180.954 23.104 181.306 22.852 181.602 22.532C181.906 22.204 182.138 21.828 182.298 21.404C182.466 20.972 182.55 20.512 182.55 20.024C182.55 19.536 182.466 19.08 182.298 18.656C182.138 18.232 181.906 17.86 181.602 17.54C181.306 17.212 180.954 16.96 180.546 16.784C180.138 16.6 179.686 16.508 179.19 16.508C178.702 16.508 178.254 16.6 177.846 16.784C177.438 16.96 177.082 17.212 176.778 17.54C176.482 17.86 176.25 18.232 176.082 18.656C175.914 19.08 175.83 19.536 175.83 20.024C175.83 20.512 175.914 20.972 176.082 21.404C176.25 21.828 176.482 22.204 176.778 22.532C177.082 22.852 177.438 23.104 177.846 23.288C178.254 23.464 178.702 23.552 179.19 23.552ZM187.179 24.5V23.684L189.651 21.008C190.139 20.488 190.527 20.06 190.815 19.724C191.111 19.388 191.327 19.088 191.463 18.824C191.599 18.56 191.667 18.28 191.667 17.984C191.667 17.496 191.523 17.12 191.235 16.856C190.947 16.592 190.567 16.46 190.095 16.46C189.615 16.46 189.207 16.6 188.871 16.88C188.535 17.152 188.303 17.54 188.175 18.044L187.107 17.768C187.211 17.288 187.403 16.872 187.683 16.52C187.963 16.168 188.311 15.896 188.727 15.704C189.143 15.512 189.599 15.416 190.095 15.416C190.639 15.416 191.115 15.524 191.523 15.74C191.939 15.948 192.263 16.24 192.495 16.616C192.735 16.992 192.855 17.428 192.855 17.924C192.855 18.252 192.787 18.572 192.651 18.884C192.515 19.196 192.315 19.528 192.051 19.88C191.787 20.224 191.443 20.624 191.019 21.08L188.811 23.48H193.047V24.5H187.179ZM194.639 24.5L198.563 16.58H194.183V15.56H199.799V16.58L195.911 24.5H194.639ZM204.645 24.644C203.933 24.644 203.309 24.452 202.773 24.068C202.245 23.676 201.833 23.136 201.537 22.448C201.241 21.752 201.093 20.944 201.093 20.024C201.093 19.104 201.241 18.3 201.537 17.612C201.833 16.916 202.245 16.376 202.773 15.992C203.301 15.608 203.921 15.416 204.633 15.416C205.345 15.416 205.965 15.608 206.493 15.992C207.021 16.376 207.433 16.916 207.729 17.612C208.033 18.3 208.185 19.104 208.185 20.024C208.185 20.944 208.037 21.752 207.741 22.448C207.445 23.144 207.029 23.684 206.493 24.068C205.965 24.452 205.349 24.644 204.645 24.644ZM204.645 23.552C205.125 23.552 205.541 23.408 205.893 23.12C206.245 22.824 206.517 22.412 206.709 21.884C206.909 21.356 207.009 20.736 207.009 20.024C207.009 19.312 206.909 18.692 206.709 18.164C206.517 17.636 206.241 17.228 205.881 16.94C205.529 16.652 205.113 16.508 204.633 16.508C204.153 16.508 203.737 16.652 203.385 16.94C203.033 17.228 202.757 17.636 202.557 18.164C202.365 18.692 202.269 19.312 202.269 20.024C202.269 20.728 202.365 21.344 202.557 21.872C202.757 22.4 203.033 22.812 203.385 23.108C203.745 23.404 204.165 23.552 204.645 23.552ZM213.329 24.644C212.617 24.644 211.993 24.452 211.457 24.068C210.929 23.676 210.517 23.136 210.221 22.448C209.925 21.752 209.777 20.944 209.777 20.024C209.777 19.104 209.925 18.3 210.221 17.612C210.517 16.916 210.929 16.376 211.457 15.992C211.985 15.608 212.605 15.416 213.317 15.416C214.029 15.416 214.649 15.608 215.177 15.992C215.705 16.376 216.117 16.916 216.413 17.612C216.717 18.3 216.869 19.104 216.869 20.024C216.869 20.944 216.721 21.752 216.425 22.448C216.129 23.144 215.713 23.684 215.177 24.068C214.649 24.452 214.033 24.644 213.329 24.644ZM213.329 23.552C213.809 23.552 214.225 23.408 214.577 23.12C214.929 22.824 215.201 22.412 215.393 21.884C215.593 21.356 215.693 20.736 215.693 20.024C215.693 19.312 215.593 18.692 215.393 18.164C215.201 17.636 214.925 17.228 214.565 16.94C214.213 16.652 213.797 16.508 213.317 16.508C212.837 16.508 212.421 16.652 212.069 16.94C211.717 17.228 211.441 17.636 211.241 18.164C211.049 18.692 210.953 19.312 210.953 20.024C210.953 20.728 211.049 21.344 211.241 21.872C211.441 22.4 211.717 22.812 212.069 23.108C212.429 23.404 212.849 23.552 213.329 23.552ZM219.792 24.5V16.58H218.1V15.56H220.98V24.5H219.792Z"
  />
  <defs>
    <linearGradient id="paint0_linear_3656_2061" x1="0" y1="20" x2="40" y2="20" gradientUnits="userSpaceOnUse">
      <stop stop-color="#00B0E4" />
      <stop offset="1" stop-color="#0B5BA7" />
    </linearGradient>
    <linearGradient id="paint1_linear_3656_2061" x1="4.47339" y1="20" x2="35.5269" y2="20" gradientUnits="userSpaceOnUse">
      <stop stop-color="#0B5BA7" />
      <stop offset="1" stop-color="#04AFE3" />
    </linearGradient>
  </defs>
</svg>